ISO-10303-21;
HEADER;
FILE_DESCRIPTION (( 'STEP AP214' ),
    '1' );
FILE_NAME ('9900.STEP',
    '2023-02-09T14:20:50',
    ( '' ),
    ( '' ),
    'SwSTEP 2.0',
    'SolidWorks 2013',
    '' );
FILE_SCHEMA (( 'AUTOMOTIVE_DESIGN' ));
ENDSEC;

DATA;
#1 = CONICAL_SURFACE ( 'NONE', #22, 0.04650000000000000000, 0.1745329251994333400 ) ;
#2 = CARTESIAN_POINT ( 'NONE',  ( 0.0000000000000000000, 0.2901861667838572200, 0.0000000000000000000 ) ) ;
#3 = B_SPLINE_CURVE_WITH_KNOTS ( 'NONE', 3,
 ( #176, #225, #454, #7 ),
 .UNSPECIFIED., .F., .F.,
 ( 4, 4 ),
 ( 0.0003064892814249057400, 0.001170122457373340600 ),
 .UNSPECIFIED. ) ;
#4 = EDGE_CURVE ( 'NONE', #628, #392, #529, .T. ) ;
#5 = EDGE_LOOP ( 'NONE', ( #330, #181, #313, #52 ) ) ;
#6 = EDGE_LOOP ( 'NONE', ( #388 ) ) ;
#7 = CARTESIAN_POINT ( 'NONE',  ( 0.01099999999999999900, 0.2849999999999999800, -0.04518019477602991400 ) ) ;
#8 = DIRECTION ( 'NONE',  ( -0.0000000000000000000, -1.000000000000000000, -0.0000000000000000000 ) ) ;
#9 = EDGE_CURVE ( 'NONE', #341, #341, #13, .T. ) ;
#10 = ORIENTED_EDGE ( 'NONE', *, *, #179, .T. ) ;
#11 = LINE ( 'NONE', #572, #513 ) ;
#12 = FACE_OUTER_BOUND ( 'NONE', #451, .T. ) ;
#13 = CIRCLE ( 'NONE', #605, 0.1060000000000000000 ) ;
#14 = CARTESIAN_POINT ( 'NONE',  ( 0.01685491526667393800, 0.3182048745072900100, -0.04956762031743960200 ) ) ;
#15 = DIRECTION ( 'NONE',  ( -0.0000000000000000000, -1.000000000000000000, -0.0000000000000000000 ) ) ;
#16 = EDGE_CURVE ( 'NONE', #42, #42, #110, .T. ) ;
#17 = FACE_BOUND ( 'NONE', #224, .T. ) ;
#18 = CARTESIAN_POINT ( 'NONE',  ( 0.04518019477602992800, 0.2849999999999999800, -0.01099999999999999900 ) ) ;
#19 = FACE_OUTER_BOUND ( 'NONE', #622, .T. ) ;
#20 = ORIENTED_EDGE ( 'NONE', *, *, #499, .T. ) ;
#21 = PLANE ( 'NONE',  #588 ) ;
#22 = AXIS2_PLACEMENT_3D ( 'NONE', #242, #587, #39 ) ;
#23 = CARTESIAN_POINT ( 'NONE',  ( 0.0000000000000000000, 0.2922737632982582700, 0.0000000000000000000 ) ) ;
#24 = ORIENTED_EDGE ( 'NONE', *, *, #4, .F. ) ;
#25 = AXIS2_PLACEMENT_3D ( 'NONE', #23, #83, #314 ) ;
#26 = CARTESIAN_POINT ( 'NONE',  ( 0.0000000000000000000, 0.2500000000000000600, 0.0000000000000000000 ) ) ;
#27 = FACE_OUTER_BOUND ( 'NONE', #455, .T. ) ;
#28 = DIRECTION ( 'NONE',  ( 0.0000000000000000000, 0.0000000000000000000, 1.000000000000000000 ) ) ;
#29 = ADVANCED_FACE ( 'NONE', ( #169 ), #21, .T. ) ;
#30 = VERTEX_POINT ( 'NONE', #280 ) ;
#31 = CARTESIAN_POINT ( 'NONE',  ( 0.0000000000000000000, 0.2922737632982582700, -0.1000588100200512100 ) ) ;
#32 = DIMENSIONAL_EXPONENTS ( 1.000000000000000000, 0.0000000000000000000, 0.0000000000000000000, 0.0000000000000000000, 0.0000000000000000000, 0.0000000000000000000, 0.0000000000000000000 ) ;
#33 = EDGE_CURVE ( 'NONE', #567, #100, #228, .T. ) ;
#34 = CARTESIAN_POINT ( 'NONE',  ( 1.694065894508600700E-017, 0.2849999999999999800, 0.0000000000000000000 ) ) ;
#35 = ORIENTED_EDGE ( 'NONE', *, *, #192, .T. ) ;
#36 = PRODUCT_DEFINITION_CONTEXT ( 'detailed design', #484, 'design' ) ;
#37 = CARTESIAN_POINT ( 'NONE',  ( 0.03911879807997428000, 0.3207352303075216600, -0.01730108526504694700 ) ) ;
#38 = ORIENTED_EDGE ( 'NONE', *, *, #60, .F. ) ;
#39 = DIRECTION ( 'NONE',  ( 0.0000000000000000000, 0.0000000000000000000, 1.000000000000000000 ) ) ;
#40 = B_SPLINE_CURVE_WITH_KNOTS ( 'NONE', 3,
 ( #418, #473, #285, #190 ),
 .UNSPECIFIED., .F., .F.,
 ( 4, 4 ),
 ( 0.0003064892814216664700, 0.001170122457373340600 ),
 .UNSPECIFIED. ) ;
#41 = AXIS2_PLACEMENT_3D ( 'NONE', #219, #410, #266 ) ;
#42 = VERTEX_POINT ( 'NONE', #240 ) ;
#43 = CARTESIAN_POINT ( 'NONE',  ( 0.01100000000000000500, 0.2849999999999999800, -0.01099999999999999900 ) ) ;
#44 = ADVANCED_FACE ( 'NONE', ( #145 ), #88, .F. ) ;
#45 = EDGE_LOOP ( 'NONE', ( #107, #336, #591, #173 ) ) ;
#46 = CARTESIAN_POINT ( 'NONE',  ( -0.04816886156024015300, 0.3071285986382543700, 0.01490186898519286000 ) ) ;
#47 = CARTESIAN_POINT ( 'NONE',  ( -0.04956762031745418800, 0.3182048745074053700, -0.01685491526669428300 ) ) ;
#48 = EDGE_CURVE ( 'NONE', #362, #154, #317, .T. ) ;
#49 = LENGTH_MEASURE_WITH_UNIT ( LENGTH_MEASURE( 0.02539999999999999900 ), #293 );
#50 = DIRECTION ( 'NONE',  ( -0.0000000000000000000, -1.000000000000000000, -0.0000000000000000000 ) ) ;
#51 = EDGE_CURVE ( 'NONE', #154, #464, #217, .T. ) ;
#52 = ORIENTED_EDGE ( 'NONE', *, *, #635, .F. ) ;
#53 = ORIENTED_EDGE ( 'NONE', *, *, #142, .T. ) ;
#54 = AXIS2_PLACEMENT_3D ( 'NONE', #254, #331, #640 ) ;
#55 = PLANE ( 'NONE',  #101 ) ;
#56 = CARTESIAN_POINT ( 'NONE',  ( 0.0000000000000000000, 0.0000000000000000000, 0.0000000000000000000 ) ) ;
#57 = EDGE_LOOP ( 'NONE', ( #38 ) ) ;
#58 = LINE ( 'NONE', #235, #358 ) ;
#59 = DIRECTION ( 'NONE',  ( 0.0000000000000000000, 0.0000000000000000000, -1.000000000000000000 ) ) ;
#60 = EDGE_CURVE ( 'NONE', #553, #553, #349, .T. ) ;
#61 = CARTESIAN_POINT ( 'NONE',  ( 0.0000000000000000000, 0.0000000000000000000, 0.0000000000000000000 ) ) ;
#62 = EDGE_LOOP ( 'NONE', ( #248 ) ) ;
#63 = B_SPLINE_CURVE_WITH_KNOTS ( 'NONE', 3,
 ( #295, #210, #172, #445 ),
 .UNSPECIFIED., .F., .F.,
 ( 4, 4 ),
 ( 3.851484763912112900E-005, 0.0008571244377071665300 ),
 .UNSPECIFIED. ) ;
#64 = PRODUCT ( '9900', '9900', '', ( #157 ) ) ;
#65 = AXIS2_PLACEMENT_3D ( 'NONE', #71, #561, #309 ) ;
#66 = DIRECTION ( 'NONE',  ( 0.1736481776669307200, -0.9848077530122080200, 0.0000000000000000000 ) ) ;
#67 = PRESENTATION_STYLE_ASSIGNMENT (( #160 ) ) ;
#68 = VECTOR ( 'NONE', #233, 39.37007874015748100 ) ;
#69 = CIRCLE ( 'NONE', #407, 0.05482638024105206100 ) ;
#70 = AXIS2_PLACEMENT_3D ( 'NONE', #636, #429, #28 ) ;
#71 = CARTESIAN_POINT ( 'NONE',  ( -0.01100000000000000500, 0.2849999999999999800, -0.01099999999999999900 ) ) ;
#72 = EDGE_CURVE ( 'NONE', #30, #403, #96, .T. ) ;
#73 = ORIENTED_EDGE ( 'NONE', *, *, #51, .F. ) ;
#74 = CARTESIAN_POINT ( 'NONE',  ( 0.01777070675434741900, 0.3233985861218932100, -0.01777070675434742200 ) ) ;
#75 = EDGE_LOOP ( 'NONE', ( #53, #500, #415, #461, #485, #524, #539, #300, #232, #562, #211, #420 ) ) ;
#76 = VERTEX_POINT ( 'NONE', #288 ) ;
#77 = DIRECTION ( 'NONE',  ( 0.0000000000000000000, 0.0000000000000000000, -1.000000000000000000 ) ) ;
#78 = LINE ( 'NONE', #498, #449 ) ;
#79 = AXIS2_PLACEMENT_3D ( 'NONE', #614, #316, #77 ) ;
#80 = CARTESIAN_POINT ( 'NONE',  ( -0.04956762031745535300, 0.3182048745074146400, 0.01685491526669592700 ) ) ;
#81 = ORIENTED_EDGE ( 'NONE', *, *, #547, .T. ) ;
#82 = CARTESIAN_POINT ( 'NONE',  ( 0.01730215906850211500, 0.3207413201495348300, -0.03909365075616912100 ) ) ;
#83 = DIRECTION ( 'NONE',  ( -0.0000000000000000000, -1.000000000000000000, -0.0000000000000000000 ) ) ;
#84 = EDGE_CURVE ( 'NONE', #327, #203, #93, .T. ) ;
#85 = CARTESIAN_POINT ( 'NONE',  ( -0.04956762031745418800, 0.3182048745074053700, -0.01685491526669428300 ) ) ;
#86 = ORIENTED_EDGE ( 'NONE', *, *, #568, .T. ) ;
#87 =( NAMED_UNIT ( * ) PLANE_ANGLE_UNIT ( ) SI_UNIT ( $, .RADIAN. ) );
#88 = PLANE ( 'NONE',  #559 ) ;
#89 = CARTESIAN_POINT ( 'NONE',  ( 0.0000000000000000000, 0.1130740709919645200, 0.0000000000000000000 ) ) ;
#90 = VERTEX_POINT ( 'NONE', #47 ) ;
#91 = CARTESIAN_POINT ( 'NONE',  ( 0.0000000000000000000, 0.2500000000000000600, -0.04499999999999999800 ) ) ;
#92 = CARTESIAN_POINT ( 'NONE',  ( -0.04518019477602992800, 0.2849999999999999800, 0.01099999999999998500 ) ) ;
#93 = CIRCLE ( 'NONE', #456, 0.05235491526669428700 ) ;
#94 = DIRECTION ( 'NONE',  ( 1.873239394071793700E-016, 0.0000000000000000000, -1.000000000000000000 ) ) ;
#95 = EDGE_LOOP ( 'NONE', ( #35, #600, #482, #637 ) ) ;
#96 = B_SPLINE_CURVE_WITH_KNOTS ( 'NONE', 3,
 ( #253, #245, #594, #589 ),
 .UNSPECIFIED., .F., .F.,
 ( 4, 4 ),
 ( 0.0003064892814219080300, 0.001170122457373340600 ),
 .UNSPECIFIED. ) ;
#97 = CARTESIAN_POINT ( 'NONE',  ( -0.01760780518944406200, 0.3224747254384695600, 0.02849501614471846400 ) ) ;
#98 = AXIS2_PLACEMENT_3D ( 'NONE', #573, #372, #422 ) ;
#99 = CARTESIAN_POINT ( 'NONE',  ( 0.01685491526669592700, 0.3182048745074146400, 0.04956762031745534600 ) ) ;
#100 = VERTEX_POINT ( 'NONE', #43 ) ;
#101 = AXIS2_PLACEMENT_3D ( 'NONE', #450, #174, #552 ) ;
#102 = FACE_OUTER_BOUND ( 'NONE', #419, .T. ) ;
#103 = DIRECTION ( 'NONE',  ( 0.0000000000000000000, 0.0000000000000000000, 1.000000000000000000 ) ) ;
#104 = FACE_OUTER_BOUND ( 'NONE', #164, .T. ) ;
#105 = CARTESIAN_POINT ( 'NONE',  ( -0.01730215906850218100, 0.3207413201495351000, 0.03909365075616693500 ) ) ;
#106 = STYLED_ITEM ( 'NONE', ( #67 ), #350 ) ;
#107 = ORIENTED_EDGE ( 'NONE', *, *, #501, .T. ) ;
#108 = ORIENTED_EDGE ( 'NONE', *, *, #84, .F. ) ;
#109 = DIRECTION ( 'NONE',  ( 0.0000000000000000000, 0.9848077530122080200, -0.1736481776669307200 ) ) ;
#110 = CIRCLE ( 'NONE', #98, 0.04499999999999999800 ) ;
#111 = CARTESIAN_POINT ( 'NONE',  ( 0.0000000000000000000, 0.2210319677163190300, 0.0000000000000000000 ) ) ;
#112 = ORIENTED_EDGE ( 'NONE', *, *, #165, .F. ) ;
#113 = AXIS2_PLACEMENT_3D ( 'NONE', #241, #375, #377 ) ;
#114 = DIRECTION ( 'NONE',  ( 0.0000000000000000000, -1.000000000000000000, 0.0000000000000000000 ) ) ;
#115 = DIRECTION ( 'NONE',  ( 0.0000000000000000000, 0.0000000000000000000, 1.000000000000000000 ) ) ;
#116 = EDGE_LOOP ( 'NONE', ( #187 ) ) ;
#117 = EDGE_LOOP ( 'NONE', ( #389, #579, #384, #230 ) ) ;
#118 = VERTEX_POINT ( 'NONE', #31 ) ;
#119 = CYLINDRICAL_SURFACE ( 'NONE', #326, 0.04499999999999999800 ) ;
#120 = FACE_BOUND ( 'NONE', #62, .T. ) ;
#121 = EDGE_CURVE ( 'NONE', #30, #212, #186, .T. ) ;
#122 = EDGE_CURVE ( 'NONE', #453, #628, #615, .T. ) ;
#123 = CARTESIAN_POINT ( 'NONE',  ( -0.01100000000000000500, 0.2849999999999999800, -0.01099999999999999900 ) ) ;
#124 = DIRECTION ( 'NONE',  ( 0.0000000000000000000, 0.0000000000000000000, 1.000000000000000000 ) ) ;
#125 = CARTESIAN_POINT ( 'NONE',  ( 0.04956762031745535300, 0.3182048745074146400, -0.01685491526669592700 ) ) ;
#126 = VECTOR ( 'NONE', #659, 39.37007874015748100 ) ;
#127 = AXIS2_PLACEMENT_3D ( 'NONE', #548, #554, #263 ) ;
#128 = EDGE_LOOP ( 'NONE', ( #218 ) ) ;
#129 = ORIENTED_EDGE ( 'NONE', *, *, #536, .F. ) ;
#130 = DIRECTION ( 'NONE',  ( 0.0000000000000000000, -0.1736481776669307200, -0.9848077530122080200 ) ) ;
#131 = CARTESIAN_POINT ( 'NONE',  ( -0.03911879807997427300, 0.3207352303075216600, 0.01730108526504694700 ) ) ;
#132 = ORIENTED_EDGE ( 'NONE', *, *, #33, .F. ) ;
#133 = LINE ( 'NONE', #421, #506 ) ;
#134 = CYLINDRICAL_SURFACE ( 'NONE', #54, 0.05482638024105206100 ) ;
#135 = CARTESIAN_POINT ( 'NONE',  ( -0.02848129312788794500, 0.3224759076270139500, 0.01760801364118071500 ) ) ;
#136 = VERTEX_POINT ( 'NONE', #493 ) ;
#137 = PRESENTATION_LAYER_ASSIGNMENT (  '', '', ( #106 ) ) ;
#138 =( NAMED_UNIT ( * ) SI_UNIT ( $, .STERADIAN. ) SOLID_ANGLE_UNIT ( ) );
#139 = ORIENTED_EDGE ( 'NONE', *, *, #563, .T. ) ;
#140 = ADVANCED_FACE ( 'NONE', ( #19, #391 ), #134, .T. ) ;
#141 = DIRECTION ( 'NONE',  ( 0.0000000000000000000, 0.0000000000000000000, 1.000000000000000000 ) ) ;
#142 = EDGE_CURVE ( 'NONE', #136, #651, #409, .T. ) ;
#143 = FACE_OUTER_BOUND ( 'NONE', #193, .T. ) ;
#144 = DIRECTION ( 'NONE',  ( -0.0000000000000000000, -1.000000000000000000, -0.0000000000000000000 ) ) ;
#145 = FACE_OUTER_BOUND ( 'NONE', #95, .T. ) ;
#146 = VERTEX_POINT ( 'NONE', #92 ) ;
#147 = ORIENTED_EDGE ( 'NONE', *, *, #48, .T. ) ;
#148 = DIRECTION ( 'NONE',  ( 0.0000000000000000000, 0.0000000000000000000, -1.000000000000000000 ) ) ;
#149 = VERTEX_POINT ( 'NONE', #633 ) ;
#150 = CARTESIAN_POINT ( 'NONE',  ( 0.01685491526669592700, 0.3182048745074146400, 0.04956762031745534600 ) ) ;
#151 = CARTESIAN_POINT ( 'NONE',  ( 0.0000000000000000000, 0.01512923900177914700, -0.05482638024105206100 ) ) ;
#152 = CARTESIAN_POINT ( 'NONE',  ( 0.01295002430072974900, 0.2960591373645413100, 0.04671241177994673400 ) ) ;
#153 = AXIS2_PLACEMENT_3D ( 'NONE', #558, #507, #66 ) ;
#154 = VERTEX_POINT ( 'NONE', #150 ) ;
#155 = ORIENTED_EDGE ( 'NONE', *, *, #446, .F. ) ;
#156 = ORIENTED_EDGE ( 'NONE', *, *, #202, .F. ) ;
#157 = PRODUCT_CONTEXT ( 'NONE', #335, 'mechanical' ) ;
#158 = LENGTH_MEASURE_WITH_UNIT ( LENGTH_MEASURE( 0.02539999999999999900 ), #577 );
#159 = ADVANCED_FACE ( 'NONE', ( #252 ), #1, .F. ) ;
#160 = SURFACE_STYLE_USAGE ( .BOTH. , #437 ) ;
#161 = CARTESIAN_POINT ( 'NONE',  ( 0.01777070675434741900, 0.3233985861218932100, 0.01777070675434741500 ) ) ;
#162 = ORIENTED_EDGE ( 'NONE', *, *, #638, .F. ) ;
#163 = EDGE_LOOP ( 'NONE', ( #342, #297, #86, #520, #264, #474, #147, #531, #646, #81, #10, #549 ) ) ;
#164 = EDGE_LOOP ( 'NONE', ( #517 ) ) ;
#165 = EDGE_CURVE ( 'NONE', #464, #453, #267, .T. ) ;
#166 = FACE_OUTER_BOUND ( 'NONE', #116, .T. ) ;
#167 = VECTOR ( 'NONE', #395, 39.37007874015748100 ) ;
#168 = DIRECTION ( 'NONE',  ( -0.0000000000000000000, 1.000000000000000000, -0.0000000000000000000 ) ) ;
#169 = FACE_OUTER_BOUND ( 'NONE', #75, .T. ) ;
#170 = AXIS2_PLACEMENT_3D ( 'NONE', #234, #458, #367 ) ;
#171 = DIRECTION ( 'NONE',  ( 0.0000000000000000000, 0.0000000000000000000, -1.000000000000000000 ) ) ;
#172 = CARTESIAN_POINT ( 'NONE',  ( 0.02849501614471847100, 0.3224747254384695600, 0.01760780518944405800 ) ) ;
#173 = ORIENTED_EDGE ( 'NONE', *, *, #547, .F. ) ;
#174 = DIRECTION ( 'NONE',  ( 0.0000000000000000000, -0.1736481776669307200, 0.9848077530122080200 ) ) ;
#175 = EDGE_CURVE ( 'NONE', #604, #146, #479, .T. ) ;
#176 = CARTESIAN_POINT ( 'NONE',  ( 0.01685491526667393800, 0.3182048745072900100, -0.04956762031743960200 ) ) ;
#177 = PLANE ( 'NONE',  #65 ) ;
#178 = MECHANICAL_DESIGN_GEOMETRIC_PRESENTATION_REPRESENTATION (  '', ( #106 ), #315 ) ;
#179 = EDGE_CURVE ( 'NONE', #604, #90, #279, .T. ) ;
#180 = CARTESIAN_POINT ( 'NONE',  ( 0.01777070675434741900, 0.3233985861218932100, 0.01777070675434741500 ) ) ;
#181 = ORIENTED_EDGE ( 'NONE', *, *, #343, .F. ) ;
#182 = ORIENTED_EDGE ( 'NONE', *, *, #399, .T. ) ;
#183 = CARTESIAN_POINT ( 'NONE',  ( -0.04816886156023933400, 0.3071285986382482100, -0.01490186898519176700 ) ) ;
#184 = PRESENTATION_LAYER_ASSIGNMENT (  '', '', ( #438 ) ) ;
#185 = DIRECTION ( 'NONE',  ( 0.0000000000000000000, 0.0000000000000000000, 1.000000000000000000 ) ) ;
#186 = B_SPLINE_CURVE_WITH_KNOTS ( 'NONE', 3,
 ( #533, #105, #97, #639 ),
 .UNSPECIFIED., .F., .F.,
 ( 4, 4 ),
 ( 3.851484763912112900E-005, 0.0008571244377071662100 ),
 .UNSPECIFIED. ) ;
#187 = ORIENTED_EDGE ( 'NONE', *, *, #471, .T. ) ;
#188 = DIRECTION ( 'NONE',  ( 0.0000000000000000000, -0.0000000000000000000, 1.000000000000000000 ) ) ;
#189 = EDGE_CURVE ( 'NONE', #392, #100, #476, .T. ) ;
#190 = CARTESIAN_POINT ( 'NONE',  ( -0.01099999999999999900, 0.2849999999999999800, -0.04518019477602991400 ) ) ;
#191 = TOROIDAL_SURFACE ( 'NONE', #209, 0.08520478898892766600, 0.01500000000000001500 ) ;
#192 = EDGE_CURVE ( 'NONE', #535, #628, #345, .T. ) ;
#193 = EDGE_LOOP ( 'NONE', ( #428, #156, #265, #162 ) ) ;
#194 = CARTESIAN_POINT ( 'NONE',  ( -0.01100000000000000500, 0.2849999999999999800, -0.01099999999999999900 ) ) ;
#195 = ADVANCED_FACE ( 'NONE', ( #425 ), #55, .F. ) ;
#196 = AXIS2_PLACEMENT_3D ( 'NONE', #541, #433, #545 ) ;
#197 = FILL_AREA_STYLE ('',( #460 ) ) ;
#198 = VERTEX_POINT ( 'NONE', #91 ) ;
#199 = ADVANCED_FACE ( 'NONE', ( #120, #271 ), #576, .T. ) ;
#200 = CARTESIAN_POINT ( 'NONE',  ( 0.02848129312788794800, 0.3224759076270139500, -0.01760801364118071500 ) ) ;
#201 = ADVANCED_FACE ( 'NONE', ( #12, #104 ), #119, .T. ) ;
#202 = EDGE_CURVE ( 'NONE', #508, #355, #78, .T. ) ;
#203 = VERTEX_POINT ( 'NONE', #259 ) ;
#204 = CARTESIAN_POINT ( 'NONE',  ( 0.01490186898519285700, 0.3071285986382543700, 0.04816886156024013900 ) ) ;
#205 = CARTESIAN_POINT ( 'NONE',  ( 0.04518019477602992800, 0.2849999999999999800, 0.01099999999999999900 ) ) ;
#206 = FILL_AREA_STYLE ('',( #481 ) ) ;
#207 = DIRECTION ( 'NONE',  ( 1.000000000000000000, -0.0000000000000000000, -0.0000000000000000000 ) ) ;
#208 = CIRCLE ( 'NONE', #41, 0.05235491526669428700 ) ;
#209 = AXIS2_PLACEMENT_3D ( 'NONE', #2, #311, #268 ) ;
#210 = CARTESIAN_POINT ( 'NONE',  ( 0.03909365075616694900, 0.3207413201495352100, 0.01730215906850218100 ) ) ;
#211 = ORIENTED_EDGE ( 'NONE', *, *, #189, .T. ) ;
#212 = VERTEX_POINT ( 'NONE', #650 ) ;
#213 = DIRECTION ( 'NONE',  ( -1.000000000000000000, 0.0000000000000000000, 0.0000000000000000000 ) ) ;
#214 = ORIENTED_EDGE ( 'NONE', *, *, #192, .F. ) ;
#215 = ORIENTED_EDGE ( 'NONE', *, *, #625, .F. ) ;
#216 = DIRECTION ( 'NONE',  ( 0.0000000000000000000, 0.0000000000000000000, -1.000000000000000000 ) ) ;
#217 = B_SPLINE_CURVE_WITH_KNOTS ( 'NONE', 3,
 ( #538, #204, #152, #387 ),
 .UNSPECIFIED., .F., .F.,
 ( 4, 4 ),
 ( 0.0003064892814216664700, 0.001170122457373340600 ),
 .UNSPECIFIED. ) ;
#218 = ORIENTED_EDGE ( 'NONE', *, *, #9, .F. ) ;
#219 = CARTESIAN_POINT ( 'NONE',  ( 0.0000000000000000000, 0.3182048745074053700, 0.0000000000000000000 ) ) ;
#220 = DIRECTION ( 'NONE',  ( 0.1710878697460358500, -0.9702875252478139200, 0.1710878697460358800 ) ) ;
#221 = LINE ( 'NONE', #416, #68 ) ;
#222 = EDGE_CURVE ( 'NONE', #497, #497, #397, .T. ) ;
#223 = CARTESIAN_POINT ( 'NONE',  ( 0.01100000000000000500, 0.2849999999999999800, -0.01099999999999999900 ) ) ;
#224 = EDGE_LOOP ( 'NONE', ( #273 ) ) ;
#225 = CARTESIAN_POINT ( 'NONE',  ( 0.01490186898517821400, 0.3071285986381713200, -0.04816886156022921100 ) ) ;
#226 = CARTESIAN_POINT ( 'NONE',  ( 0.01100000000000000500, 0.2849999999999999800, -0.01099999999999999900 ) ) ;
#227 = CONICAL_SURFACE ( 'NONE', #296, 0.04650000000000000000, 0.1745329251994333400 ) ;
#228 = LINE ( 'NONE', #526, #478 ) ;
#229 = CARTESIAN_POINT ( 'NONE',  ( -0.01685491526669592700, 0.3182048745074146400, -0.04956762031745533300 ) ) ;
#230 = ORIENTED_EDGE ( 'NONE', *, *, #121, .F. ) ;
#231 = CARTESIAN_POINT ( 'NONE',  ( 0.04956762031745535300, 0.3182048745074146400, -0.01685491526669592700 ) ) ;
#232 = ORIENTED_EDGE ( 'NONE', *, *, #122, .T. ) ;
#233 = DIRECTION ( 'NONE',  ( 1.873239394071793700E-016, -0.0000000000000000000, 1.000000000000000000 ) ) ;
#234 = CARTESIAN_POINT ( 'NONE',  ( 0.0000000000000000000, 0.2500000000000000600, 0.0000000000000000000 ) ) ;
#235 = CARTESIAN_POINT ( 'NONE',  ( -0.01100000000000000500, 0.2849999999999999800, 0.01099999999999999900 ) ) ;
#236 = ORIENTED_EDGE ( 'NONE', *, *, #175, .T. ) ;
#237 = CARTESIAN_POINT ( 'NONE',  ( 0.04956762031745535300, 0.3182048745074146400, -0.01685491526669592700 ) ) ;
#238 = ORIENTED_EDGE ( 'NONE', *, *, #179, .F. ) ;
#239 = ADVANCED_FACE ( 'NONE', ( #627 ), #379, .F. ) ;
#240 = CARTESIAN_POINT ( 'NONE',  ( 0.0000000000000000000, 0.2308583479573708700, -0.04499999999999999800 ) ) ;
#241 = CARTESIAN_POINT ( 'NONE',  ( 0.04499999999999999800, 0.2500000000000000600, 0.0000000000000000000 ) ) ;
#242 = CARTESIAN_POINT ( 'NONE',  ( 1.694065894508600700E-017, 0.2849999999999999800, 0.0000000000000000000 ) ) ;
#243 = EDGE_LOOP ( 'NONE', ( #551, #439, #400, #597 ) ) ;
#244 = UNCERTAINTY_MEASURE_WITH_UNIT (LENGTH_MEASURE( 1.000000000000000100E-005 ), #644, 'distance_accuracy_value', 'NONE');
#245 = CARTESIAN_POINT ( 'NONE',  ( -0.01490186898519176500, 0.3071285986382482100, 0.04816886156023932100 ) ) ;
#246 = AXIS2_PLACEMENT_3D ( 'NONE', #34, #382, #339 ) ;
#247 = APPLICATION_PROTOCOL_DEFINITION ( 'draft international standard', 'automotive_design', 1998, #335 ) ;
#248 = ORIENTED_EDGE ( 'NONE', *, *, #16, .T. ) ;
#249 = CARTESIAN_POINT ( 'NONE',  ( 0.01730108526504694700, 0.3207352303075216600, 0.03911879807997428000 ) ) ;
#250 = ADVANCED_FACE ( 'NONE', ( #143 ), #654, .F. ) ;
#251 = COLOUR_RGB ( '',0.8313725490196077800, 0.8392156862745098200, 0.8274509803921568100 ) ;
#252 = FACE_OUTER_BOUND ( 'NONE', #430, .T. ) ;
#253 = CARTESIAN_POINT ( 'NONE',  ( -0.01685491526669428300, 0.3182048745074053700, 0.04956762031745416000 ) ) ;
#254 = CARTESIAN_POINT ( 'NONE',  ( 0.0000000000000000000, 0.0000000000000000000, 0.0000000000000000000 ) ) ;
#255 = DIMENSIONAL_EXPONENTS ( 1.000000000000000000, 0.0000000000000000000, 0.0000000000000000000, 0.0000000000000000000, 0.0000000000000000000, 0.0000000000000000000, 0.0000000000000000000 ) ;
#256 = EDGE_CURVE ( 'NONE', #355, #146, #595, .T. ) ;
#257 = CIRCLE ( 'NONE', #656, 0.09176243282732794700 ) ;
#258 = AXIS2_PLACEMENT_3D ( 'NONE', #61, #306, #185 ) ;
#259 = CARTESIAN_POINT ( 'NONE',  ( 0.01685491526667393800, 0.3182048745072900100, -0.04956762031743960200 ) ) ;
#260 = PRODUCT_RELATED_PRODUCT_CATEGORY ( 'part', '', ( #64 ) ) ;
#261 = ORIENTED_EDGE ( 'NONE', *, *, #376, .F. ) ;
#262 = DIRECTION ( 'NONE',  ( 0.0000000000000000000, 1.000000000000000000, 0.0000000000000000000 ) ) ;
#263 = DIRECTION ( 'NONE',  ( 0.1736481776669307200, 0.9848077530122080200, 0.0000000000000000000 ) ) ;
#264 = ORIENTED_EDGE ( 'NONE', *, *, #452, .T. ) ;
#265 = ORIENTED_EDGE ( 'NONE', *, *, #312, .F. ) ;
#266 = DIRECTION ( 'NONE',  ( 0.0000000000000000000, 0.0000000000000000000, -1.000000000000000000 ) ) ;
#267 = LINE ( 'NONE', #334, #540 ) ;
#268 = DIRECTION ( 'NONE',  ( 0.0000000000000000000, 0.0000000000000000000, -1.000000000000000000 ) ) ;
#269 = PRODUCT_DEFINITION ( 'UNKNOWN', '', #294, #36 ) ;
#270 = PLANE ( 'NONE',  #153 ) ;
#271 = FACE_OUTER_BOUND ( 'NONE', #57, .T. ) ;
#272 = CARTESIAN_POINT ( 'NONE',  ( -0.01777070675434741900, 0.3233985861218932100, -0.01777070675434741200 ) ) ;
#273 = ORIENTED_EDGE ( 'NONE', *, *, #536, .T. ) ;
#274 = CARTESIAN_POINT ( 'NONE',  ( 0.04956762031745418100, 0.3182048745074053700, 0.01685491526669428300 ) ) ;
#275 = MECHANICAL_DESIGN_GEOMETRIC_PRESENTATION_REPRESENTATION (  '', ( #438 ), #394 ) ;
#276 = VECTOR ( 'NONE', #333, 39.37007874015748100 ) ;
#277 = CARTESIAN_POINT ( 'NONE',  ( 0.04671241177994674100, 0.2960591373645413100, -0.01295002430072975500 ) ) ;
#278 = UNCERTAINTY_MEASURE_WITH_UNIT (LENGTH_MEASURE( 1.000000000000000100E-005 ), #329, 'distance_accuracy_value', 'NONE');
#279 = CIRCLE ( 'NONE', #448, 0.05235491526669432100 ) ;
#280 = CARTESIAN_POINT ( 'NONE',  ( -0.01685491526669428300, 0.3182048745074053700, 0.04956762031745416000 ) ) ;
#281 = ORIENTED_EDGE ( 'NONE', *, *, #256, .F. ) ;
#282 = ADVANCED_FACE ( 'NONE', ( #27 ), #502, .F. ) ;
#283 =( CONVERSION_BASED_UNIT ( 'INCH', #158 ) LENGTH_UNIT ( ) NAMED_UNIT ( #255 ) );
#284 = EDGE_CURVE ( 'NONE', #535, #362, #63, .T. ) ;
#285 = CARTESIAN_POINT ( 'NONE',  ( -0.01295002430072975500, 0.2960591373645413100, -0.04671241177994672100 ) ) ;
#286 = ORIENTED_EDGE ( 'NONE', *, *, #488, .F. ) ;
#287 = ADVANCED_FACE ( 'NONE', ( #346 ), #227, .F. ) ;
#288 = CARTESIAN_POINT ( 'NONE',  ( 0.0000000000000000000, 0.3036768045481992300, -0.09176243282732794700 ) ) ;
#289 = CARTESIAN_POINT ( 'NONE',  ( -0.04956762031745535300, 0.3182048745074146400, 0.01685491526669592700 ) ) ;
#290 = LINE ( 'NONE', #194, #276 ) ;
#291 = DIRECTION ( 'NONE',  ( 0.0000000000000000000, -0.9848077530122080200, -0.1736481776669307200 ) ) ;
#292 = APPLICATION_PROTOCOL_DEFINITION ( 'draft international standard', 'automotive_design', 1998, #484 ) ;
#293 =( LENGTH_UNIT ( ) NAMED_UNIT ( * ) SI_UNIT ( $, .METRE. ) );
#294 = PRODUCT_DEFINITION_FORMATION_WITH_SPECIFIED_SOURCE ( 'ANY', '', #64, .NOT_KNOWN. ) ;
#295 = CARTESIAN_POINT ( 'NONE',  ( 0.04956762031745418100, 0.3182048745074053700, 0.01685491526669428300 ) ) ;
#296 = AXIS2_PLACEMENT_3D ( 'NONE', #647, #168, #115 ) ;
#297 = ORIENTED_EDGE ( 'NONE', *, *, #84, .T. ) ;
#298 = CARTESIAN_POINT ( 'NONE',  ( -0.01100000000000000500, 0.2849999999999999800, -0.01099999999999999900 ) ) ;
#299 = EDGE_LOOP ( 'NONE', ( #607 ) ) ;
#300 = ORIENTED_EDGE ( 'NONE', *, *, #165, .T. ) ;
#301 = B_SPLINE_CURVE_WITH_KNOTS ( 'NONE', 3,
 ( #14, #82, #366, #74 ),
 .UNSPECIFIED., .F., .F.,
 ( 4, 4 ),
 ( 3.851484763903824200E-005, 0.0008571244377071672900 ),
 .UNSPECIFIED. ) ;
#302 = CARTESIAN_POINT ( 'NONE',  ( 1.694065894508600700E-017, 0.2849999999999999800, 0.0000000000000000000 ) ) ;
#303 = TOROIDAL_SURFACE ( 'NONE', #503, -0.0008873635070601290800, 0.2119277867574532700 ) ;
#304 = AXIS2_PLACEMENT_3D ( 'NONE', #111, #50, #401 ) ;
#305 = CARTESIAN_POINT ( 'NONE',  ( 0.0000000000000000000, 0.3036768045481992300, 0.0000000000000000000 ) ) ;
#306 = DIRECTION ( 'NONE',  ( 0.0000000000000000000, 1.000000000000000000, 0.0000000000000000000 ) ) ;
#307 = LENGTH_MEASURE_WITH_UNIT ( LENGTH_MEASURE( 0.02539999999999999900 ), #629 );
#308 = FACE_OUTER_BOUND ( 'NONE', #599, .T. ) ;
#309 = DIRECTION ( 'NONE',  ( 0.1736481776669307200, -0.9848077530122080200, 0.0000000000000000000 ) ) ;
#310 = LINE ( 'NONE', #226, #126 ) ;
#311 = DIRECTION ( 'NONE',  ( -0.0000000000000000000, -1.000000000000000000, -0.0000000000000000000 ) ) ;
#312 = EDGE_CURVE ( 'NONE', #149, #508, #649, .T. ) ;
#313 = ORIENTED_EDGE ( 'NONE', *, *, #72, .F. ) ;
#314 = DIRECTION ( 'NONE',  ( 0.0000000000000000000, 0.0000000000000000000, -1.000000000000000000 ) ) ;
#315 =( GEOMETRIC_REPRESENTATION_CONTEXT ( 3 ) GLOBAL_UNCERTAINTY_ASSIGNED_CONTEXT ( ( #244 ) ) GLOBAL_UNIT_ASSIGNED_CONTEXT ( ( #644, #440, #544 ) ) REPRESENTATION_CONTEXT ( 'NONE', 'WORKASPACE' ) );
#316 = DIRECTION ( 'NONE',  ( 0.0000000000000000000, -1.000000000000000000, -0.0000000000000000000 ) ) ;
#317 = B_SPLINE_CURVE_WITH_KNOTS ( 'NONE', 3,
 ( #161, #483, #249, #99 ),
 .UNSPECIFIED., .F., .F.,
 ( 4, 4 ),
 ( 0.0001725541495458375700, 0.0009916868993215593700 ),
 .UNSPECIFIED. ) ;
#318 = ORIENTED_EDGE ( 'NONE', *, *, #142, .F. ) ;
#319 = VERTEX_POINT ( 'NONE', #411 ) ;
#320 = CARTESIAN_POINT ( 'NONE',  ( -0.01777070675434741900, 0.3233985861218932100, 0.01777070675434741200 ) ) ;
#321 = CARTESIAN_POINT ( 'NONE',  ( -0.01730108526504694300, 0.3207352303075216600, -0.03911879807997425300 ) ) ;
#322 = DIRECTION ( 'NONE',  ( -0.1710878697460358500, -0.9702875252478139200, 0.1710878697460358800 ) ) ;
#323 = FACE_OUTER_BOUND ( 'NONE', #655, .T. ) ;
#324 =( NAMED_UNIT ( * ) PLANE_ANGLE_UNIT ( ) SI_UNIT ( $, .RADIAN. ) );
#325 = SURFACE_SIDE_STYLE ('',( #436 ) ) ;
#326 = AXIS2_PLACEMENT_3D ( 'NONE', #496, #550, #171 ) ;
#327 = VERTEX_POINT ( 'NONE', #457 ) ;
#328 = SURFACE_STYLE_USAGE ( .BOTH. , #325 ) ;
#329 =( CONVERSION_BASED_UNIT ( 'INCH', #307 ) LENGTH_UNIT ( ) NAMED_UNIT ( #340 ) );
#330 = ORIENTED_EDGE ( 'NONE', *, *, #51, .T. ) ;
#331 = DIRECTION ( 'NONE',  ( -0.0000000000000000000, -1.000000000000000000, -0.0000000000000000000 ) ) ;
#332 = FACE_OUTER_BOUND ( 'NONE', #412, .T. ) ;
#333 = DIRECTION ( 'NONE',  ( -1.873239394071793700E-016, -0.0000000000000000000, 1.000000000000000000 ) ) ;
#334 = CARTESIAN_POINT ( 'NONE',  ( 0.01099999999999999900, 0.2849999999999999800, 0.04518019477602991400 ) ) ;
#335 = APPLICATION_CONTEXT ( 'automotive_design' ) ;
#336 = ORIENTED_EDGE ( 'NONE', *, *, #652, .F. ) ;
#337 = DIRECTION ( 'NONE',  ( 0.0000000000000000000, -1.000000000000000000, 0.0000000000000000000 ) ) ;
#338 = AXIS2_PLACEMENT_3D ( 'NONE', #298, #546, #109 ) ;
#339 = DIRECTION ( 'NONE',  ( 0.0000000000000000000, 0.0000000000000000000, 1.000000000000000000 ) ) ;
#340 = DIMENSIONAL_EXPONENTS ( 1.000000000000000000, 0.0000000000000000000, 0.0000000000000000000, 0.0000000000000000000, 0.0000000000000000000, 0.0000000000000000000, 0.0000000000000000000 ) ;
#341 = VERTEX_POINT ( 'NONE', #527 ) ;
#342 = ORIENTED_EDGE ( 'NONE', *, *, #510, .T. ) ;
#343 = EDGE_CURVE ( 'NONE', #403, #464, #601, .T. ) ;
#344 = CARTESIAN_POINT ( 'NONE',  ( 0.0000000000000000000, 0.3182048745074053700, 0.0000000000000000000 ) ) ;
#345 = B_SPLINE_CURVE_WITH_KNOTS ( 'NONE', 3,
 ( #447, #398, #393, #444 ),
 .UNSPECIFIED., .F., .F.,
 ( 4, 4 ),
 ( 0.0003064892814219080300, 0.001170122457373340600 ),
 .UNSPECIFIED. ) ;
#346 = FACE_OUTER_BOUND ( 'NONE', #5, .T. ) ;
#347 = AXIS2_PLACEMENT_3D ( 'NONE', #477, #103, #592 ) ;
#348 = DIRECTION ( 'NONE',  ( -0.0000000000000000000, -1.000000000000000000, -0.0000000000000000000 ) ) ;
#349 = CIRCLE ( 'NONE', #196, 0.05482638024105206100 ) ;
#350 = ADVANCED_BREP_SHAPE_REPRESENTATION ( '9900', ( #602, #347 ), #462 ) ;
#351 = DIRECTION ( 'NONE',  ( 0.0000000000000000000, 0.0000000000000000000, 1.000000000000000000 ) ) ;
#352 = EDGE_LOOP ( 'NONE', ( #487, #361, #132, #434 ) ) ;
#353 = DIRECTION ( 'NONE',  ( -0.0000000000000000000, -1.000000000000000000, -0.0000000000000000000 ) ) ;
#354 = VERTEX_POINT ( 'NONE', #125 ) ;
#355 = VERTEX_POINT ( 'NONE', #363 ) ;
#356 = EDGE_CURVE ( 'NONE', #100, #136, #310, .T. ) ;
#357 = CARTESIAN_POINT ( 'NONE',  ( 0.01100000000000000300, 0.2849999999999999800, 0.04518019477602991400 ) ) ;
#358 = VECTOR ( 'NONE', #574, 39.37007874015748100 ) ;
#359 = CIRCLE ( 'NONE', #606, 0.04499999999999999800 ) ;
#360 = CARTESIAN_POINT ( 'NONE',  ( 1.694065894508600700E-017, 0.2849999999999999800, 0.0000000000000000000 ) ) ;
#361 = ORIENTED_EDGE ( 'NONE', *, *, #356, .F. ) ;
#362 = VERTEX_POINT ( 'NONE', #180 ) ;
#363 = CARTESIAN_POINT ( 'NONE',  ( -0.04518019477602992800, 0.2849999999999999800, -0.01099999999999999900 ) ) ;
#364 = AXIS2_PLACEMENT_3D ( 'NONE', #18, #130, #467 ) ;
#365 = SURFACE_STYLE_FILL_AREA ( #206 ) ;
#366 = CARTESIAN_POINT ( 'NONE',  ( 0.01760780518944404100, 0.3224747254384694500, -0.02849501614471957500 ) ) ;
#367 = DIRECTION ( 'NONE',  ( 0.0000000000000000000, 0.0000000000000000000, -1.000000000000000000 ) ) ;
#368 = B_SPLINE_CURVE_WITH_KNOTS ( 'NONE', 3,
 ( #620, #183, #618, #522 ),
 .UNSPECIFIED., .F., .F.,
 ( 4, 4 ),
 ( 0.0003064892814219080300, 0.001170122457373340600 ),
 .UNSPECIFIED. ) ;
#369 = ORIENTED_EDGE ( 'NONE', *, *, #222, .T. ) ;
#370 = PLANE ( 'NONE',  #364 ) ;
#371 = CARTESIAN_POINT ( 'NONE',  ( 0.04518019477602992800, 0.2849999999999999800, -0.01100000000000000300 ) ) ;
#372 = DIRECTION ( 'NONE',  ( -0.0000000000000000000, -1.000000000000000000, -0.0000000000000000000 ) ) ;
#373 = FACE_BOUND ( 'NONE', #555, .T. ) ;
#374 = DIRECTION ( 'NONE',  ( -0.1710878697460358500, -0.9702875252478139200, -0.1710878697460358800 ) ) ;
#375 = DIRECTION ( 'NONE',  ( 0.0000000000000000000, -1.000000000000000000, -0.0000000000000000000 ) ) ;
#376 = EDGE_CURVE ( 'NONE', #203, #136, #3, .T. ) ;
#377 = DIRECTION ( 'NONE',  ( 0.0000000000000000000, 0.0000000000000000000, -1.000000000000000000 ) ) ;
#378 = DIRECTION ( 'NONE',  ( 0.0000000000000000000, 0.0000000000000000000, -1.000000000000000000 ) ) ;
#379 = CONICAL_SURFACE ( 'NONE', #571, 0.04650000000000000000, 0.1745329251994333400 ) ;
#380 = ADVANCED_FACE ( 'NONE', ( #515 ), #509, .F. ) ;
#381 = CARTESIAN_POINT ( 'NONE',  ( -0.01777070675434741900, 0.3233985861218932100, -0.01777070675434741200 ) ) ;
#382 = DIRECTION ( 'NONE',  ( 0.0000000000000000000, 1.000000000000000000, 0.0000000000000000000 ) ) ;
#383 = AXIS2_PLACEMENT_3D ( 'NONE', #360, #511, #124 ) ;
#384 = ORIENTED_EDGE ( 'NONE', *, *, #501, .F. ) ;
#385 = CARTESIAN_POINT ( 'NONE',  ( -0.02849501614471846800, 0.3224747254384695600, -0.01760780518944405800 ) ) ;
#386 = ADVANCED_FACE ( 'NONE', ( #468, #332 ), #191, .T. ) ;
#387 = CARTESIAN_POINT ( 'NONE',  ( 0.01100000000000000300, 0.2849999999999999800, 0.04518019477602991400 ) ) ;
#388 = ORIENTED_EDGE ( 'NONE', *, *, #222, .F. ) ;
#389 = ORIENTED_EDGE ( 'NONE', *, *, #72, .T. ) ;
#390 = B_SPLINE_CURVE_WITH_KNOTS ( 'NONE', 3,
 ( #85, #525, #385, #381 ),
 .UNSPECIFIED., .F., .F.,
 ( 4, 4 ),
 ( 3.851484763912155600E-005, 0.0008571244377071674000 ),
 .UNSPECIFIED. ) ;
#391 = FACE_OUTER_BOUND ( 'NONE', #299, .T. ) ;
#392 = VERTEX_POINT ( 'NONE', #610 ) ;
#393 = CARTESIAN_POINT ( 'NONE',  ( 0.04671241177994631100, 0.2960591373645382600, 0.01295002430072921000 ) ) ;
#394 =( GEOMETRIC_REPRESENTATION_CONTEXT ( 3 ) GLOBAL_UNCERTAINTY_ASSIGNED_CONTEXT ( ( #543 ) ) GLOBAL_UNIT_ASSIGNED_CONTEXT ( ( #283, #87, #138 ) ) REPRESENTATION_CONTEXT ( 'NONE', 'WORKASPACE' ) );
#395 = DIRECTION ( 'NONE',  ( -1.000000000000000000, 0.0000000000000000000, 0.0000000000000000000 ) ) ;
#396 = ADVANCED_FACE ( 'NONE', ( #492 ), #177, .F. ) ;
#397 = CIRCLE ( 'NONE', #642, 0.03800000000000002700 ) ;
#398 = CARTESIAN_POINT ( 'NONE',  ( 0.04816886156023934800, 0.3071285986382482100, 0.01490186898519176500 ) ) ;
#399 = EDGE_CURVE ( 'NONE', #198, #198, #359, .T. ) ;
#400 = ORIENTED_EDGE ( 'NONE', *, *, #596, .F. ) ;
#401 = DIRECTION ( 'NONE',  ( 0.0000000000000000000, 0.0000000000000000000, -1.000000000000000000 ) ) ;
#402 = CARTESIAN_POINT ( 'NONE',  ( -0.04671241177994674800, 0.2960591373645413100, 0.01295002430072975500 ) ) ;
#403 = VERTEX_POINT ( 'NONE', #413 ) ;
#404 = CLOSED_SHELL ( 'NONE', ( #643, #386, #582, #590, #201, #199, #140, #486, #586, #239, #396, #250, #634, #195, #432, #287, #282, #44, #159, #537, #380, #29 ) ) ;
#405 = SHAPE_DEFINITION_REPRESENTATION ( #480, #350 ) ;
#406 = CONICAL_SURFACE ( 'NONE', #258, 0.03800000000000002700, 0.8384576353231533200 ) ;
#407 = AXIS2_PLACEMENT_3D ( 'NONE', #518, #15, #624 ) ;
#408 = CARTESIAN_POINT ( 'NONE',  ( 0.01100000000000000500, 0.2849999999999999800, 0.01099999999999999900 ) ) ;
#409 = CIRCLE ( 'NONE', #246, 0.04650000000000000000 ) ;
#410 = DIRECTION ( 'NONE',  ( 0.0000000000000000000, -1.000000000000000000, 0.0000000000000000000 ) ) ;
#411 = CARTESIAN_POINT ( 'NONE',  ( -0.01100000000000000500, 0.2849999999999999800, 0.01099999999999999900 ) ) ;
#412 = EDGE_LOOP ( 'NONE', ( #129 ) ) ;
#413 = CARTESIAN_POINT ( 'NONE',  ( -0.01099999999999999900, 0.2849999999999999800, 0.04518019477602991400 ) ) ;
#414 = EDGE_LOOP ( 'NONE', ( #653, #584, #470, #215 ) ) ;
#415 = ORIENTED_EDGE ( 'NONE', *, *, #202, .T. ) ;
#416 = CARTESIAN_POINT ( 'NONE',  ( -0.01099999999999999900, 0.2849999999999999800, 0.04518019477602991400 ) ) ;
#417 = B_SPLINE_CURVE_WITH_KNOTS ( 'NONE', 3,
 ( #231, #569, #277, #371 ),
 .UNSPECIFIED., .F., .F.,
 ( 4, 4 ),
 ( 0.0003064892814216664700, 0.001170122457373340600 ),
 .UNSPECIFIED. ) ;
#418 = CARTESIAN_POINT ( 'NONE',  ( -0.01685491526669592700, 0.3182048745074146400, -0.04956762031745533300 ) ) ;
#419 = EDGE_LOOP ( 'NONE', ( #621 ) ) ;
#420 = ORIENTED_EDGE ( 'NONE', *, *, #356, .T. ) ;
#421 = CARTESIAN_POINT ( 'NONE',  ( 0.01200049050387610800, 0.2906740636053326600, 0.01200049050387610300 ) ) ;
#422 = DIRECTION ( 'NONE',  ( 0.0000000000000000000, 0.0000000000000000000, -1.000000000000000000 ) ) ;
#423 = CARTESIAN_POINT ( 'NONE',  ( -0.01760801364118071800, 0.3224759076270139500, -0.02848129312788792700 ) ) ;
#424 =( NAMED_UNIT ( * ) SI_UNIT ( $, .STERADIAN. ) SOLID_ANGLE_UNIT ( ) );
#425 = FACE_OUTER_BOUND ( 'NONE', #45, .T. ) ;
#426 = CARTESIAN_POINT ( 'NONE',  ( 0.04518019477602992800, 0.2849999999999999800, 0.01099999999999999900 ) ) ;
#427 = DIRECTION ( 'NONE',  ( 0.0000000000000000000, 1.000000000000000000, 0.0000000000000000000 ) ) ;
#428 = ORIENTED_EDGE ( 'NONE', *, *, #488, .T. ) ;
#429 = DIRECTION ( 'NONE',  ( -0.0000000000000000000, 1.000000000000000000, -0.0000000000000000000 ) ) ;
#430 = EDGE_LOOP ( 'NONE', ( #139, #24, #214, #431 ) ) ;
#431 = ORIENTED_EDGE ( 'NONE', *, *, #452, .F. ) ;
#432 = ADVANCED_FACE ( 'NONE', ( #459 ), #270, .F. ) ;
#433 = DIRECTION ( 'NONE',  ( -0.0000000000000000000, -1.000000000000000000, -0.0000000000000000000 ) ) ;
#434 = ORIENTED_EDGE ( 'NONE', *, *, #568, .F. ) ;
#435 = VERTEX_POINT ( 'NONE', #151 ) ;
#436 = SURFACE_STYLE_FILL_AREA ( #197 ) ;
#437 = SURFACE_SIDE_STYLE ('',( #365 ) ) ;
#438 = STYLED_ITEM ( 'NONE', ( #442 ), #602 ) ;
#439 = ORIENTED_EDGE ( 'NONE', *, *, #612, .F. ) ;
#440 =( NAMED_UNIT ( * ) PLANE_ANGLE_UNIT ( ) SI_UNIT ( $, .RADIAN. ) );
#441 = CARTESIAN_POINT ( 'NONE',  ( 0.04518019477602992800, 0.2849999999999999800, 0.01099999999999999900 ) ) ;
#442 = PRESENTATION_STYLE_ASSIGNMENT (( #328 ) ) ;
#443 = VECTOR ( 'NONE', #220, 39.37007874015748100 ) ;
#444 = CARTESIAN_POINT ( 'NONE',  ( 0.04518019477602992800, 0.2849999999999999800, 0.01099999999999999900 ) ) ;
#445 = CARTESIAN_POINT ( 'NONE',  ( 0.01777070675434741900, 0.3233985861218932100, 0.01777070675434741500 ) ) ;
#446 = EDGE_CURVE ( 'NONE', #76, #76, #257, .T. ) ;
#447 = CARTESIAN_POINT ( 'NONE',  ( 0.04956762031745418100, 0.3182048745074053700, 0.01685491526669428300 ) ) ;
#448 = AXIS2_PLACEMENT_3D ( 'NONE', #344, #114, #59 ) ;
#449 = VECTOR ( 'NONE', #213, 39.37007874015748100 ) ;
#450 = CARTESIAN_POINT ( 'NONE',  ( -0.01100000000000000500, 0.2849999999999999800, 0.01099999999999999900 ) ) ;
#451 = EDGE_LOOP ( 'NONE', ( #182 ) ) ;
#452 = EDGE_CURVE ( 'NONE', #354, #535, #208, .T. ) ;
#453 = VERTEX_POINT ( 'NONE', #408 ) ;
#454 = CARTESIAN_POINT ( 'NONE',  ( 0.01295002430072243400, 0.2960591373644998500, -0.04671241177994098900 ) ) ;
#455 = EDGE_LOOP ( 'NONE', ( #20, #112, #73, #658 ) ) ;
#456 = AXIS2_PLACEMENT_3D ( 'NONE', #645, #337, #593 ) ;
#457 = CARTESIAN_POINT ( 'NONE',  ( -0.01685491526669592700, 0.3182048745074146400, -0.04956762031745533300 ) ) ;
#458 = DIRECTION ( 'NONE',  ( -0.0000000000000000000, -1.000000000000000000, -0.0000000000000000000 ) ) ;
#459 = FACE_OUTER_BOUND ( 'NONE', #117, .T. ) ;
#460 = FILL_AREA_STYLE_COLOUR ( '', #528 ) ;
#461 = ORIENTED_EDGE ( 'NONE', *, *, #256, .T. ) ;
#462 =( GEOMETRIC_REPRESENTATION_CONTEXT ( 3 ) GLOBAL_UNCERTAINTY_ASSIGNED_CONTEXT ( ( #278 ) ) GLOBAL_UNIT_ASSIGNED_CONTEXT ( ( #329, #324, #424 ) ) REPRESENTATION_CONTEXT ( 'NONE', 'WORKASPACE' ) );
#463 = CARTESIAN_POINT ( 'NONE',  ( -0.01100000000000000500, 0.2849999999999999800, -0.01099999999999999900 ) ) ;
#464 = VERTEX_POINT ( 'NONE', #357 ) ;
#465 = CARTESIAN_POINT ( 'NONE',  ( 1.694065894508600700E-017, 0.2849999999999999800, 0.0000000000000000000 ) ) ;
#466 = EDGE_LOOP ( 'NONE', ( #155 ) ) ;
#467 = DIRECTION ( 'NONE',  ( 0.0000000000000000000, 0.9848077530122080200, -0.1736481776669307200 ) ) ;
#468 = FACE_OUTER_BOUND ( 'NONE', #617, .T. ) ;
#469 = CARTESIAN_POINT ( 'NONE',  ( -0.04956762031745535300, 0.3182048745074146400, 0.01685491526669592700 ) ) ;
#470 = ORIENTED_EDGE ( 'NONE', *, *, #563, .F. ) ;
#471 = EDGE_CURVE ( 'NONE', #435, #435, #69, .T. ) ;
#472 = CARTESIAN_POINT ( 'NONE',  ( 1.694065894508600700E-017, 0.2849999999999999800, 0.0000000000000000000 ) ) ;
#473 = CARTESIAN_POINT ( 'NONE',  ( -0.01490186898519285800, 0.3071285986382543700, -0.04816886156024013900 ) ) ;
#474 = ORIENTED_EDGE ( 'NONE', *, *, #284, .T. ) ;
#475 = DIRECTION ( 'NONE',  ( -0.0000000000000000000, -1.000000000000000000, -0.0000000000000000000 ) ) ;
#476 = LINE ( 'NONE', #490, #167 ) ;
#477 = CARTESIAN_POINT ( 'NONE',  ( 0.0000000000000000000, 0.0000000000000000000, 0.0000000000000000000 ) ) ;
#478 = VECTOR ( 'NONE', #322, 39.37007874015748100 ) ;
#479 = B_SPLINE_CURVE_WITH_KNOTS ( 'NONE', 3,
 ( #289, #46, #402, #598 ),
 .UNSPECIFIED., .F., .F.,
 ( 4, 4 ),
 ( 0.0003064892814216664700, 0.001170122457373340600 ),
 .UNSPECIFIED. ) ;
#480 = PRODUCT_DEFINITION_SHAPE ( 'NONE', 'NONE',  #269 ) ;
#481 = FILL_AREA_STYLE_COLOUR ( '', #251 ) ;
#482 = ORIENTED_EDGE ( 'NONE', *, *, #499, .F. ) ;
#483 = CARTESIAN_POINT ( 'NONE',  ( 0.01760801364118071800, 0.3224759076270139500, 0.02848129312788794100 ) ) ;
#484 = APPLICATION_CONTEXT ( 'automotive_design' ) ;
#485 = ORIENTED_EDGE ( 'NONE', *, *, #652, .T. ) ;
#486 = ADVANCED_FACE ( 'NONE', ( #166, #648 ), #406, .T. ) ;
#487 = ORIENTED_EDGE ( 'NONE', *, *, #376, .T. ) ;
#488 = EDGE_CURVE ( 'NONE', #90, #355, #368, .T. ) ;
#489 = CIRCLE ( 'NONE', #632, 0.05235491526669428700 ) ;
#490 = CARTESIAN_POINT ( 'NONE',  ( 0.04518019477602992800, 0.2849999999999999800, -0.01099999999999999900 ) ) ;
#491 = FACE_OUTER_BOUND ( 'NONE', #414, .T. ) ;
#492 = FACE_OUTER_BOUND ( 'NONE', #243, .T. ) ;
#493 = CARTESIAN_POINT ( 'NONE',  ( 0.01099999999999999900, 0.2849999999999999800, -0.04518019477602991400 ) ) ;
#494 = DIRECTION ( 'NONE',  ( 0.0000000000000000000, 0.0000000000000000000, 1.000000000000000000 ) ) ;
#495 = AXIS2_PLACEMENT_3D ( 'NONE', #657, #262, #351 ) ;
#496 = CARTESIAN_POINT ( 'NONE',  ( 0.0000000000000000000, 0.0000000000000000000, 0.0000000000000000000 ) ) ;
#497 = VERTEX_POINT ( 'NONE', #530 ) ;
#498 = CARTESIAN_POINT ( 'NONE',  ( -0.01100000000000000500, 0.2849999999999999800, -0.01099999999999999900 ) ) ;
#499 = EDGE_CURVE ( 'NONE', #362, #453, #133, .T. ) ;
#500 = ORIENTED_EDGE ( 'NONE', *, *, #612, .T. ) ;
#501 = EDGE_CURVE ( 'NONE', #212, #319, #11, .T. ) ;
#502 = PLANE ( 'NONE',  #127 ) ;
#503 = AXIS2_PLACEMENT_3D ( 'NONE', #89, #144, #148 ) ;
#504 = CARTESIAN_POINT ( 'NONE',  ( 0.0000000000000000000, 0.2500000000000000600, 0.0000000000000000000 ) ) ;
#505 = CONICAL_SURFACE ( 'NONE', #70, 0.04650000000000003400, 0.1745329251994333400 ) ;
#506 = VECTOR ( 'NONE', #374, 39.37007874015748100 ) ;
#507 = DIRECTION ( 'NONE',  ( -0.9848077530122080200, -0.1736481776669307200, 1.844780678529793300E-016 ) ) ;
#508 = VERTEX_POINT ( 'NONE', #463 ) ;
#509 = PLANE ( 'NONE',  #616 ) ;
#510 = EDGE_CURVE ( 'NONE', #149, #327, #512, .T. ) ;
#511 = DIRECTION ( 'NONE',  ( 0.0000000000000000000, 1.000000000000000000, 0.0000000000000000000 ) ) ;
#512 = B_SPLINE_CURVE_WITH_KNOTS ( 'NONE', 3,
 ( #272, #423, #321, #229 ),
 .UNSPECIFIED., .F., .F.,
 ( 4, 4 ),
 ( 0.0001725541495458375700, 0.0009916868993215585000 ),
 .UNSPECIFIED. ) ;
#513 = VECTOR ( 'NONE', #565, 39.37007874015748100 ) ;
#514 = DIRECTION ( 'NONE',  ( 0.1736481776669307200, 0.9848077530122080200, 0.0000000000000000000 ) ) ;
#515 = FACE_OUTER_BOUND ( 'NONE', #352, .T. ) ;
#516 = ORIENTED_EDGE ( 'NONE', *, *, #60, .T. ) ;
#517 = ORIENTED_EDGE ( 'NONE', *, *, #16, .F. ) ;
#518 = CARTESIAN_POINT ( 'NONE',  ( 0.0000000000000000000, 0.01512923900177914700, 0.0000000000000000000 ) ) ;
#519 = ORIENTED_EDGE ( 'NONE', *, *, #446, .T. ) ;
#520 = ORIENTED_EDGE ( 'NONE', *, *, #625, .T. ) ;
#521 = CARTESIAN_POINT ( 'NONE',  ( 0.01777070675434741900, 0.3233985861218932100, -0.01777070675434742200 ) ) ;
#522 = CARTESIAN_POINT ( 'NONE',  ( -0.04518019477602992800, 0.2849999999999999800, -0.01099999999999999900 ) ) ;
#523 = VECTOR ( 'NONE', #207, 39.37007874015748100 ) ;
#524 = ORIENTED_EDGE ( 'NONE', *, *, #581, .T. ) ;
#525 = CARTESIAN_POINT ( 'NONE',  ( -0.03909365075616694900, 0.3207413201495352100, -0.01730215906850218100 ) ) ;
#526 = CARTESIAN_POINT ( 'NONE',  ( 0.01200049050387611200, 0.2906740636053326600, -0.01200049050387610100 ) ) ;
#527 = CARTESIAN_POINT ( 'NONE',  ( 0.0000000000000000000, 0.2500000000000000600, -0.1060000000000000000 ) ) ;
#528 = COLOUR_RGB ( '',0.8313725490196077800, 0.8392156862745098200, 0.8274509803921568100 ) ;
#529 = CIRCLE ( 'NONE', #578, 0.04650000000000000000 ) ;
#530 = CARTESIAN_POINT ( 'NONE',  ( 0.0000000000000000000, 0.0000000000000000000, -0.03800000000000002700 ) ) ;
#531 = ORIENTED_EDGE ( 'NONE', *, *, #635, .T. ) ;
#532 = CARTESIAN_POINT ( 'NONE',  ( 0.0000000000000000000, 0.2210319677163190300, -0.05482638024105206100 ) ) ;
#533 = CARTESIAN_POINT ( 'NONE',  ( -0.01685491526669428300, 0.3182048745074053700, 0.04956762031745416000 ) ) ;
#534 = CARTESIAN_POINT ( 'NONE',  ( 0.01777070675434741900, 0.3233985861218932100, -0.01777070675434742200 ) ) ;
#535 = VERTEX_POINT ( 'NONE', #274 ) ;
#536 = EDGE_CURVE ( 'NONE', #118, #118, #575, .T. ) ;
#537 = ADVANCED_FACE ( 'NONE', ( #491 ), #370, .F. ) ;
#538 = CARTESIAN_POINT ( 'NONE',  ( 0.01685491526669592700, 0.3182048745074146400, 0.04956762031745534600 ) ) ;
#539 = ORIENTED_EDGE ( 'NONE', *, *, #343, .T. ) ;
#540 = VECTOR ( 'NONE', #94, 39.37007874015748100 ) ;
#541 = CARTESIAN_POINT ( 'NONE',  ( 0.0000000000000000000, 0.2210319677163190300, 0.0000000000000000000 ) ) ;
#542 = DIRECTION ( 'NONE',  ( 0.0000000000000000000, -0.1736481776669307200, 0.9848077530122080200 ) ) ;
#543 = UNCERTAINTY_MEASURE_WITH_UNIT (LENGTH_MEASURE( 1.000000000000000100E-005 ), #283, 'distance_accuracy_value', 'NONE');
#544 =( NAMED_UNIT ( * ) SI_UNIT ( $, .STERADIAN. ) SOLID_ANGLE_UNIT ( ) );
#545 = DIRECTION ( 'NONE',  ( 0.0000000000000000000, 0.0000000000000000000, -1.000000000000000000 ) ) ;
#546 = DIRECTION ( 'NONE',  ( 0.0000000000000000000, -0.1736481776669307200, -0.9848077530122080200 ) ) ;
#547 = EDGE_CURVE ( 'NONE', #212, #604, #619, .T. ) ;
#548 = CARTESIAN_POINT ( 'NONE',  ( 0.01099999999999999900, 0.2849999999999999800, 0.04518019477602991400 ) ) ;
#549 = ORIENTED_EDGE ( 'NONE', *, *, #638, .T. ) ;
#550 = DIRECTION ( 'NONE',  ( -0.0000000000000000000, -1.000000000000000000, -0.0000000000000000000 ) ) ;
#551 = ORIENTED_EDGE ( 'NONE', *, *, #312, .T. ) ;
#552 = DIRECTION ( 'NONE',  ( 0.0000000000000000000, -0.9848077530122080200, -0.1736481776669307200 ) ) ;
#553 = VERTEX_POINT ( 'NONE', #532 ) ;
#554 = DIRECTION ( 'NONE',  ( 0.9848077530122080200, -0.1736481776669307200, 1.844780678529793300E-016 ) ) ;
#555 = EDGE_LOOP ( 'NONE', ( #611 ) ) ;
#556 = DIRECTION ( 'NONE',  ( 0.0000000000000000000, 0.0000000000000000000, -1.000000000000000000 ) ) ;
#557 = DIRECTION ( 'NONE',  ( 0.9848077530122080200, -0.1736481776669307200, -1.844780678529793300E-016 ) ) ;
#558 = CARTESIAN_POINT ( 'NONE',  ( -0.01099999999999999900, 0.2849999999999999800, 0.04518019477602991400 ) ) ;
#559 = AXIS2_PLACEMENT_3D ( 'NONE', #205, #542, #291 ) ;
#560 = ORIENTED_EDGE ( 'NONE', *, *, #596, .T. ) ;
#561 = DIRECTION ( 'NONE',  ( -0.9848077530122080200, -0.1736481776669307200, -1.844780678529793300E-016 ) ) ;
#562 = ORIENTED_EDGE ( 'NONE', *, *, #4, .T. ) ;
#563 = EDGE_CURVE ( 'NONE', #354, #392, #417, .T. ) ;
#564 = PLANE ( 'NONE',  #79 ) ;
#565 = DIRECTION ( 'NONE',  ( 0.1710878697460358500, -0.9702875252478139200, -0.1710878697460358800 ) ) ;
#566 = B_SPLINE_CURVE_WITH_KNOTS ( 'NONE', 3,
 ( #534, #200, #37, #237 ),
 .UNSPECIFIED., .F., .F.,
 ( 4, 4 ),
 ( 0.0001725541495458375500, 0.0009916868993215591500 ),
 .UNSPECIFIED. ) ;
#567 = VERTEX_POINT ( 'NONE', #521 ) ;
#568 = EDGE_CURVE ( 'NONE', #203, #567, #301, .T. ) ;
#569 = CARTESIAN_POINT ( 'NONE',  ( 0.04816886156024015300, 0.3071285986382543700, -0.01490186898519285800 ) ) ;
#570 = EDGE_LOOP ( 'NONE', ( #560, #318, #261, #108 ) ) ;
#571 = AXIS2_PLACEMENT_3D ( 'NONE', #302, #603, #494 ) ;
#572 = CARTESIAN_POINT ( 'NONE',  ( -0.01100000000000000500, 0.2849999999999999800, 0.01099999999999999900 ) ) ;
#573 = CARTESIAN_POINT ( 'NONE',  ( 0.0000000000000000000, 0.2308583479573708700, 0.0000000000000000000 ) ) ;
#574 = DIRECTION ( 'NONE',  ( 1.000000000000000000, -0.0000000000000000000, -0.0000000000000000000 ) ) ;
#575 = CIRCLE ( 'NONE', #25, 0.1000588100200512100 ) ;
#576 = CONICAL_SURFACE ( 'NONE', #304, 0.05482638024105206100, 0.7853981633974596000 ) ;
#577 =( LENGTH_UNIT ( ) NAMED_UNIT ( * ) SI_UNIT ( $, .METRE. ) );
#578 = AXIS2_PLACEMENT_3D ( 'NONE', #472, #427, #141 ) ;
#579 = ORIENTED_EDGE ( 'NONE', *, *, #581, .F. ) ;
#580 = CARTESIAN_POINT ( 'NONE',  ( -0.01099999999999999900, 0.2849999999999999800, -0.04518019477602991400 ) ) ;
#581 = EDGE_CURVE ( 'NONE', #319, #403, #221, .T. ) ;
#582 = ADVANCED_FACE ( 'NONE', ( #17, #641 ), #608, .T. ) ;
#583 = DIRECTION ( 'NONE',  ( 0.0000000000000000000, 0.0000000000000000000, -1.000000000000000000 ) ) ;
#584 = ORIENTED_EDGE ( 'NONE', *, *, #189, .F. ) ;
#585 = DIRECTION ( 'NONE',  ( 0.0000000000000000000, -1.000000000000000000, 0.0000000000000000000 ) ) ;
#586 = ADVANCED_FACE ( 'NONE', ( #308 ), #564, .T. ) ;
#587 = DIRECTION ( 'NONE',  ( -0.0000000000000000000, 1.000000000000000000, -0.0000000000000000000 ) ) ;
#588 = AXIS2_PLACEMENT_3D ( 'NONE', #465, #626, #188 ) ;
#589 = CARTESIAN_POINT ( 'NONE',  ( -0.01099999999999999900, 0.2849999999999999800, 0.04518019477602991400 ) ) ;
#590 = ADVANCED_FACE ( 'NONE', ( #102, #373 ), #630, .T. ) ;
#591 = ORIENTED_EDGE ( 'NONE', *, *, #175, .F. ) ;
#592 = DIRECTION ( 'NONE',  ( 1.000000000000000000, 0.0000000000000000000, 0.0000000000000000000 ) ) ;
#593 = DIRECTION ( 'NONE',  ( 0.0000000000000000000, 0.0000000000000000000, -1.000000000000000000 ) ) ;
#594 = CARTESIAN_POINT ( 'NONE',  ( -0.01295002430072920800, 0.2960591373645382600, 0.04671241177994629700 ) ) ;
#595 = CIRCLE ( 'NONE', #495, 0.04650000000000003400 ) ;
#596 = EDGE_CURVE ( 'NONE', #327, #651, #40, .T. ) ;
#597 = ORIENTED_EDGE ( 'NONE', *, *, #510, .F. ) ;
#598 = CARTESIAN_POINT ( 'NONE',  ( -0.04518019477602992800, 0.2849999999999999800, 0.01099999999999998500 ) ) ;
#599 = EDGE_LOOP ( 'NONE', ( #369 ) ) ;
#600 = ORIENTED_EDGE ( 'NONE', *, *, #122, .F. ) ;
#601 = CIRCLE ( 'NONE', #383, 0.04650000000000000000 ) ;
#602 = MANIFOLD_SOLID_BREP ( 'Cut-Extrude1', #404 ) ;
#603 = DIRECTION ( 'NONE',  ( -0.0000000000000000000, 1.000000000000000000, -0.0000000000000000000 ) ) ;
#604 = VERTEX_POINT ( 'NONE', #469 ) ;
#605 = AXIS2_PLACEMENT_3D ( 'NONE', #26, #475, #583 ) ;
#606 = AXIS2_PLACEMENT_3D ( 'NONE', #504, #8, #556 ) ;
#607 = ORIENTED_EDGE ( 'NONE', *, *, #471, .F. ) ;
#608 = CONICAL_SURFACE ( 'NONE', #170, 0.1060000000000000000, 0.1396263401595523900 ) ;
#609 = DIRECTION ( 'NONE',  ( 0.0000000000000000000, 0.0000000000000000000, -1.000000000000000000 ) ) ;
#610 = CARTESIAN_POINT ( 'NONE',  ( 0.04518019477602992800, 0.2849999999999999800, -0.01100000000000000300 ) ) ;
#611 = ORIENTED_EDGE ( 'NONE', *, *, #399, .F. ) ;
#612 = EDGE_CURVE ( 'NONE', #651, #508, #290, .T. ) ;
#613 = FACE_OUTER_BOUND ( 'NONE', #466, .T. ) ;
#614 = CARTESIAN_POINT ( 'NONE',  ( 0.0000000000000000000, 0.0000000000000000000, 0.0000000000000000000 ) ) ;
#615 = LINE ( 'NONE', #441, #523 ) ;
#616 = AXIS2_PLACEMENT_3D ( 'NONE', #223, #557, #514 ) ;
#617 = EDGE_LOOP ( 'NONE', ( #519 ) ) ;
#618 = CARTESIAN_POINT ( 'NONE',  ( -0.04671241177994632500, 0.2960591373645382600, -0.01295002430072921000 ) ) ;
#619 = B_SPLINE_CURVE_WITH_KNOTS ( 'NONE', 3,
 ( #320, #135, #131, #80 ),
 .UNSPECIFIED., .F., .F.,
 ( 4, 4 ),
 ( 0.0001725541495458374900, 0.0009916868993215591500 ),
 .UNSPECIFIED. ) ;
#620 = CARTESIAN_POINT ( 'NONE',  ( -0.04956762031745418800, 0.3182048745074053700, -0.01685491526669428300 ) ) ;
#621 = ORIENTED_EDGE ( 'NONE', *, *, #9, .T. ) ;
#622 = EDGE_LOOP ( 'NONE', ( #516 ) ) ;
#623 = FACE_OUTER_BOUND ( 'NONE', #163, .T. ) ;
#624 = DIRECTION ( 'NONE',  ( 0.0000000000000000000, 0.0000000000000000000, -1.000000000000000000 ) ) ;
#625 = EDGE_CURVE ( 'NONE', #567, #354, #566, .T. ) ;
#626 = DIRECTION ( 'NONE',  ( 0.0000000000000000000, 1.000000000000000000, 0.0000000000000000000 ) ) ;
#627 = FACE_OUTER_BOUND ( 'NONE', #570, .T. ) ;
#628 = VERTEX_POINT ( 'NONE', #426 ) ;
#629 =( LENGTH_UNIT ( ) NAMED_UNIT ( * ) SI_UNIT ( $, .METRE. ) );
#630 = PLANE ( 'NONE',  #113 ) ;
#631 = CARTESIAN_POINT ( 'NONE',  ( 0.0000000000000000000, 0.3182048745074053700, 0.0000000000000000000 ) ) ;
#632 = AXIS2_PLACEMENT_3D ( 'NONE', #631, #585, #378 ) ;
#633 = CARTESIAN_POINT ( 'NONE',  ( -0.01777070675434741900, 0.3233985861218932100, -0.01777070675434741200 ) ) ;
#634 = ADVANCED_FACE ( 'NONE', ( #323 ), #505, .F. ) ;
#635 = EDGE_CURVE ( 'NONE', #154, #30, #489, .T. ) ;
#636 = CARTESIAN_POINT ( 'NONE',  ( 1.694065894508600700E-017, 0.2849999999999999800, 0.0000000000000000000 ) ) ;
#637 = ORIENTED_EDGE ( 'NONE', *, *, #284, .F. ) ;
#638 = EDGE_CURVE ( 'NONE', #90, #149, #390, .T. ) ;
#639 = CARTESIAN_POINT ( 'NONE',  ( -0.01777070675434741900, 0.3233985861218932100, 0.01777070675434741200 ) ) ;
#640 = DIRECTION ( 'NONE',  ( 0.0000000000000000000, 0.0000000000000000000, -1.000000000000000000 ) ) ;
#641 = FACE_OUTER_BOUND ( 'NONE', #128, .T. ) ;
#642 = AXIS2_PLACEMENT_3D ( 'NONE', #56, #348, #216 ) ;
#643 = ADVANCED_FACE ( 'NONE', ( #613, #623 ), #303, .T. ) ;
#644 =( CONVERSION_BASED_UNIT ( 'INCH', #49 ) LENGTH_UNIT ( ) NAMED_UNIT ( #32 ) );
#645 = CARTESIAN_POINT ( 'NONE',  ( 0.0000000000000000000, 0.3182048745074053700, 0.0000000000000000000 ) ) ;
#646 = ORIENTED_EDGE ( 'NONE', *, *, #121, .T. ) ;
#647 = CARTESIAN_POINT ( 'NONE',  ( 1.694065894508600700E-017, 0.2849999999999999800, 0.0000000000000000000 ) ) ;
#648 = FACE_BOUND ( 'NONE', #6, .T. ) ;
#649 = LINE ( 'NONE', #123, #443 ) ;
#650 = CARTESIAN_POINT ( 'NONE',  ( -0.01777070675434741900, 0.3233985861218932100, 0.01777070675434741200 ) ) ;
#651 = VERTEX_POINT ( 'NONE', #580 ) ;
#652 = EDGE_CURVE ( 'NONE', #146, #319, #58, .T. ) ;
#653 = ORIENTED_EDGE ( 'NONE', *, *, #33, .T. ) ;
#654 = PLANE ( 'NONE',  #338 ) ;
#655 = EDGE_LOOP ( 'NONE', ( #236, #281, #286, #238 ) ) ;
#656 = AXIS2_PLACEMENT_3D ( 'NONE', #305, #353, #609 ) ;
#657 = CARTESIAN_POINT ( 'NONE',  ( 1.694065894508600700E-017, 0.2849999999999999800, 0.0000000000000000000 ) ) ;
#658 = ORIENTED_EDGE ( 'NONE', *, *, #48, .F. ) ;
#659 = DIRECTION ( 'NONE',  ( -1.873239394071793700E-016, 0.0000000000000000000, -1.000000000000000000 ) ) ;
ENDSEC;
END-ISO-10303-21;
