ISO-10303-21;
HEADER;
FILE_DESCRIPTION(('FreeCAD Model'),'2;1');
FILE_NAME('Open CASCADE Shape Model','2026-05-07T05:37:15',('Author'),(
    ''),'Open CASCADE STEP processor 7.8','FreeCAD','Unknown');
FILE_SCHEMA(('AUTOMOTIVE_DESIGN { 1 0 10303 214 1 1 1 1 }'));
ENDSEC;
DATA;
#1 = APPLICATION_PROTOCOL_DEFINITION('international standard',
  'automotive_design',2000,#2);
#2 = APPLICATION_CONTEXT(
  'core data for automotive mechanical design processes');
#3 = SHAPE_DEFINITION_REPRESENTATION(#4,#10);
#4 = PRODUCT_DEFINITION_SHAPE('','',#5);
#5 = PRODUCT_DEFINITION('design','',#6,#9);
#6 = PRODUCT_DEFINITION_FORMATION('','',#7);
#7 = PRODUCT('Sonar_Holder','Sonar_Holder','',(#8));
#8 = PRODUCT_CONTEXT('',#2,'mechanical');
#9 = PRODUCT_DEFINITION_CONTEXT('part definition',#2,'design');
#10 = ADVANCED_BREP_SHAPE_REPRESENTATION('',(#11,#15),#981);
#11 = AXIS2_PLACEMENT_3D('',#12,#13,#14);
#12 = CARTESIAN_POINT('',(0.,0.,0.));
#13 = DIRECTION('',(0.,0.,1.));
#14 = DIRECTION('',(1.,0.,-0.));
#15 = MANIFOLD_SOLID_BREP('',#16);
#16 = CLOSED_SHELL('',(#17,#197,#229,#253,#278,#334,#358,#469,#493,#518,
    #542,#567,#584,#608,#664,#689,#713,#738,#755,#780,#805,#841,#858,
    #875,#892,#904,#918,#935,#952,#969));
#17 = ADVANCED_FACE('',(#18,#170,#181),#192,.T.);
#18 = FACE_BOUND('',#19,.T.);
#19 = EDGE_LOOP('',(#20,#31,#39,#48,#56,#65,#73,#81,#89,#97,#106,#114,
    #123,#131,#139,#147,#155,#164));
#20 = ORIENTED_EDGE('',*,*,#21,.F.);
#21 = EDGE_CURVE('',#22,#24,#26,.T.);
#22 = VERTEX_POINT('',#23);
#23 = CARTESIAN_POINT('',(33.909,-34.0628,-25.815));
#24 = VERTEX_POINT('',#25);
#25 = CARTESIAN_POINT('',(34.925,-35.0788,-25.815));
#26 = CIRCLE('',#27,1.016);
#27 = AXIS2_PLACEMENT_3D('',#28,#29,#30);
#28 = CARTESIAN_POINT('',(33.909,-35.0788,-25.815));
#29 = DIRECTION('',(0.,0.,-1.));
#30 = DIRECTION('',(0.,1.,0.));
#31 = ORIENTED_EDGE('',*,*,#32,.F.);
#32 = EDGE_CURVE('',#33,#22,#35,.T.);
#33 = VERTEX_POINT('',#34);
#34 = CARTESIAN_POINT('',(-33.909,-34.0628,-25.815));
#35 = LINE('',#36,#37);
#36 = CARTESIAN_POINT('',(-34.925,-34.0628,-25.815));
#37 = VECTOR('',#38,1.);
#38 = DIRECTION('',(1.,0.,0.));
#39 = ORIENTED_EDGE('',*,*,#40,.F.);
#40 = EDGE_CURVE('',#41,#33,#43,.T.);
#41 = VERTEX_POINT('',#42);
#42 = CARTESIAN_POINT('',(-34.925,-35.0788,-25.815));
#43 = CIRCLE('',#44,1.016);
#44 = AXIS2_PLACEMENT_3D('',#45,#46,#47);
#45 = CARTESIAN_POINT('',(-33.909,-35.0788,-25.815));
#46 = DIRECTION('',(0.,0.,-1.));
#47 = DIRECTION('',(0.,1.,0.));
#48 = ORIENTED_EDGE('',*,*,#49,.F.);
#49 = EDGE_CURVE('',#50,#41,#52,.T.);
#50 = VERTEX_POINT('',#51);
#51 = CARTESIAN_POINT('',(-34.925,-71.384,-25.815));
#52 = LINE('',#53,#54);
#53 = CARTESIAN_POINT('',(-34.925,-72.4,-25.815));
#54 = VECTOR('',#55,1.);
#55 = DIRECTION('',(0.,1.,0.));
#56 = ORIENTED_EDGE('',*,*,#57,.F.);
#57 = EDGE_CURVE('',#58,#50,#60,.T.);
#58 = VERTEX_POINT('',#59);
#59 = CARTESIAN_POINT('',(-33.909,-72.4,-25.815));
#60 = CIRCLE('',#61,1.016);
#61 = AXIS2_PLACEMENT_3D('',#62,#63,#64);
#62 = CARTESIAN_POINT('',(-33.909,-71.384,-25.815));
#63 = DIRECTION('',(0.,0.,-1.));
#64 = DIRECTION('',(0.,1.,0.));
#65 = ORIENTED_EDGE('',*,*,#66,.T.);
#66 = EDGE_CURVE('',#58,#67,#69,.T.);
#67 = VERTEX_POINT('',#68);
#68 = CARTESIAN_POINT('',(-21.41,-72.4,-25.815));
#69 = LINE('',#70,#71);
#70 = CARTESIAN_POINT('',(-34.925,-72.4,-25.815));
#71 = VECTOR('',#72,1.);
#72 = DIRECTION('',(1.,0.,0.));
#73 = ORIENTED_EDGE('',*,*,#74,.T.);
#74 = EDGE_CURVE('',#67,#75,#77,.T.);
#75 = VERTEX_POINT('',#76);
#76 = CARTESIAN_POINT('',(-21.41,-50.79,-25.815));
#77 = LINE('',#78,#79);
#78 = CARTESIAN_POINT('',(-21.41,-72.4,-25.815));
#79 = VECTOR('',#80,1.);
#80 = DIRECTION('',(0.,1.,0.));
#81 = ORIENTED_EDGE('',*,*,#82,.T.);
#82 = EDGE_CURVE('',#75,#83,#85,.T.);
#83 = VERTEX_POINT('',#84);
#84 = CARTESIAN_POINT('',(-6.6275,-50.79,-25.815));
#85 = LINE('',#86,#87);
#86 = CARTESIAN_POINT('',(-21.41,-50.79,-25.815));
#87 = VECTOR('',#88,1.);
#88 = DIRECTION('',(1.,0.,0.));
#89 = ORIENTED_EDGE('',*,*,#90,.T.);
#90 = EDGE_CURVE('',#83,#91,#93,.T.);
#91 = VERTEX_POINT('',#92);
#92 = CARTESIAN_POINT('',(-6.6275,-41.6828,-25.815));
#93 = LINE('',#94,#95);
#94 = CARTESIAN_POINT('',(-6.6275,-62.587,-25.815));
#95 = VECTOR('',#96,1.);
#96 = DIRECTION('',(0.,1.,0.));
#97 = ORIENTED_EDGE('',*,*,#98,.T.);
#98 = EDGE_CURVE('',#91,#99,#101,.T.);
#99 = VERTEX_POINT('',#100);
#100 = CARTESIAN_POINT('',(-5.3575,-40.4128,-25.815));
#101 = CIRCLE('',#102,1.27);
#102 = AXIS2_PLACEMENT_3D('',#103,#104,#105);
#103 = CARTESIAN_POINT('',(-5.3575,-41.6828,-25.815));
#104 = DIRECTION('',(0.,0.,-1.));
#105 = DIRECTION('',(1.,0.,0.));
#106 = ORIENTED_EDGE('',*,*,#107,.T.);
#107 = EDGE_CURVE('',#99,#108,#110,.T.);
#108 = VERTEX_POINT('',#109);
#109 = CARTESIAN_POINT('',(5.3105,-40.4128,-25.815));
#110 = LINE('',#111,#112);
#111 = CARTESIAN_POINT('',(-5.3575,-40.4128,-25.815));
#112 = VECTOR('',#113,1.);
#113 = DIRECTION('',(1.,0.,0.));
#114 = ORIENTED_EDGE('',*,*,#115,.T.);
#115 = EDGE_CURVE('',#108,#116,#118,.T.);
#116 = VERTEX_POINT('',#117);
#117 = CARTESIAN_POINT('',(6.5805,-41.6828,-25.815));
#118 = CIRCLE('',#119,1.27);
#119 = AXIS2_PLACEMENT_3D('',#120,#121,#122);
#120 = CARTESIAN_POINT('',(5.3105,-41.6828,-25.815));
#121 = DIRECTION('',(0.,0.,-1.));
#122 = DIRECTION('',(1.,0.,0.));
#123 = ORIENTED_EDGE('',*,*,#124,.T.);
#124 = EDGE_CURVE('',#116,#125,#127,.T.);
#125 = VERTEX_POINT('',#126);
#126 = CARTESIAN_POINT('',(6.5805,-50.79,-25.815));
#127 = LINE('',#128,#129);
#128 = CARTESIAN_POINT('',(6.5805,-41.6828,-25.815));
#129 = VECTOR('',#130,1.);
#130 = DIRECTION('',(0.,-1.,0.));
#131 = ORIENTED_EDGE('',*,*,#132,.T.);
#132 = EDGE_CURVE('',#125,#133,#135,.T.);
#133 = VERTEX_POINT('',#134);
#134 = CARTESIAN_POINT('',(21.41,-50.79,-25.815));
#135 = LINE('',#136,#137);
#136 = CARTESIAN_POINT('',(-21.41,-50.79,-25.815));
#137 = VECTOR('',#138,1.);
#138 = DIRECTION('',(1.,0.,0.));
#139 = ORIENTED_EDGE('',*,*,#140,.T.);
#140 = EDGE_CURVE('',#133,#141,#143,.T.);
#141 = VERTEX_POINT('',#142);
#142 = CARTESIAN_POINT('',(21.41,-72.4,-25.815));
#143 = LINE('',#144,#145);
#144 = CARTESIAN_POINT('',(21.41,-50.79,-25.815));
#145 = VECTOR('',#146,1.);
#146 = DIRECTION('',(0.,-1.,0.));
#147 = ORIENTED_EDGE('',*,*,#148,.T.);
#148 = EDGE_CURVE('',#141,#149,#151,.T.);
#149 = VERTEX_POINT('',#150);
#150 = CARTESIAN_POINT('',(33.909,-72.4,-25.815));
#151 = LINE('',#152,#153);
#152 = CARTESIAN_POINT('',(21.41,-72.4,-25.815));
#153 = VECTOR('',#154,1.);
#154 = DIRECTION('',(1.,0.,0.));
#155 = ORIENTED_EDGE('',*,*,#156,.F.);
#156 = EDGE_CURVE('',#157,#149,#159,.T.);
#157 = VERTEX_POINT('',#158);
#158 = CARTESIAN_POINT('',(34.925,-71.384,-25.815));
#159 = CIRCLE('',#160,1.016);
#160 = AXIS2_PLACEMENT_3D('',#161,#162,#163);
#161 = CARTESIAN_POINT('',(33.909,-71.384,-25.815));
#162 = DIRECTION('',(0.,0.,-1.));
#163 = DIRECTION('',(0.,1.,0.));
#164 = ORIENTED_EDGE('',*,*,#165,.F.);
#165 = EDGE_CURVE('',#24,#157,#166,.T.);
#166 = LINE('',#167,#168);
#167 = CARTESIAN_POINT('',(34.925,-34.0628,-25.815));
#168 = VECTOR('',#169,1.);
#169 = DIRECTION('',(0.,-1.,0.));
#170 = FACE_BOUND('',#171,.T.);
#171 = EDGE_LOOP('',(#172));
#172 = ORIENTED_EDGE('',*,*,#173,.F.);
#173 = EDGE_CURVE('',#174,#174,#176,.T.);
#174 = VERTEX_POINT('',#175);
#175 = CARTESIAN_POINT('',(-30.099,-60.96,-25.815));
#176 = CIRCLE('',#177,1.524);
#177 = AXIS2_PLACEMENT_3D('',#178,#179,#180);
#178 = CARTESIAN_POINT('',(-28.575,-60.96,-25.815));
#179 = DIRECTION('',(0.,0.,1.));
#180 = DIRECTION('',(-1.,0.,0.));
#181 = FACE_BOUND('',#182,.T.);
#182 = EDGE_LOOP('',(#183));
#183 = ORIENTED_EDGE('',*,*,#184,.F.);
#184 = EDGE_CURVE('',#185,#185,#187,.T.);
#185 = VERTEX_POINT('',#186);
#186 = CARTESIAN_POINT('',(27.051,-60.96,-25.815));
#187 = CIRCLE('',#188,1.524);
#188 = AXIS2_PLACEMENT_3D('',#189,#190,#191);
#189 = CARTESIAN_POINT('',(28.575,-60.96,-25.815));
#190 = DIRECTION('',(0.,0.,1.));
#191 = DIRECTION('',(-1.,0.,0.));
#192 = PLANE('',#193);
#193 = AXIS2_PLACEMENT_3D('',#194,#195,#196);
#194 = CARTESIAN_POINT('',(-4.38E-15,-51.05929841383,-25.815));
#195 = DIRECTION('',(0.,0.,1.));
#196 = DIRECTION('',(1.,0.,0.));
#197 = ADVANCED_FACE('',(#198),#224,.T.);
#198 = FACE_BOUND('',#199,.T.);
#199 = EDGE_LOOP('',(#200,#201,#209,#218));
#200 = ORIENTED_EDGE('',*,*,#21,.T.);
#201 = ORIENTED_EDGE('',*,*,#202,.T.);
#202 = EDGE_CURVE('',#24,#203,#205,.T.);
#203 = VERTEX_POINT('',#204);
#204 = CARTESIAN_POINT('',(34.925,-35.0788,-33.435));
#205 = LINE('',#206,#207);
#206 = CARTESIAN_POINT('',(34.925,-35.0788,-25.815));
#207 = VECTOR('',#208,1.);
#208 = DIRECTION('',(0.,0.,-1.));
#209 = ORIENTED_EDGE('',*,*,#210,.F.);
#210 = EDGE_CURVE('',#211,#203,#213,.T.);
#211 = VERTEX_POINT('',#212);
#212 = CARTESIAN_POINT('',(33.909,-34.0628,-33.435));
#213 = CIRCLE('',#214,1.016);
#214 = AXIS2_PLACEMENT_3D('',#215,#216,#217);
#215 = CARTESIAN_POINT('',(33.909,-35.0788,-33.435));
#216 = DIRECTION('',(0.,0.,-1.));
#217 = DIRECTION('',(0.,1.,0.));
#218 = ORIENTED_EDGE('',*,*,#219,.F.);
#219 = EDGE_CURVE('',#22,#211,#220,.T.);
#220 = LINE('',#221,#222);
#221 = CARTESIAN_POINT('',(33.909,-34.0628,-25.815));
#222 = VECTOR('',#223,1.);
#223 = DIRECTION('',(0.,0.,-1.));
#224 = CYLINDRICAL_SURFACE('',#225,1.016);
#225 = AXIS2_PLACEMENT_3D('',#226,#227,#228);
#226 = CARTESIAN_POINT('',(33.909,-35.0788,-25.815));
#227 = DIRECTION('',(0.,0.,-1.));
#228 = DIRECTION('',(0.,1.,0.));
#229 = ADVANCED_FACE('',(#230),#248,.F.);
#230 = FACE_BOUND('',#231,.F.);
#231 = EDGE_LOOP('',(#232,#233,#234,#242));
#232 = ORIENTED_EDGE('',*,*,#165,.F.);
#233 = ORIENTED_EDGE('',*,*,#202,.T.);
#234 = ORIENTED_EDGE('',*,*,#235,.T.);
#235 = EDGE_CURVE('',#203,#236,#238,.T.);
#236 = VERTEX_POINT('',#237);
#237 = CARTESIAN_POINT('',(34.925,-71.384,-33.435));
#238 = LINE('',#239,#240);
#239 = CARTESIAN_POINT('',(34.925,-34.0628,-33.435));
#240 = VECTOR('',#241,1.);
#241 = DIRECTION('',(0.,-1.,0.));
#242 = ORIENTED_EDGE('',*,*,#243,.F.);
#243 = EDGE_CURVE('',#157,#236,#244,.T.);
#244 = LINE('',#245,#246);
#245 = CARTESIAN_POINT('',(34.925,-71.384,-25.815));
#246 = VECTOR('',#247,1.);
#247 = DIRECTION('',(0.,0.,-1.));
#248 = PLANE('',#249);
#249 = AXIS2_PLACEMENT_3D('',#250,#251,#252);
#250 = CARTESIAN_POINT('',(34.925,-34.0628,-25.815));
#251 = DIRECTION('',(-1.,-0.,-0.));
#252 = DIRECTION('',(0.,-1.,0.));
#253 = ADVANCED_FACE('',(#254),#273,.T.);
#254 = FACE_BOUND('',#255,.T.);
#255 = EDGE_LOOP('',(#256,#257,#265,#272));
#256 = ORIENTED_EDGE('',*,*,#156,.T.);
#257 = ORIENTED_EDGE('',*,*,#258,.T.);
#258 = EDGE_CURVE('',#149,#259,#261,.T.);
#259 = VERTEX_POINT('',#260);
#260 = CARTESIAN_POINT('',(33.909,-72.4,-33.435));
#261 = LINE('',#262,#263);
#262 = CARTESIAN_POINT('',(33.909,-72.4,-25.815));
#263 = VECTOR('',#264,1.);
#264 = DIRECTION('',(0.,0.,-1.));
#265 = ORIENTED_EDGE('',*,*,#266,.F.);
#266 = EDGE_CURVE('',#236,#259,#267,.T.);
#267 = CIRCLE('',#268,1.016);
#268 = AXIS2_PLACEMENT_3D('',#269,#270,#271);
#269 = CARTESIAN_POINT('',(33.909,-71.384,-33.435));
#270 = DIRECTION('',(0.,0.,-1.));
#271 = DIRECTION('',(0.,1.,0.));
#272 = ORIENTED_EDGE('',*,*,#243,.F.);
#273 = CYLINDRICAL_SURFACE('',#274,1.016);
#274 = AXIS2_PLACEMENT_3D('',#275,#276,#277);
#275 = CARTESIAN_POINT('',(33.909,-71.384,-25.815));
#276 = DIRECTION('',(0.,0.,-1.));
#277 = DIRECTION('',(1.,0.,0.));
#278 = ADVANCED_FACE('',(#279),#329,.T.);
#279 = FACE_BOUND('',#280,.T.);
#280 = EDGE_LOOP('',(#281,#282,#283,#291,#299,#307,#315,#323));
#281 = ORIENTED_EDGE('',*,*,#258,.F.);
#282 = ORIENTED_EDGE('',*,*,#148,.F.);
#283 = ORIENTED_EDGE('',*,*,#284,.T.);
#284 = EDGE_CURVE('',#141,#285,#287,.T.);
#285 = VERTEX_POINT('',#286);
#286 = CARTESIAN_POINT('',(21.41,-72.4,-28.372));
#287 = LINE('',#288,#289);
#288 = CARTESIAN_POINT('',(21.41,-72.4,-25.815));
#289 = VECTOR('',#290,1.);
#290 = DIRECTION('',(0.,0.,-1.));
#291 = ORIENTED_EDGE('',*,*,#292,.F.);
#292 = EDGE_CURVE('',#293,#285,#295,.T.);
#293 = VERTEX_POINT('',#294);
#294 = CARTESIAN_POINT('',(23.218,-72.4,-28.372));
#295 = LINE('',#296,#297);
#296 = CARTESIAN_POINT('',(23.218,-72.4,-28.372));
#297 = VECTOR('',#298,1.);
#298 = DIRECTION('',(-1.,0.,0.));
#299 = ORIENTED_EDGE('',*,*,#300,.F.);
#300 = EDGE_CURVE('',#301,#293,#303,.T.);
#301 = VERTEX_POINT('',#302);
#302 = CARTESIAN_POINT('',(23.218,-72.4,-30.988));
#303 = LINE('',#304,#305);
#304 = CARTESIAN_POINT('',(23.218,-72.4,-30.988));
#305 = VECTOR('',#306,1.);
#306 = DIRECTION('',(0.,0.,1.));
#307 = ORIENTED_EDGE('',*,*,#308,.F.);
#308 = EDGE_CURVE('',#309,#301,#311,.T.);
#309 = VERTEX_POINT('',#310);
#310 = CARTESIAN_POINT('',(21.41,-72.4,-30.988));
#311 = LINE('',#312,#313);
#312 = CARTESIAN_POINT('',(-23.218,-72.4,-30.988));
#313 = VECTOR('',#314,1.);
#314 = DIRECTION('',(1.,0.,0.));
#315 = ORIENTED_EDGE('',*,*,#316,.T.);
#316 = EDGE_CURVE('',#309,#317,#319,.T.);
#317 = VERTEX_POINT('',#318);
#318 = CARTESIAN_POINT('',(21.41,-72.4,-33.435));
#319 = LINE('',#320,#321);
#320 = CARTESIAN_POINT('',(21.41,-72.4,-25.815));
#321 = VECTOR('',#322,1.);
#322 = DIRECTION('',(0.,0.,-1.));
#323 = ORIENTED_EDGE('',*,*,#324,.T.);
#324 = EDGE_CURVE('',#317,#259,#325,.T.);
#325 = LINE('',#326,#327);
#326 = CARTESIAN_POINT('',(21.41,-72.4,-33.435));
#327 = VECTOR('',#328,1.);
#328 = DIRECTION('',(1.,0.,0.));
#329 = PLANE('',#330);
#330 = AXIS2_PLACEMENT_3D('',#331,#332,#333);
#331 = CARTESIAN_POINT('',(21.41,-72.4,-25.815));
#332 = DIRECTION('',(0.,-1.,0.));
#333 = DIRECTION('',(1.,0.,0.));
#334 = ADVANCED_FACE('',(#335),#353,.T.);
#335 = FACE_BOUND('',#336,.T.);
#336 = EDGE_LOOP('',(#337,#338,#346,#352));
#337 = ORIENTED_EDGE('',*,*,#140,.F.);
#338 = ORIENTED_EDGE('',*,*,#339,.T.);
#339 = EDGE_CURVE('',#133,#340,#342,.T.);
#340 = VERTEX_POINT('',#341);
#341 = CARTESIAN_POINT('',(21.41,-50.79,-28.372));
#342 = LINE('',#343,#344);
#343 = CARTESIAN_POINT('',(21.41,-50.79,-25.815));
#344 = VECTOR('',#345,1.);
#345 = DIRECTION('',(0.,0.,-1.));
#346 = ORIENTED_EDGE('',*,*,#347,.F.);
#347 = EDGE_CURVE('',#285,#340,#348,.T.);
#348 = LINE('',#349,#350);
#349 = CARTESIAN_POINT('',(21.41,-61.595,-28.372));
#350 = VECTOR('',#351,1.);
#351 = DIRECTION('',(0.,1.,-2.2E-16));
#352 = ORIENTED_EDGE('',*,*,#284,.F.);
#353 = PLANE('',#354);
#354 = AXIS2_PLACEMENT_3D('',#355,#356,#357);
#355 = CARTESIAN_POINT('',(21.41,-50.79,-25.815));
#356 = DIRECTION('',(-1.,-0.,-0.));
#357 = DIRECTION('',(0.,-1.,0.));
#358 = ADVANCED_FACE('',(#359),#464,.T.);
#359 = FACE_BOUND('',#360,.T.);
#360 = EDGE_LOOP('',(#361,#362,#370,#378,#386,#394,#402,#410,#418,#426,
    #434,#440,#441,#442,#450,#458));
#361 = ORIENTED_EDGE('',*,*,#82,.F.);
#362 = ORIENTED_EDGE('',*,*,#363,.T.);
#363 = EDGE_CURVE('',#75,#364,#366,.T.);
#364 = VERTEX_POINT('',#365);
#365 = CARTESIAN_POINT('',(-21.41,-50.79,-28.372));
#366 = LINE('',#367,#368);
#367 = CARTESIAN_POINT('',(-21.41,-50.79,-25.815));
#368 = VECTOR('',#369,1.);
#369 = DIRECTION('',(0.,0.,-1.));
#370 = ORIENTED_EDGE('',*,*,#371,.F.);
#371 = EDGE_CURVE('',#372,#364,#374,.T.);
#372 = VERTEX_POINT('',#373);
#373 = CARTESIAN_POINT('',(-23.218,-50.79,-28.372));
#374 = LINE('',#375,#376);
#375 = CARTESIAN_POINT('',(0.904,-50.79,-28.372));
#376 = VECTOR('',#377,1.);
#377 = DIRECTION('',(1.,0.,0.));
#378 = ORIENTED_EDGE('',*,*,#379,.F.);
#379 = EDGE_CURVE('',#380,#372,#382,.T.);
#380 = VERTEX_POINT('',#381);
#381 = CARTESIAN_POINT('',(-23.218,-50.79,-30.988));
#382 = LINE('',#383,#384);
#383 = CARTESIAN_POINT('',(-23.218,-50.79,-27.0935));
#384 = VECTOR('',#385,1.);
#385 = DIRECTION('',(0.,0.,1.));
#386 = ORIENTED_EDGE('',*,*,#387,.F.);
#387 = EDGE_CURVE('',#388,#380,#390,.T.);
#388 = VERTEX_POINT('',#389);
#389 = CARTESIAN_POINT('',(-21.41,-50.79,-30.988));
#390 = LINE('',#391,#392);
#391 = CARTESIAN_POINT('',(-22.314,-50.79,-30.988));
#392 = VECTOR('',#393,1.);
#393 = DIRECTION('',(-1.,0.,0.));
#394 = ORIENTED_EDGE('',*,*,#395,.T.);
#395 = EDGE_CURVE('',#388,#396,#398,.T.);
#396 = VERTEX_POINT('',#397);
#397 = CARTESIAN_POINT('',(-21.41,-50.79,-33.435));
#398 = LINE('',#399,#400);
#399 = CARTESIAN_POINT('',(-21.41,-50.79,-25.815));
#400 = VECTOR('',#401,1.);
#401 = DIRECTION('',(0.,0.,-1.));
#402 = ORIENTED_EDGE('',*,*,#403,.T.);
#403 = EDGE_CURVE('',#396,#404,#406,.T.);
#404 = VERTEX_POINT('',#405);
#405 = CARTESIAN_POINT('',(21.41,-50.79,-33.435));
#406 = LINE('',#407,#408);
#407 = CARTESIAN_POINT('',(-21.41,-50.79,-33.435));
#408 = VECTOR('',#409,1.);
#409 = DIRECTION('',(1.,0.,0.));
#410 = ORIENTED_EDGE('',*,*,#411,.F.);
#411 = EDGE_CURVE('',#412,#404,#414,.T.);
#412 = VERTEX_POINT('',#413);
#413 = CARTESIAN_POINT('',(21.41,-50.79,-30.988));
#414 = LINE('',#415,#416);
#415 = CARTESIAN_POINT('',(21.41,-50.79,-25.815));
#416 = VECTOR('',#417,1.);
#417 = DIRECTION('',(0.,0.,-1.));
#418 = ORIENTED_EDGE('',*,*,#419,.F.);
#419 = EDGE_CURVE('',#420,#412,#422,.T.);
#420 = VERTEX_POINT('',#421);
#421 = CARTESIAN_POINT('',(23.218,-50.79,-30.988));
#422 = LINE('',#423,#424);
#423 = CARTESIAN_POINT('',(-22.314,-50.79,-30.988));
#424 = VECTOR('',#425,1.);
#425 = DIRECTION('',(-1.,0.,0.));
#426 = ORIENTED_EDGE('',*,*,#427,.F.);
#427 = EDGE_CURVE('',#428,#420,#430,.T.);
#428 = VERTEX_POINT('',#429);
#429 = CARTESIAN_POINT('',(23.218,-50.79,-28.372));
#430 = LINE('',#431,#432);
#431 = CARTESIAN_POINT('',(23.218,-50.79,-28.4015));
#432 = VECTOR('',#433,1.);
#433 = DIRECTION('',(0.,0.,-1.));
#434 = ORIENTED_EDGE('',*,*,#435,.F.);
#435 = EDGE_CURVE('',#340,#428,#436,.T.);
#436 = LINE('',#437,#438);
#437 = CARTESIAN_POINT('',(0.904,-50.79,-28.372));
#438 = VECTOR('',#439,1.);
#439 = DIRECTION('',(1.,0.,0.));
#440 = ORIENTED_EDGE('',*,*,#339,.F.);
#441 = ORIENTED_EDGE('',*,*,#132,.F.);
#442 = ORIENTED_EDGE('',*,*,#443,.T.);
#443 = EDGE_CURVE('',#125,#444,#446,.T.);
#444 = VERTEX_POINT('',#445);
#445 = CARTESIAN_POINT('',(6.5805,-50.79,-29.625));
#446 = LINE('',#447,#448);
#447 = CARTESIAN_POINT('',(6.5805,-50.79,-27.72183957377));
#448 = VECTOR('',#449,1.);
#449 = DIRECTION('',(0.,0.,-1.));
#450 = ORIENTED_EDGE('',*,*,#451,.T.);
#451 = EDGE_CURVE('',#444,#452,#454,.T.);
#452 = VERTEX_POINT('',#453);
#453 = CARTESIAN_POINT('',(-6.6275,-50.79,-29.625));
#454 = LINE('',#455,#456);
#455 = CARTESIAN_POINT('',(-1.174999999999E-02,-50.79,-29.625));
#456 = VECTOR('',#457,1.);
#457 = DIRECTION('',(-1.,0.,0.));
#458 = ORIENTED_EDGE('',*,*,#459,.T.);
#459 = EDGE_CURVE('',#452,#83,#460,.T.);
#460 = LINE('',#461,#462);
#461 = CARTESIAN_POINT('',(-6.6275,-50.79,-27.72183957377));
#462 = VECTOR('',#463,1.);
#463 = DIRECTION('',(0.,0.,1.));
#464 = PLANE('',#465);
#465 = AXIS2_PLACEMENT_3D('',#466,#467,#468);
#466 = CARTESIAN_POINT('',(1.25E-15,-50.79,-29.62867914755));
#467 = DIRECTION('',(-0.,-1.,-0.));
#468 = DIRECTION('',(0.,0.,-1.));
#469 = ADVANCED_FACE('',(#470),#488,.T.);
#470 = FACE_BOUND('',#471,.T.);
#471 = EDGE_LOOP('',(#472,#473,#481,#487));
#472 = ORIENTED_EDGE('',*,*,#124,.F.);
#473 = ORIENTED_EDGE('',*,*,#474,.T.);
#474 = EDGE_CURVE('',#116,#475,#477,.T.);
#475 = VERTEX_POINT('',#476);
#476 = CARTESIAN_POINT('',(6.5805,-41.6828,-29.625));
#477 = LINE('',#478,#479);
#478 = CARTESIAN_POINT('',(6.5805,-41.6828,-25.815));
#479 = VECTOR('',#480,1.);
#480 = DIRECTION('',(-0.,-0.,-1.));
#481 = ORIENTED_EDGE('',*,*,#482,.T.);
#482 = EDGE_CURVE('',#475,#444,#483,.T.);
#483 = LINE('',#484,#485);
#484 = CARTESIAN_POINT('',(6.5805,-41.6828,-29.625));
#485 = VECTOR('',#486,1.);
#486 = DIRECTION('',(0.,-1.,0.));
#487 = ORIENTED_EDGE('',*,*,#443,.F.);
#488 = PLANE('',#489);
#489 = AXIS2_PLACEMENT_3D('',#490,#491,#492);
#490 = CARTESIAN_POINT('',(6.5805,-41.6828,-25.815));
#491 = DIRECTION('',(-1.,0.,0.));
#492 = DIRECTION('',(0.,-1.,0.));
#493 = ADVANCED_FACE('',(#494),#513,.F.);
#494 = FACE_BOUND('',#495,.T.);
#495 = EDGE_LOOP('',(#496,#504,#511,#512));
#496 = ORIENTED_EDGE('',*,*,#497,.T.);
#497 = EDGE_CURVE('',#108,#498,#500,.T.);
#498 = VERTEX_POINT('',#499);
#499 = CARTESIAN_POINT('',(5.3105,-40.4128,-29.625));
#500 = LINE('',#501,#502);
#501 = CARTESIAN_POINT('',(5.3105,-40.4128,-25.815));
#502 = VECTOR('',#503,1.);
#503 = DIRECTION('',(-0.,-0.,-1.));
#504 = ORIENTED_EDGE('',*,*,#505,.T.);
#505 = EDGE_CURVE('',#498,#475,#506,.T.);
#506 = CIRCLE('',#507,1.27);
#507 = AXIS2_PLACEMENT_3D('',#508,#509,#510);
#508 = CARTESIAN_POINT('',(5.3105,-41.6828,-29.625));
#509 = DIRECTION('',(0.,0.,-1.));
#510 = DIRECTION('',(1.,0.,0.));
#511 = ORIENTED_EDGE('',*,*,#474,.F.);
#512 = ORIENTED_EDGE('',*,*,#115,.F.);
#513 = CYLINDRICAL_SURFACE('',#514,1.27);
#514 = AXIS2_PLACEMENT_3D('',#515,#516,#517);
#515 = CARTESIAN_POINT('',(5.3105,-41.6828,-25.815));
#516 = DIRECTION('',(0.,0.,1.));
#517 = DIRECTION('',(1.,0.,-0.));
#518 = ADVANCED_FACE('',(#519),#537,.T.);
#519 = FACE_BOUND('',#520,.T.);
#520 = EDGE_LOOP('',(#521,#529,#535,#536));
#521 = ORIENTED_EDGE('',*,*,#522,.T.);
#522 = EDGE_CURVE('',#99,#523,#525,.T.);
#523 = VERTEX_POINT('',#524);
#524 = CARTESIAN_POINT('',(-5.3575,-40.4128,-29.625));
#525 = LINE('',#526,#527);
#526 = CARTESIAN_POINT('',(-5.3575,-40.4128,-25.815));
#527 = VECTOR('',#528,1.);
#528 = DIRECTION('',(-0.,-0.,-1.));
#529 = ORIENTED_EDGE('',*,*,#530,.T.);
#530 = EDGE_CURVE('',#523,#498,#531,.T.);
#531 = LINE('',#532,#533);
#532 = CARTESIAN_POINT('',(-5.3575,-40.4128,-29.625));
#533 = VECTOR('',#534,1.);
#534 = DIRECTION('',(1.,0.,0.));
#535 = ORIENTED_EDGE('',*,*,#497,.F.);
#536 = ORIENTED_EDGE('',*,*,#107,.F.);
#537 = PLANE('',#538);
#538 = AXIS2_PLACEMENT_3D('',#539,#540,#541);
#539 = CARTESIAN_POINT('',(-5.3575,-40.4128,-25.815));
#540 = DIRECTION('',(0.,-1.,0.));
#541 = DIRECTION('',(1.,0.,0.));
#542 = ADVANCED_FACE('',(#543),#562,.F.);
#543 = FACE_BOUND('',#544,.T.);
#544 = EDGE_LOOP('',(#545,#553,#560,#561));
#545 = ORIENTED_EDGE('',*,*,#546,.T.);
#546 = EDGE_CURVE('',#91,#547,#549,.T.);
#547 = VERTEX_POINT('',#548);
#548 = CARTESIAN_POINT('',(-6.6275,-41.6828,-29.625));
#549 = LINE('',#550,#551);
#550 = CARTESIAN_POINT('',(-6.6275,-41.6828,-25.815));
#551 = VECTOR('',#552,1.);
#552 = DIRECTION('',(-0.,-0.,-1.));
#553 = ORIENTED_EDGE('',*,*,#554,.T.);
#554 = EDGE_CURVE('',#547,#523,#555,.T.);
#555 = CIRCLE('',#556,1.27);
#556 = AXIS2_PLACEMENT_3D('',#557,#558,#559);
#557 = CARTESIAN_POINT('',(-5.3575,-41.6828,-29.625));
#558 = DIRECTION('',(0.,0.,-1.));
#559 = DIRECTION('',(1.,0.,0.));
#560 = ORIENTED_EDGE('',*,*,#522,.F.);
#561 = ORIENTED_EDGE('',*,*,#98,.F.);
#562 = CYLINDRICAL_SURFACE('',#563,1.27);
#563 = AXIS2_PLACEMENT_3D('',#564,#565,#566);
#564 = CARTESIAN_POINT('',(-5.3575,-41.6828,-25.815));
#565 = DIRECTION('',(0.,0.,1.));
#566 = DIRECTION('',(1.,0.,-0.));
#567 = ADVANCED_FACE('',(#568),#579,.T.);
#568 = FACE_BOUND('',#569,.T.);
#569 = EDGE_LOOP('',(#570,#571,#572,#578));
#570 = ORIENTED_EDGE('',*,*,#90,.F.);
#571 = ORIENTED_EDGE('',*,*,#459,.F.);
#572 = ORIENTED_EDGE('',*,*,#573,.T.);
#573 = EDGE_CURVE('',#452,#547,#574,.T.);
#574 = LINE('',#575,#576);
#575 = CARTESIAN_POINT('',(-6.6275,-62.587,-29.625));
#576 = VECTOR('',#577,1.);
#577 = DIRECTION('',(0.,1.,0.));
#578 = ORIENTED_EDGE('',*,*,#546,.F.);
#579 = PLANE('',#580);
#580 = AXIS2_PLACEMENT_3D('',#581,#582,#583);
#581 = CARTESIAN_POINT('',(-6.6275,-62.587,-25.815));
#582 = DIRECTION('',(1.,0.,0.));
#583 = DIRECTION('',(-0.,1.,0.));
#584 = ADVANCED_FACE('',(#585),#603,.T.);
#585 = FACE_BOUND('',#586,.T.);
#586 = EDGE_LOOP('',(#587,#588,#596,#602));
#587 = ORIENTED_EDGE('',*,*,#74,.F.);
#588 = ORIENTED_EDGE('',*,*,#589,.T.);
#589 = EDGE_CURVE('',#67,#590,#592,.T.);
#590 = VERTEX_POINT('',#591);
#591 = CARTESIAN_POINT('',(-21.41,-72.4,-28.372));
#592 = LINE('',#593,#594);
#593 = CARTESIAN_POINT('',(-21.41,-72.4,-25.815));
#594 = VECTOR('',#595,1.);
#595 = DIRECTION('',(0.,0.,-1.));
#596 = ORIENTED_EDGE('',*,*,#597,.F.);
#597 = EDGE_CURVE('',#364,#590,#598,.T.);
#598 = LINE('',#599,#600);
#599 = CARTESIAN_POINT('',(-21.41,-72.4,-28.372));
#600 = VECTOR('',#601,1.);
#601 = DIRECTION('',(0.,-1.,2.2E-16));
#602 = ORIENTED_EDGE('',*,*,#363,.F.);
#603 = PLANE('',#604);
#604 = AXIS2_PLACEMENT_3D('',#605,#606,#607);
#605 = CARTESIAN_POINT('',(-21.41,-72.4,-25.815));
#606 = DIRECTION('',(1.,0.,0.));
#607 = DIRECTION('',(0.,1.,0.));
#608 = ADVANCED_FACE('',(#609),#659,.T.);
#609 = FACE_BOUND('',#610,.T.);
#610 = EDGE_LOOP('',(#611,#612,#620,#628,#636,#644,#652,#658));
#611 = ORIENTED_EDGE('',*,*,#66,.F.);
#612 = ORIENTED_EDGE('',*,*,#613,.T.);
#613 = EDGE_CURVE('',#58,#614,#616,.T.);
#614 = VERTEX_POINT('',#615);
#615 = CARTESIAN_POINT('',(-33.909,-72.4,-33.435));
#616 = LINE('',#617,#618);
#617 = CARTESIAN_POINT('',(-33.909,-72.4,-25.815));
#618 = VECTOR('',#619,1.);
#619 = DIRECTION('',(0.,0.,-1.));
#620 = ORIENTED_EDGE('',*,*,#621,.T.);
#621 = EDGE_CURVE('',#614,#622,#624,.T.);
#622 = VERTEX_POINT('',#623);
#623 = CARTESIAN_POINT('',(-21.41,-72.4,-33.435));
#624 = LINE('',#625,#626);
#625 = CARTESIAN_POINT('',(-34.925,-72.4,-33.435));
#626 = VECTOR('',#627,1.);
#627 = DIRECTION('',(1.,0.,0.));
#628 = ORIENTED_EDGE('',*,*,#629,.F.);
#629 = EDGE_CURVE('',#630,#622,#632,.T.);
#630 = VERTEX_POINT('',#631);
#631 = CARTESIAN_POINT('',(-21.41,-72.4,-30.988));
#632 = LINE('',#633,#634);
#633 = CARTESIAN_POINT('',(-21.41,-72.4,-25.815));
#634 = VECTOR('',#635,1.);
#635 = DIRECTION('',(0.,0.,-1.));
#636 = ORIENTED_EDGE('',*,*,#637,.F.);
#637 = EDGE_CURVE('',#638,#630,#640,.T.);
#638 = VERTEX_POINT('',#639);
#639 = CARTESIAN_POINT('',(-23.218,-72.4,-30.988));
#640 = LINE('',#641,#642);
#641 = CARTESIAN_POINT('',(-23.218,-72.4,-30.988));
#642 = VECTOR('',#643,1.);
#643 = DIRECTION('',(1.,0.,0.));
#644 = ORIENTED_EDGE('',*,*,#645,.F.);
#645 = EDGE_CURVE('',#646,#638,#648,.T.);
#646 = VERTEX_POINT('',#647);
#647 = CARTESIAN_POINT('',(-23.218,-72.4,-28.372));
#648 = LINE('',#649,#650);
#649 = CARTESIAN_POINT('',(-23.218,-72.4,-28.372));
#650 = VECTOR('',#651,1.);
#651 = DIRECTION('',(0.,0.,-1.));
#652 = ORIENTED_EDGE('',*,*,#653,.F.);
#653 = EDGE_CURVE('',#590,#646,#654,.T.);
#654 = LINE('',#655,#656);
#655 = CARTESIAN_POINT('',(23.218,-72.4,-28.372));
#656 = VECTOR('',#657,1.);
#657 = DIRECTION('',(-1.,0.,0.));
#658 = ORIENTED_EDGE('',*,*,#589,.F.);
#659 = PLANE('',#660);
#660 = AXIS2_PLACEMENT_3D('',#661,#662,#663);
#661 = CARTESIAN_POINT('',(-34.925,-72.4,-25.815));
#662 = DIRECTION('',(0.,-1.,0.));
#663 = DIRECTION('',(1.,0.,0.));
#664 = ADVANCED_FACE('',(#665),#684,.T.);
#665 = FACE_BOUND('',#666,.T.);
#666 = EDGE_LOOP('',(#667,#668,#676,#683));
#667 = ORIENTED_EDGE('',*,*,#57,.T.);
#668 = ORIENTED_EDGE('',*,*,#669,.T.);
#669 = EDGE_CURVE('',#50,#670,#672,.T.);
#670 = VERTEX_POINT('',#671);
#671 = CARTESIAN_POINT('',(-34.925,-71.384,-33.435));
#672 = LINE('',#673,#674);
#673 = CARTESIAN_POINT('',(-34.925,-71.384,-25.815));
#674 = VECTOR('',#675,1.);
#675 = DIRECTION('',(0.,0.,-1.));
#676 = ORIENTED_EDGE('',*,*,#677,.F.);
#677 = EDGE_CURVE('',#614,#670,#678,.T.);
#678 = CIRCLE('',#679,1.016);
#679 = AXIS2_PLACEMENT_3D('',#680,#681,#682);
#680 = CARTESIAN_POINT('',(-33.909,-71.384,-33.435));
#681 = DIRECTION('',(0.,0.,-1.));
#682 = DIRECTION('',(0.,1.,0.));
#683 = ORIENTED_EDGE('',*,*,#613,.F.);
#684 = CYLINDRICAL_SURFACE('',#685,1.016);
#685 = AXIS2_PLACEMENT_3D('',#686,#687,#688);
#686 = CARTESIAN_POINT('',(-33.909,-71.384,-25.815));
#687 = DIRECTION('',(0.,0.,-1.));
#688 = DIRECTION('',(0.,-1.,0.));
#689 = ADVANCED_FACE('',(#690),#708,.F.);
#690 = FACE_BOUND('',#691,.F.);
#691 = EDGE_LOOP('',(#692,#693,#694,#702));
#692 = ORIENTED_EDGE('',*,*,#49,.F.);
#693 = ORIENTED_EDGE('',*,*,#669,.T.);
#694 = ORIENTED_EDGE('',*,*,#695,.T.);
#695 = EDGE_CURVE('',#670,#696,#698,.T.);
#696 = VERTEX_POINT('',#697);
#697 = CARTESIAN_POINT('',(-34.925,-35.0788,-33.435));
#698 = LINE('',#699,#700);
#699 = CARTESIAN_POINT('',(-34.925,-72.4,-33.435));
#700 = VECTOR('',#701,1.);
#701 = DIRECTION('',(0.,1.,0.));
#702 = ORIENTED_EDGE('',*,*,#703,.F.);
#703 = EDGE_CURVE('',#41,#696,#704,.T.);
#704 = LINE('',#705,#706);
#705 = CARTESIAN_POINT('',(-34.925,-35.0788,-25.815));
#706 = VECTOR('',#707,1.);
#707 = DIRECTION('',(0.,0.,-1.));
#708 = PLANE('',#709);
#709 = AXIS2_PLACEMENT_3D('',#710,#711,#712);
#710 = CARTESIAN_POINT('',(-34.925,-72.4,-25.815));
#711 = DIRECTION('',(1.,0.,0.));
#712 = DIRECTION('',(0.,1.,0.));
#713 = ADVANCED_FACE('',(#714),#733,.T.);
#714 = FACE_BOUND('',#715,.T.);
#715 = EDGE_LOOP('',(#716,#717,#725,#732));
#716 = ORIENTED_EDGE('',*,*,#40,.T.);
#717 = ORIENTED_EDGE('',*,*,#718,.T.);
#718 = EDGE_CURVE('',#33,#719,#721,.T.);
#719 = VERTEX_POINT('',#720);
#720 = CARTESIAN_POINT('',(-33.909,-34.0628,-33.435));
#721 = LINE('',#722,#723);
#722 = CARTESIAN_POINT('',(-33.909,-34.0628,-25.815));
#723 = VECTOR('',#724,1.);
#724 = DIRECTION('',(0.,0.,-1.));
#725 = ORIENTED_EDGE('',*,*,#726,.F.);
#726 = EDGE_CURVE('',#696,#719,#727,.T.);
#727 = CIRCLE('',#728,1.016);
#728 = AXIS2_PLACEMENT_3D('',#729,#730,#731);
#729 = CARTESIAN_POINT('',(-33.909,-35.0788,-33.435));
#730 = DIRECTION('',(0.,0.,-1.));
#731 = DIRECTION('',(0.,1.,0.));
#732 = ORIENTED_EDGE('',*,*,#703,.F.);
#733 = CYLINDRICAL_SURFACE('',#734,1.016);
#734 = AXIS2_PLACEMENT_3D('',#735,#736,#737);
#735 = CARTESIAN_POINT('',(-33.909,-35.0788,-25.815));
#736 = DIRECTION('',(0.,0.,-1.));
#737 = DIRECTION('',(-1.,-0.,-0.));
#738 = ADVANCED_FACE('',(#739),#750,.F.);
#739 = FACE_BOUND('',#740,.F.);
#740 = EDGE_LOOP('',(#741,#742,#743,#749));
#741 = ORIENTED_EDGE('',*,*,#32,.F.);
#742 = ORIENTED_EDGE('',*,*,#718,.T.);
#743 = ORIENTED_EDGE('',*,*,#744,.T.);
#744 = EDGE_CURVE('',#719,#211,#745,.T.);
#745 = LINE('',#746,#747);
#746 = CARTESIAN_POINT('',(-34.925,-34.0628,-33.435));
#747 = VECTOR('',#748,1.);
#748 = DIRECTION('',(1.,0.,0.));
#749 = ORIENTED_EDGE('',*,*,#219,.F.);
#750 = PLANE('',#751);
#751 = AXIS2_PLACEMENT_3D('',#752,#753,#754);
#752 = CARTESIAN_POINT('',(-34.925,-34.0628,-25.815));
#753 = DIRECTION('',(0.,-1.,0.));
#754 = DIRECTION('',(1.,0.,0.));
#755 = ADVANCED_FACE('',(#756),#775,.F.);
#756 = FACE_BOUND('',#757,.T.);
#757 = EDGE_LOOP('',(#758,#766,#773,#774));
#758 = ORIENTED_EDGE('',*,*,#759,.F.);
#759 = EDGE_CURVE('',#760,#174,#762,.T.);
#760 = VERTEX_POINT('',#761);
#761 = CARTESIAN_POINT('',(-30.099,-60.96,-33.435));
#762 = LINE('',#763,#764);
#763 = CARTESIAN_POINT('',(-30.099,-60.96,-33.435));
#764 = VECTOR('',#765,1.);
#765 = DIRECTION('',(6.E-17,0.,1.));
#766 = ORIENTED_EDGE('',*,*,#767,.T.);
#767 = EDGE_CURVE('',#760,#760,#768,.T.);
#768 = CIRCLE('',#769,1.524);
#769 = AXIS2_PLACEMENT_3D('',#770,#771,#772);
#770 = CARTESIAN_POINT('',(-28.575,-60.96,-33.435));
#771 = DIRECTION('',(0.,0.,-1.));
#772 = DIRECTION('',(-1.,0.,0.));
#773 = ORIENTED_EDGE('',*,*,#759,.T.);
#774 = ORIENTED_EDGE('',*,*,#173,.T.);
#775 = CYLINDRICAL_SURFACE('',#776,1.524);
#776 = AXIS2_PLACEMENT_3D('',#777,#778,#779);
#777 = CARTESIAN_POINT('',(-28.575,-60.96,-33.435));
#778 = DIRECTION('',(0.,0.,1.));
#779 = DIRECTION('',(-1.,0.,0.));
#780 = ADVANCED_FACE('',(#781),#800,.F.);
#781 = FACE_BOUND('',#782,.T.);
#782 = EDGE_LOOP('',(#783,#791,#798,#799));
#783 = ORIENTED_EDGE('',*,*,#784,.F.);
#784 = EDGE_CURVE('',#785,#185,#787,.T.);
#785 = VERTEX_POINT('',#786);
#786 = CARTESIAN_POINT('',(27.051,-60.96,-33.435));
#787 = LINE('',#788,#789);
#788 = CARTESIAN_POINT('',(27.051,-60.96,-33.435));
#789 = VECTOR('',#790,1.);
#790 = DIRECTION('',(6.E-17,0.,1.));
#791 = ORIENTED_EDGE('',*,*,#792,.T.);
#792 = EDGE_CURVE('',#785,#785,#793,.T.);
#793 = CIRCLE('',#794,1.524);
#794 = AXIS2_PLACEMENT_3D('',#795,#796,#797);
#795 = CARTESIAN_POINT('',(28.575,-60.96,-33.435));
#796 = DIRECTION('',(0.,0.,-1.));
#797 = DIRECTION('',(-1.,0.,0.));
#798 = ORIENTED_EDGE('',*,*,#784,.T.);
#799 = ORIENTED_EDGE('',*,*,#184,.T.);
#800 = CYLINDRICAL_SURFACE('',#801,1.524);
#801 = AXIS2_PLACEMENT_3D('',#802,#803,#804);
#802 = CARTESIAN_POINT('',(28.575,-60.96,-33.435));
#803 = DIRECTION('',(0.,0.,1.));
#804 = DIRECTION('',(-1.,0.,0.));
#805 = ADVANCED_FACE('',(#806,#830,#833),#836,.F.);
#806 = FACE_BOUND('',#807,.F.);
#807 = EDGE_LOOP('',(#808,#809,#810,#811,#812,#813,#819,#820,#826,#827,
    #828,#829));
#808 = ORIENTED_EDGE('',*,*,#744,.F.);
#809 = ORIENTED_EDGE('',*,*,#726,.F.);
#810 = ORIENTED_EDGE('',*,*,#695,.F.);
#811 = ORIENTED_EDGE('',*,*,#677,.F.);
#812 = ORIENTED_EDGE('',*,*,#621,.T.);
#813 = ORIENTED_EDGE('',*,*,#814,.T.);
#814 = EDGE_CURVE('',#622,#396,#815,.T.);
#815 = LINE('',#816,#817);
#816 = CARTESIAN_POINT('',(-21.41,-72.4,-33.435));
#817 = VECTOR('',#818,1.);
#818 = DIRECTION('',(0.,1.,0.));
#819 = ORIENTED_EDGE('',*,*,#403,.T.);
#820 = ORIENTED_EDGE('',*,*,#821,.T.);
#821 = EDGE_CURVE('',#404,#317,#822,.T.);
#822 = LINE('',#823,#824);
#823 = CARTESIAN_POINT('',(21.41,-50.79,-33.435));
#824 = VECTOR('',#825,1.);
#825 = DIRECTION('',(0.,-1.,0.));
#826 = ORIENTED_EDGE('',*,*,#324,.T.);
#827 = ORIENTED_EDGE('',*,*,#266,.F.);
#828 = ORIENTED_EDGE('',*,*,#235,.F.);
#829 = ORIENTED_EDGE('',*,*,#210,.F.);
#830 = FACE_BOUND('',#831,.F.);
#831 = EDGE_LOOP('',(#832));
#832 = ORIENTED_EDGE('',*,*,#767,.T.);
#833 = FACE_BOUND('',#834,.F.);
#834 = EDGE_LOOP('',(#835));
#835 = ORIENTED_EDGE('',*,*,#792,.T.);
#836 = PLANE('',#837);
#837 = AXIS2_PLACEMENT_3D('',#838,#839,#840);
#838 = CARTESIAN_POINT('',(-4.38E-15,-51.05929841383,-33.435));
#839 = DIRECTION('',(0.,0.,1.));
#840 = DIRECTION('',(1.,0.,0.));
#841 = ADVANCED_FACE('',(#842),#853,.T.);
#842 = FACE_BOUND('',#843,.T.);
#843 = EDGE_LOOP('',(#844,#850,#851,#852));
#844 = ORIENTED_EDGE('',*,*,#845,.F.);
#845 = EDGE_CURVE('',#412,#309,#846,.T.);
#846 = LINE('',#847,#848);
#847 = CARTESIAN_POINT('',(21.41,-61.595,-30.988));
#848 = VECTOR('',#849,1.);
#849 = DIRECTION('',(0.,-1.,2.2E-16));
#850 = ORIENTED_EDGE('',*,*,#411,.T.);
#851 = ORIENTED_EDGE('',*,*,#821,.T.);
#852 = ORIENTED_EDGE('',*,*,#316,.F.);
#853 = PLANE('',#854);
#854 = AXIS2_PLACEMENT_3D('',#855,#856,#857);
#855 = CARTESIAN_POINT('',(21.41,-50.79,-25.815));
#856 = DIRECTION('',(-1.,-0.,-0.));
#857 = DIRECTION('',(0.,-1.,0.));
#858 = ADVANCED_FACE('',(#859),#870,.F.);
#859 = FACE_BOUND('',#860,.F.);
#860 = EDGE_LOOP('',(#861,#862,#863,#864));
#861 = ORIENTED_EDGE('',*,*,#308,.F.);
#862 = ORIENTED_EDGE('',*,*,#845,.F.);
#863 = ORIENTED_EDGE('',*,*,#419,.F.);
#864 = ORIENTED_EDGE('',*,*,#865,.F.);
#865 = EDGE_CURVE('',#301,#420,#866,.T.);
#866 = LINE('',#867,#868);
#867 = CARTESIAN_POINT('',(23.218,-72.4,-30.988));
#868 = VECTOR('',#869,1.);
#869 = DIRECTION('',(0.,1.,-2.2E-16));
#870 = PLANE('',#871);
#871 = AXIS2_PLACEMENT_3D('',#872,#873,#874);
#872 = CARTESIAN_POINT('',(-23.218,-72.4,-30.988));
#873 = DIRECTION('',(0.,-2.2E-16,-1.));
#874 = DIRECTION('',(1.,0.,0.));
#875 = ADVANCED_FACE('',(#876),#887,.F.);
#876 = FACE_BOUND('',#877,.F.);
#877 = EDGE_LOOP('',(#878,#879,#880,#881));
#878 = ORIENTED_EDGE('',*,*,#300,.F.);
#879 = ORIENTED_EDGE('',*,*,#865,.T.);
#880 = ORIENTED_EDGE('',*,*,#427,.F.);
#881 = ORIENTED_EDGE('',*,*,#882,.F.);
#882 = EDGE_CURVE('',#293,#428,#883,.T.);
#883 = LINE('',#884,#885);
#884 = CARTESIAN_POINT('',(23.218,-72.4,-28.372));
#885 = VECTOR('',#886,1.);
#886 = DIRECTION('',(0.,1.,-2.2E-16));
#887 = PLANE('',#888);
#888 = AXIS2_PLACEMENT_3D('',#889,#890,#891);
#889 = CARTESIAN_POINT('',(23.218,-72.4,-30.988));
#890 = DIRECTION('',(1.,0.,0.));
#891 = DIRECTION('',(0.,2.2E-16,1.));
#892 = ADVANCED_FACE('',(#893),#899,.F.);
#893 = FACE_BOUND('',#894,.F.);
#894 = EDGE_LOOP('',(#895,#896,#897,#898));
#895 = ORIENTED_EDGE('',*,*,#292,.F.);
#896 = ORIENTED_EDGE('',*,*,#882,.T.);
#897 = ORIENTED_EDGE('',*,*,#435,.F.);
#898 = ORIENTED_EDGE('',*,*,#347,.F.);
#899 = PLANE('',#900);
#900 = AXIS2_PLACEMENT_3D('',#901,#902,#903);
#901 = CARTESIAN_POINT('',(23.218,-72.4,-28.372));
#902 = DIRECTION('',(0.,2.2E-16,1.));
#903 = DIRECTION('',(-1.,0.,0.));
#904 = ADVANCED_FACE('',(#905),#913,.T.);
#905 = FACE_BOUND('',#906,.T.);
#906 = EDGE_LOOP('',(#907,#908,#909,#910,#911,#912));
#907 = ORIENTED_EDGE('',*,*,#573,.F.);
#908 = ORIENTED_EDGE('',*,*,#451,.F.);
#909 = ORIENTED_EDGE('',*,*,#482,.F.);
#910 = ORIENTED_EDGE('',*,*,#505,.F.);
#911 = ORIENTED_EDGE('',*,*,#530,.F.);
#912 = ORIENTED_EDGE('',*,*,#554,.F.);
#913 = PLANE('',#914);
#914 = AXIS2_PLACEMENT_3D('',#915,#916,#917);
#915 = CARTESIAN_POINT('',(-2.349999999999E-02,-51.68475300265,-29.625)
  );
#916 = DIRECTION('',(0.,0.,1.));
#917 = DIRECTION('',(1.,0.,0.));
#918 = ADVANCED_FACE('',(#919),#930,.T.);
#919 = FACE_BOUND('',#920,.T.);
#920 = EDGE_LOOP('',(#921,#927,#928,#929));
#921 = ORIENTED_EDGE('',*,*,#922,.F.);
#922 = EDGE_CURVE('',#630,#388,#923,.T.);
#923 = LINE('',#924,#925);
#924 = CARTESIAN_POINT('',(-21.41,-72.4,-30.988));
#925 = VECTOR('',#926,1.);
#926 = DIRECTION('',(0.,1.,-2.2E-16));
#927 = ORIENTED_EDGE('',*,*,#629,.T.);
#928 = ORIENTED_EDGE('',*,*,#814,.T.);
#929 = ORIENTED_EDGE('',*,*,#395,.F.);
#930 = PLANE('',#931);
#931 = AXIS2_PLACEMENT_3D('',#932,#933,#934);
#932 = CARTESIAN_POINT('',(-21.41,-72.4,-25.815));
#933 = DIRECTION('',(1.,0.,0.));
#934 = DIRECTION('',(0.,1.,0.));
#935 = ADVANCED_FACE('',(#936),#947,.F.);
#936 = FACE_BOUND('',#937,.F.);
#937 = EDGE_LOOP('',(#938,#939,#945,#946));
#938 = ORIENTED_EDGE('',*,*,#637,.F.);
#939 = ORIENTED_EDGE('',*,*,#940,.T.);
#940 = EDGE_CURVE('',#638,#380,#941,.T.);
#941 = LINE('',#942,#943);
#942 = CARTESIAN_POINT('',(-23.218,-72.4,-30.988));
#943 = VECTOR('',#944,1.);
#944 = DIRECTION('',(0.,1.,-2.2E-16));
#945 = ORIENTED_EDGE('',*,*,#387,.F.);
#946 = ORIENTED_EDGE('',*,*,#922,.F.);
#947 = PLANE('',#948);
#948 = AXIS2_PLACEMENT_3D('',#949,#950,#951);
#949 = CARTESIAN_POINT('',(-23.218,-72.4,-30.988));
#950 = DIRECTION('',(0.,-2.2E-16,-1.));
#951 = DIRECTION('',(1.,0.,0.));
#952 = ADVANCED_FACE('',(#953),#964,.F.);
#953 = FACE_BOUND('',#954,.F.);
#954 = EDGE_LOOP('',(#955,#956,#962,#963));
#955 = ORIENTED_EDGE('',*,*,#645,.F.);
#956 = ORIENTED_EDGE('',*,*,#957,.T.);
#957 = EDGE_CURVE('',#646,#372,#958,.T.);
#958 = LINE('',#959,#960);
#959 = CARTESIAN_POINT('',(-23.218,-72.4,-28.372));
#960 = VECTOR('',#961,1.);
#961 = DIRECTION('',(0.,1.,-2.2E-16));
#962 = ORIENTED_EDGE('',*,*,#379,.F.);
#963 = ORIENTED_EDGE('',*,*,#940,.F.);
#964 = PLANE('',#965);
#965 = AXIS2_PLACEMENT_3D('',#966,#967,#968);
#966 = CARTESIAN_POINT('',(-23.218,-72.4,-28.372));
#967 = DIRECTION('',(-1.,0.,0.));
#968 = DIRECTION('',(-0.,-2.2E-16,-1.));
#969 = ADVANCED_FACE('',(#970),#976,.F.);
#970 = FACE_BOUND('',#971,.F.);
#971 = EDGE_LOOP('',(#972,#973,#974,#975));
#972 = ORIENTED_EDGE('',*,*,#653,.F.);
#973 = ORIENTED_EDGE('',*,*,#597,.F.);
#974 = ORIENTED_EDGE('',*,*,#371,.F.);
#975 = ORIENTED_EDGE('',*,*,#957,.F.);
#976 = PLANE('',#977);
#977 = AXIS2_PLACEMENT_3D('',#978,#979,#980);
#978 = CARTESIAN_POINT('',(23.218,-72.4,-28.372));
#979 = DIRECTION('',(0.,2.2E-16,1.));
#980 = DIRECTION('',(-1.,0.,0.));
#981 = ( GEOMETRIC_REPRESENTATION_CONTEXT(3) 
GLOBAL_UNCERTAINTY_ASSIGNED_CONTEXT((#988)) GLOBAL_UNIT_ASSIGNED_CONTEXT
((#982,#986,#987)) REPRESENTATION_CONTEXT('Context #1',
  '3D Context with UNIT and UNCERTAINTY') );
#982 = ( CONVERSION_BASED_UNIT('INCH',#984) LENGTH_UNIT() NAMED_UNIT(
  #983) );
#983 = DIMENSIONAL_EXPONENTS(1.,0.,0.,0.,0.,0.,0.);
#984 = LENGTH_MEASURE_WITH_UNIT(25.4,#985);
#985 = ( LENGTH_UNIT() NAMED_UNIT(*) SI_UNIT(.MILLI.,.METRE.) );
#986 = ( NAMED_UNIT(*) PLANE_ANGLE_UNIT() SI_UNIT($,.RADIAN.) );
#987 = ( NAMED_UNIT(*) SI_UNIT($,.STERADIAN.) SOLID_ANGLE_UNIT() );
#988 = UNCERTAINTY_MEASURE_WITH_UNIT(LENGTH_MEASURE(5.E-06),#982,
  'distance_accuracy_value','confusion accuracy');
#989 = PRODUCT_RELATED_PRODUCT_CATEGORY('part',$,(#7));
#990 = MECHANICAL_DESIGN_GEOMETRIC_PRESENTATION_REPRESENTATION('',(#991)
  ,#981);
#991 = STYLED_ITEM('color',(#992),#15);
#992 = PRESENTATION_STYLE_ASSIGNMENT((#993,#999));
#993 = SURFACE_STYLE_USAGE(.BOTH.,#994);
#994 = SURFACE_SIDE_STYLE('',(#995));
#995 = SURFACE_STYLE_FILL_AREA(#996);
#996 = FILL_AREA_STYLE('',(#997));
#997 = FILL_AREA_STYLE_COLOUR('',#998);
#998 = COLOUR_RGB('',0.678431390124,0.709803936702,0.741176476869);
#999 = CURVE_STYLE('',#1000,POSITIVE_LENGTH_MEASURE(0.1),#1001);
#1000 = DRAUGHTING_PRE_DEFINED_CURVE_FONT('continuous');
#1001 = COLOUR_RGB('',9.803921802644E-02,9.803921802644E-02,
  9.803921802644E-02);
ENDSEC;
END-ISO-10303-21;
