M48
; DRILL file KiCad 10.0.1 date 2026-04-27T10:03:17
; FORMAT={-:-/ absolute / metric / decimal}
; #@! TF.CreationDate,2026-04-27T10:03:17-04:00
; #@! TF.GenerationSoftware,Kicad,Pcbnew,10.0.1
; #@! TF.FileFunction,Plated,1,2,PTH
FMAT,2
METRIC
; #@! TA.AperFunction,Plated,PTH,ComponentDrill
T1C0.750
; #@! TA.AperFunction,Plated,PTH,ComponentDrill
T2C0.800
; #@! TA.AperFunction,Plated,PTH,ComponentDrill
T3C0.813
; #@! TA.AperFunction,Plated,PTH,ComponentDrill
T4C1.040
; #@! TA.AperFunction,Plated,PTH,ComponentDrill
T5C1.100
; #@! TA.AperFunction,Plated,PTH,ComponentDrill
T6C1.168
; #@! TA.AperFunction,Plated,PTH,ComponentDrill
T7C1.900
%
G90
G05
T1
X157.48Y-114.935
X158.75Y-114.935
X160.02Y-114.935
X162.56Y-114.935
X163.83Y-114.935
X165.1Y-114.935
X167.64Y-114.935
X168.91Y-114.935
X170.18Y-114.935
T2
X133.37Y-119.075
X135.255Y-95.245
X135.87Y-119.075
X142.24Y-106.06
X142.24Y-108.56
X144.78Y-81.28
X144.78Y-91.44
X145.415Y-95.245
X145.415Y-98.425
X145.415Y-100.965
X145.415Y-103.505
X145.415Y-106.045
X145.415Y-108.585
X145.415Y-111.125
X145.415Y-113.665
X145.415Y-119.73
X145.415Y-122.23
X147.955Y-73.7
X147.955Y-76.2
X147.955Y-81.32
X147.955Y-83.82
X151.13Y-76.2
X151.13Y-78.74
X151.13Y-81.28
X151.13Y-83.82
X153.035Y-92.725
X153.035Y-95.225
X153.035Y-98.425
X153.035Y-100.965
X153.035Y-103.505
X153.035Y-106.045
X153.035Y-108.585
X153.035Y-111.125
X153.035Y-113.665
X158.75Y-70.505
X158.75Y-73.005
X158.75Y-76.2
X158.75Y-78.74
X158.75Y-81.28
X158.75Y-83.82
X158.75Y-103.505
X158.75Y-111.125
X161.925Y-68.58
X161.925Y-76.2
X163.83Y-100.965
X163.83Y-111.125
X165.1Y-68.58
X165.1Y-78.74
X165.1Y-81.627
X165.1Y-84.127
X168.275Y-76.507
X168.275Y-79.047
X168.275Y-81.587
X168.275Y-84.127
X168.91Y-69.522
X168.91Y-103.505
X168.91Y-111.125
X173.395Y-73.332
X174.625Y-92.71
X174.625Y-95.25
X174.625Y-97.79
X174.625Y-100.33
X174.625Y-102.87
X174.625Y-105.41
X174.625Y-107.95
X174.625Y-111.145
X174.625Y-113.645
X175.895Y-73.332
X175.895Y-76.507
X175.895Y-79.047
X175.895Y-81.587
X175.895Y-84.127
X179.07Y-69.522
X179.07Y-72.39
X179.07Y-82.55
X179.07Y-85.745
X179.07Y-88.245
X182.245Y-92.71
X182.245Y-95.25
X182.245Y-97.79
X182.245Y-100.33
X182.245Y-102.87
X182.245Y-105.41
X182.245Y-107.95
X182.245Y-111.125
X185.42Y-97.85
X185.42Y-100.35
X192.405Y-111.125
T3
X132.664Y-100.96
X132.664Y-106.04
X137.744Y-103.5
X189.88Y-102.87
X194.96Y-100.33
X194.96Y-105.41
T4
X160.053Y-91.44
X162.594Y-91.44
X165.133Y-91.44
X167.673Y-91.44
T5
X135.85Y-122.25
X138.39Y-122.25
X140.93Y-122.25
T6
X158.775Y-122.25
X161.315Y-122.25
X163.855Y-122.25
X166.395Y-122.25
X168.935Y-122.25
T7
X145.505Y-127.94
X145.505Y-134.95
X150.505Y-127.94
X150.505Y-134.95
X176.945Y-127.94
X176.945Y-134.95
X181.945Y-127.94
X181.945Y-134.95
M30
