%TF.GenerationSoftware,KiCad,Pcbnew,10.0.1*%
%TF.CreationDate,2026-04-27T10:02:58-04:00*%
%TF.ProjectId,garagelights,67617261-6765-46c6-9967-6874732e6b69,rev?*%
%TF.SameCoordinates,Original*%
%TF.FileFunction,Legend,Bot*%
%TF.FilePolarity,Positive*%
%FSLAX46Y46*%
G04 Gerber Fmt 4.6, Leading zero omitted, Abs format (unit mm)*
G04 Created by KiCad (PCBNEW 10.0.1) date 2026-04-27 10:02:58*
%MOMM*%
%LPD*%
G01*
G04 APERTURE LIST*
%ADD10C,0.100000*%
%ADD11C,0.150000*%
%ADD12C,0.200000*%
%ADD13C,0.152400*%
%ADD14C,0.508000*%
G04 APERTURE END LIST*
D10*
X158876466Y-126922884D02*
X158876466Y-127684789D01*
X159257419Y-127303836D02*
X158495514Y-127303836D01*
X159257419Y-128684788D02*
X159257419Y-128113360D01*
X159257419Y-128399074D02*
X158257419Y-128399074D01*
X158257419Y-128399074D02*
X158400276Y-128303836D01*
X158400276Y-128303836D02*
X158495514Y-128208598D01*
X158495514Y-128208598D02*
X158543133Y-128113360D01*
X158352657Y-129065741D02*
X158305038Y-129113360D01*
X158305038Y-129113360D02*
X158257419Y-129208598D01*
X158257419Y-129208598D02*
X158257419Y-129446693D01*
X158257419Y-129446693D02*
X158305038Y-129541931D01*
X158305038Y-129541931D02*
X158352657Y-129589550D01*
X158352657Y-129589550D02*
X158447895Y-129637169D01*
X158447895Y-129637169D02*
X158543133Y-129637169D01*
X158543133Y-129637169D02*
X158685990Y-129589550D01*
X158685990Y-129589550D02*
X159257419Y-129018122D01*
X159257419Y-129018122D02*
X159257419Y-129637169D01*
X158257419Y-129922884D02*
X159257419Y-130256217D01*
X159257419Y-130256217D02*
X158257419Y-130589550D01*
X161797419Y-126922884D02*
X160797419Y-126922884D01*
X160797419Y-126922884D02*
X161797419Y-127494312D01*
X161797419Y-127494312D02*
X160797419Y-127494312D01*
X160749800Y-128684788D02*
X162035514Y-127827646D01*
X161702180Y-129589550D02*
X161749800Y-129541931D01*
X161749800Y-129541931D02*
X161797419Y-129399074D01*
X161797419Y-129399074D02*
X161797419Y-129303836D01*
X161797419Y-129303836D02*
X161749800Y-129160979D01*
X161749800Y-129160979D02*
X161654561Y-129065741D01*
X161654561Y-129065741D02*
X161559323Y-129018122D01*
X161559323Y-129018122D02*
X161368847Y-128970503D01*
X161368847Y-128970503D02*
X161225990Y-128970503D01*
X161225990Y-128970503D02*
X161035514Y-129018122D01*
X161035514Y-129018122D02*
X160940276Y-129065741D01*
X160940276Y-129065741D02*
X160845038Y-129160979D01*
X160845038Y-129160979D02*
X160797419Y-129303836D01*
X160797419Y-129303836D02*
X160797419Y-129399074D01*
X160797419Y-129399074D02*
X160845038Y-129541931D01*
X160845038Y-129541931D02*
X160892657Y-129589550D01*
X163385038Y-127573693D02*
X163337419Y-127478455D01*
X163337419Y-127478455D02*
X163337419Y-127335598D01*
X163337419Y-127335598D02*
X163385038Y-127192741D01*
X163385038Y-127192741D02*
X163480276Y-127097503D01*
X163480276Y-127097503D02*
X163575514Y-127049884D01*
X163575514Y-127049884D02*
X163765990Y-127002265D01*
X163765990Y-127002265D02*
X163908847Y-127002265D01*
X163908847Y-127002265D02*
X164099323Y-127049884D01*
X164099323Y-127049884D02*
X164194561Y-127097503D01*
X164194561Y-127097503D02*
X164289800Y-127192741D01*
X164289800Y-127192741D02*
X164337419Y-127335598D01*
X164337419Y-127335598D02*
X164337419Y-127430836D01*
X164337419Y-127430836D02*
X164289800Y-127573693D01*
X164289800Y-127573693D02*
X164242180Y-127621312D01*
X164242180Y-127621312D02*
X163908847Y-127621312D01*
X163908847Y-127621312D02*
X163908847Y-127430836D01*
X164337419Y-128621312D02*
X163861228Y-128287979D01*
X164337419Y-128049884D02*
X163337419Y-128049884D01*
X163337419Y-128049884D02*
X163337419Y-128430836D01*
X163337419Y-128430836D02*
X163385038Y-128526074D01*
X163385038Y-128526074D02*
X163432657Y-128573693D01*
X163432657Y-128573693D02*
X163527895Y-128621312D01*
X163527895Y-128621312D02*
X163670752Y-128621312D01*
X163670752Y-128621312D02*
X163765990Y-128573693D01*
X163765990Y-128573693D02*
X163813609Y-128526074D01*
X163813609Y-128526074D02*
X163861228Y-128430836D01*
X163861228Y-128430836D02*
X163861228Y-128049884D01*
X163813609Y-129049884D02*
X163813609Y-129383217D01*
X164337419Y-129526074D02*
X164337419Y-129049884D01*
X164337419Y-129049884D02*
X163337419Y-129049884D01*
X163337419Y-129049884D02*
X163337419Y-129526074D01*
X163813609Y-129954646D02*
X163813609Y-130287979D01*
X164337419Y-130430836D02*
X164337419Y-129954646D01*
X164337419Y-129954646D02*
X163337419Y-129954646D01*
X163337419Y-129954646D02*
X163337419Y-130430836D01*
X164337419Y-130859408D02*
X163337419Y-130859408D01*
X163337419Y-130859408D02*
X164337419Y-131430836D01*
X164337419Y-131430836D02*
X163337419Y-131430836D01*
X163059800Y-126911789D02*
X163059800Y-131568932D01*
X166401228Y-127240360D02*
X166877419Y-127240360D01*
X165877419Y-126907027D02*
X166401228Y-127240360D01*
X166401228Y-127240360D02*
X165877419Y-127573693D01*
X166353609Y-127907027D02*
X166353609Y-128240360D01*
X166877419Y-128383217D02*
X166877419Y-127907027D01*
X166877419Y-127907027D02*
X165877419Y-127907027D01*
X165877419Y-127907027D02*
X165877419Y-128383217D01*
X166877419Y-129287979D02*
X166877419Y-128811789D01*
X166877419Y-128811789D02*
X165877419Y-128811789D01*
X166877419Y-130097503D02*
X166877419Y-129621313D01*
X166877419Y-129621313D02*
X165877419Y-129621313D01*
X165877419Y-130621313D02*
X165877419Y-130811789D01*
X165877419Y-130811789D02*
X165925038Y-130907027D01*
X165925038Y-130907027D02*
X166020276Y-131002265D01*
X166020276Y-131002265D02*
X166210752Y-131049884D01*
X166210752Y-131049884D02*
X166544085Y-131049884D01*
X166544085Y-131049884D02*
X166734561Y-131002265D01*
X166734561Y-131002265D02*
X166829800Y-130907027D01*
X166829800Y-130907027D02*
X166877419Y-130811789D01*
X166877419Y-130811789D02*
X166877419Y-130621313D01*
X166877419Y-130621313D02*
X166829800Y-130526075D01*
X166829800Y-130526075D02*
X166734561Y-130430837D01*
X166734561Y-130430837D02*
X166544085Y-130383218D01*
X166544085Y-130383218D02*
X166210752Y-130383218D01*
X166210752Y-130383218D02*
X166020276Y-130430837D01*
X166020276Y-130430837D02*
X165925038Y-130526075D01*
X165925038Y-130526075D02*
X165877419Y-130621313D01*
X165877419Y-131383218D02*
X166877419Y-131621313D01*
X166877419Y-131621313D02*
X166163133Y-131811789D01*
X166163133Y-131811789D02*
X166877419Y-132002265D01*
X166877419Y-132002265D02*
X165877419Y-132240361D01*
X165599800Y-126911789D02*
X165599800Y-132283218D01*
X169417419Y-127494312D02*
X168941228Y-127160979D01*
X169417419Y-126922884D02*
X168417419Y-126922884D01*
X168417419Y-126922884D02*
X168417419Y-127303836D01*
X168417419Y-127303836D02*
X168465038Y-127399074D01*
X168465038Y-127399074D02*
X168512657Y-127446693D01*
X168512657Y-127446693D02*
X168607895Y-127494312D01*
X168607895Y-127494312D02*
X168750752Y-127494312D01*
X168750752Y-127494312D02*
X168845990Y-127446693D01*
X168845990Y-127446693D02*
X168893609Y-127399074D01*
X168893609Y-127399074D02*
X168941228Y-127303836D01*
X168941228Y-127303836D02*
X168941228Y-126922884D01*
X168893609Y-127922884D02*
X168893609Y-128256217D01*
X169417419Y-128399074D02*
X169417419Y-127922884D01*
X169417419Y-127922884D02*
X168417419Y-127922884D01*
X168417419Y-127922884D02*
X168417419Y-128399074D01*
X169417419Y-128827646D02*
X168417419Y-128827646D01*
X168417419Y-128827646D02*
X168417419Y-129065741D01*
X168417419Y-129065741D02*
X168465038Y-129208598D01*
X168465038Y-129208598D02*
X168560276Y-129303836D01*
X168560276Y-129303836D02*
X168655514Y-129351455D01*
X168655514Y-129351455D02*
X168845990Y-129399074D01*
X168845990Y-129399074D02*
X168988847Y-129399074D01*
X168988847Y-129399074D02*
X169179323Y-129351455D01*
X169179323Y-129351455D02*
X169274561Y-129303836D01*
X169274561Y-129303836D02*
X169369800Y-129208598D01*
X169369800Y-129208598D02*
X169417419Y-129065741D01*
X169417419Y-129065741D02*
X169417419Y-128827646D01*
X168139800Y-126784789D02*
X168139800Y-129489551D01*
X160464961Y-95438306D02*
X160512580Y-95533544D01*
X160512580Y-95533544D02*
X160512580Y-95676401D01*
X160512580Y-95676401D02*
X160464961Y-95819258D01*
X160464961Y-95819258D02*
X160369723Y-95914496D01*
X160369723Y-95914496D02*
X160274485Y-95962115D01*
X160274485Y-95962115D02*
X160084009Y-96009734D01*
X160084009Y-96009734D02*
X159941152Y-96009734D01*
X159941152Y-96009734D02*
X159750676Y-95962115D01*
X159750676Y-95962115D02*
X159655438Y-95914496D01*
X159655438Y-95914496D02*
X159560200Y-95819258D01*
X159560200Y-95819258D02*
X159512580Y-95676401D01*
X159512580Y-95676401D02*
X159512580Y-95581163D01*
X159512580Y-95581163D02*
X159560200Y-95438306D01*
X159560200Y-95438306D02*
X159607819Y-95390687D01*
X159607819Y-95390687D02*
X159941152Y-95390687D01*
X159941152Y-95390687D02*
X159941152Y-95581163D01*
X159512580Y-94962115D02*
X160512580Y-94962115D01*
X160512580Y-94962115D02*
X159512580Y-94390687D01*
X159512580Y-94390687D02*
X160512580Y-94390687D01*
X159512580Y-93914496D02*
X160512580Y-93914496D01*
X160512580Y-93914496D02*
X160512580Y-93676401D01*
X160512580Y-93676401D02*
X160464961Y-93533544D01*
X160464961Y-93533544D02*
X160369723Y-93438306D01*
X160369723Y-93438306D02*
X160274485Y-93390687D01*
X160274485Y-93390687D02*
X160084009Y-93343068D01*
X160084009Y-93343068D02*
X159941152Y-93343068D01*
X159941152Y-93343068D02*
X159750676Y-93390687D01*
X159750676Y-93390687D02*
X159655438Y-93438306D01*
X159655438Y-93438306D02*
X159560200Y-93533544D01*
X159560200Y-93533544D02*
X159512580Y-93676401D01*
X159512580Y-93676401D02*
X159512580Y-93914496D01*
X162576390Y-96978115D02*
X162576390Y-96644782D01*
X162052580Y-96501925D02*
X162052580Y-96978115D01*
X162052580Y-96978115D02*
X163052580Y-96978115D01*
X163052580Y-96978115D02*
X163052580Y-96501925D01*
X162147819Y-95501925D02*
X162100200Y-95549544D01*
X162100200Y-95549544D02*
X162052580Y-95692401D01*
X162052580Y-95692401D02*
X162052580Y-95787639D01*
X162052580Y-95787639D02*
X162100200Y-95930496D01*
X162100200Y-95930496D02*
X162195438Y-96025734D01*
X162195438Y-96025734D02*
X162290676Y-96073353D01*
X162290676Y-96073353D02*
X162481152Y-96120972D01*
X162481152Y-96120972D02*
X162624009Y-96120972D01*
X162624009Y-96120972D02*
X162814485Y-96073353D01*
X162814485Y-96073353D02*
X162909723Y-96025734D01*
X162909723Y-96025734D02*
X163004961Y-95930496D01*
X163004961Y-95930496D02*
X163052580Y-95787639D01*
X163052580Y-95787639D02*
X163052580Y-95692401D01*
X163052580Y-95692401D02*
X163004961Y-95549544D01*
X163004961Y-95549544D02*
X162957342Y-95501925D01*
X162052580Y-95073353D02*
X163052580Y-95073353D01*
X162576390Y-95073353D02*
X162576390Y-94501925D01*
X162052580Y-94501925D02*
X163052580Y-94501925D01*
X163052580Y-93835258D02*
X163052580Y-93644782D01*
X163052580Y-93644782D02*
X163004961Y-93549544D01*
X163004961Y-93549544D02*
X162909723Y-93454306D01*
X162909723Y-93454306D02*
X162719247Y-93406687D01*
X162719247Y-93406687D02*
X162385914Y-93406687D01*
X162385914Y-93406687D02*
X162195438Y-93454306D01*
X162195438Y-93454306D02*
X162100200Y-93549544D01*
X162100200Y-93549544D02*
X162052580Y-93644782D01*
X162052580Y-93644782D02*
X162052580Y-93835258D01*
X162052580Y-93835258D02*
X162100200Y-93930496D01*
X162100200Y-93930496D02*
X162195438Y-94025734D01*
X162195438Y-94025734D02*
X162385914Y-94073353D01*
X162385914Y-94073353D02*
X162719247Y-94073353D01*
X162719247Y-94073353D02*
X162909723Y-94025734D01*
X162909723Y-94025734D02*
X163004961Y-93930496D01*
X163004961Y-93930496D02*
X163052580Y-93835258D01*
X165592580Y-96358972D02*
X165592580Y-95787544D01*
X164592580Y-96073258D02*
X165592580Y-96073258D01*
X164592580Y-94882782D02*
X165068771Y-95216115D01*
X164592580Y-95454210D02*
X165592580Y-95454210D01*
X165592580Y-95454210D02*
X165592580Y-95073258D01*
X165592580Y-95073258D02*
X165544961Y-94978020D01*
X165544961Y-94978020D02*
X165497342Y-94930401D01*
X165497342Y-94930401D02*
X165402104Y-94882782D01*
X165402104Y-94882782D02*
X165259247Y-94882782D01*
X165259247Y-94882782D02*
X165164009Y-94930401D01*
X165164009Y-94930401D02*
X165116390Y-94978020D01*
X165116390Y-94978020D02*
X165068771Y-95073258D01*
X165068771Y-95073258D02*
X165068771Y-95454210D01*
X164592580Y-94454210D02*
X165592580Y-94454210D01*
X165544961Y-93454211D02*
X165592580Y-93549449D01*
X165592580Y-93549449D02*
X165592580Y-93692306D01*
X165592580Y-93692306D02*
X165544961Y-93835163D01*
X165544961Y-93835163D02*
X165449723Y-93930401D01*
X165449723Y-93930401D02*
X165354485Y-93978020D01*
X165354485Y-93978020D02*
X165164009Y-94025639D01*
X165164009Y-94025639D02*
X165021152Y-94025639D01*
X165021152Y-94025639D02*
X164830676Y-93978020D01*
X164830676Y-93978020D02*
X164735438Y-93930401D01*
X164735438Y-93930401D02*
X164640200Y-93835163D01*
X164640200Y-93835163D02*
X164592580Y-93692306D01*
X164592580Y-93692306D02*
X164592580Y-93597068D01*
X164592580Y-93597068D02*
X164640200Y-93454211D01*
X164640200Y-93454211D02*
X164687819Y-93406592D01*
X164687819Y-93406592D02*
X165021152Y-93406592D01*
X165021152Y-93406592D02*
X165021152Y-93597068D01*
X168132580Y-96104972D02*
X167132580Y-95771639D01*
X167132580Y-95771639D02*
X168132580Y-95438306D01*
X167227819Y-94533544D02*
X167180200Y-94581163D01*
X167180200Y-94581163D02*
X167132580Y-94724020D01*
X167132580Y-94724020D02*
X167132580Y-94819258D01*
X167132580Y-94819258D02*
X167180200Y-94962115D01*
X167180200Y-94962115D02*
X167275438Y-95057353D01*
X167275438Y-95057353D02*
X167370676Y-95104972D01*
X167370676Y-95104972D02*
X167561152Y-95152591D01*
X167561152Y-95152591D02*
X167704009Y-95152591D01*
X167704009Y-95152591D02*
X167894485Y-95104972D01*
X167894485Y-95104972D02*
X167989723Y-95057353D01*
X167989723Y-95057353D02*
X168084961Y-94962115D01*
X168084961Y-94962115D02*
X168132580Y-94819258D01*
X168132580Y-94819258D02*
X168132580Y-94724020D01*
X168132580Y-94724020D02*
X168084961Y-94581163D01*
X168084961Y-94581163D02*
X168037342Y-94533544D01*
X167227819Y-93533544D02*
X167180200Y-93581163D01*
X167180200Y-93581163D02*
X167132580Y-93724020D01*
X167132580Y-93724020D02*
X167132580Y-93819258D01*
X167132580Y-93819258D02*
X167180200Y-93962115D01*
X167180200Y-93962115D02*
X167275438Y-94057353D01*
X167275438Y-94057353D02*
X167370676Y-94104972D01*
X167370676Y-94104972D02*
X167561152Y-94152591D01*
X167561152Y-94152591D02*
X167704009Y-94152591D01*
X167704009Y-94152591D02*
X167894485Y-94104972D01*
X167894485Y-94104972D02*
X167989723Y-94057353D01*
X167989723Y-94057353D02*
X168084961Y-93962115D01*
X168084961Y-93962115D02*
X168132580Y-93819258D01*
X168132580Y-93819258D02*
X168132580Y-93724020D01*
X168132580Y-93724020D02*
X168084961Y-93581163D01*
X168084961Y-93581163D02*
X168037342Y-93533544D01*
D11*
X156886833Y-90894819D02*
X156886833Y-91609104D01*
X156886833Y-91609104D02*
X156934452Y-91751961D01*
X156934452Y-91751961D02*
X157029690Y-91847200D01*
X157029690Y-91847200D02*
X157172547Y-91894819D01*
X157172547Y-91894819D02*
X157267785Y-91894819D01*
X155886833Y-91894819D02*
X156458261Y-91894819D01*
X156172547Y-91894819D02*
X156172547Y-90894819D01*
X156172547Y-90894819D02*
X156267785Y-91037676D01*
X156267785Y-91037676D02*
X156363023Y-91132914D01*
X156363023Y-91132914D02*
X156458261Y-91180533D01*
X153368333Y-121704819D02*
X153368333Y-122419104D01*
X153368333Y-122419104D02*
X153415952Y-122561961D01*
X153415952Y-122561961D02*
X153511190Y-122657200D01*
X153511190Y-122657200D02*
X153654047Y-122704819D01*
X153654047Y-122704819D02*
X153749285Y-122704819D01*
X152939761Y-121800057D02*
X152892142Y-121752438D01*
X152892142Y-121752438D02*
X152796904Y-121704819D01*
X152796904Y-121704819D02*
X152558809Y-121704819D01*
X152558809Y-121704819D02*
X152463571Y-121752438D01*
X152463571Y-121752438D02*
X152415952Y-121800057D01*
X152415952Y-121800057D02*
X152368333Y-121895295D01*
X152368333Y-121895295D02*
X152368333Y-121990533D01*
X152368333Y-121990533D02*
X152415952Y-122133390D01*
X152415952Y-122133390D02*
X152987380Y-122704819D01*
X152987380Y-122704819D02*
X152368333Y-122704819D01*
%TO.C,J1*%
D12*
X157978500Y-91440000D02*
G75*
G02*
X157778500Y-91440000I-100000J0D01*
G01*
X157778500Y-91440000D02*
G75*
G02*
X157978500Y-91440000I100000J0D01*
G01*
%TO.C,J2*%
D13*
X156108400Y-118059000D02*
X171602400Y-118059000D01*
X156108400Y-124917000D02*
X156108400Y-118059000D01*
X171602400Y-118059000D02*
X171602400Y-124917000D01*
X171602400Y-124917000D02*
X156108400Y-124917000D01*
D14*
X155600400Y-122250000D02*
G75*
G02*
X154838400Y-122250000I-381000J0D01*
G01*
X154838400Y-122250000D02*
G75*
G02*
X155600400Y-122250000I381000J0D01*
G01*
%TD*%
M02*
