%TF.GenerationSoftware,KiCad,Pcbnew,10.0.1*%
%TF.CreationDate,2026-04-27T10:02:58-04:00*%
%TF.ProjectId,garagelights,67617261-6765-46c6-9967-6874732e6b69,rev?*%
%TF.SameCoordinates,Original*%
%TF.FileFunction,Legend,Top*%
%TF.FilePolarity,Positive*%
%FSLAX46Y46*%
G04 Gerber Fmt 4.6, Leading zero omitted, Abs format (unit mm)*
G04 Created by KiCad (PCBNEW 10.0.1) date 2026-04-27 10:02:58*
%MOMM*%
%LPD*%
G01*
G04 APERTURE LIST*
%ADD10C,0.100000*%
%ADD11C,0.300000*%
%ADD12C,0.150000*%
%ADD13C,0.120000*%
%ADD14C,0.152400*%
%ADD15C,0.127000*%
%ADD16C,0.508000*%
G04 APERTURE END LIST*
D10*
X131542455Y-85597419D02*
X131542455Y-84597419D01*
X131542455Y-85549800D02*
X131447217Y-85597419D01*
X131447217Y-85597419D02*
X131256741Y-85597419D01*
X131256741Y-85597419D02*
X131161503Y-85549800D01*
X131161503Y-85549800D02*
X131113884Y-85502180D01*
X131113884Y-85502180D02*
X131066265Y-85406942D01*
X131066265Y-85406942D02*
X131066265Y-85121228D01*
X131066265Y-85121228D02*
X131113884Y-85025990D01*
X131113884Y-85025990D02*
X131161503Y-84978371D01*
X131161503Y-84978371D02*
X131256741Y-84930752D01*
X131256741Y-84930752D02*
X131447217Y-84930752D01*
X131447217Y-84930752D02*
X131542455Y-84978371D01*
X132399598Y-85549800D02*
X132304360Y-85597419D01*
X132304360Y-85597419D02*
X132113884Y-85597419D01*
X132113884Y-85597419D02*
X132018646Y-85549800D01*
X132018646Y-85549800D02*
X131971027Y-85454561D01*
X131971027Y-85454561D02*
X131971027Y-85073609D01*
X131971027Y-85073609D02*
X132018646Y-84978371D01*
X132018646Y-84978371D02*
X132113884Y-84930752D01*
X132113884Y-84930752D02*
X132304360Y-84930752D01*
X132304360Y-84930752D02*
X132399598Y-84978371D01*
X132399598Y-84978371D02*
X132447217Y-85073609D01*
X132447217Y-85073609D02*
X132447217Y-85168847D01*
X132447217Y-85168847D02*
X131971027Y-85264085D01*
X133542456Y-84597419D02*
X133780551Y-85597419D01*
X133780551Y-85597419D02*
X133971027Y-84883133D01*
X133971027Y-84883133D02*
X134161503Y-85597419D01*
X134161503Y-85597419D02*
X134399599Y-84597419D01*
X135304360Y-85597419D02*
X134732932Y-85597419D01*
X135018646Y-85597419D02*
X135018646Y-84597419D01*
X135018646Y-84597419D02*
X134923408Y-84740276D01*
X134923408Y-84740276D02*
X134828170Y-84835514D01*
X134828170Y-84835514D02*
X134732932Y-84883133D01*
X136304360Y-85502180D02*
X136256741Y-85549800D01*
X136256741Y-85549800D02*
X136113884Y-85597419D01*
X136113884Y-85597419D02*
X136018646Y-85597419D01*
X136018646Y-85597419D02*
X135875789Y-85549800D01*
X135875789Y-85549800D02*
X135780551Y-85454561D01*
X135780551Y-85454561D02*
X135732932Y-85359323D01*
X135732932Y-85359323D02*
X135685313Y-85168847D01*
X135685313Y-85168847D02*
X135685313Y-85025990D01*
X135685313Y-85025990D02*
X135732932Y-84835514D01*
X135732932Y-84835514D02*
X135780551Y-84740276D01*
X135780551Y-84740276D02*
X135875789Y-84645038D01*
X135875789Y-84645038D02*
X136018646Y-84597419D01*
X136018646Y-84597419D02*
X136113884Y-84597419D01*
X136113884Y-84597419D02*
X136256741Y-84645038D01*
X136256741Y-84645038D02*
X136304360Y-84692657D01*
X136732932Y-85597419D02*
X136732932Y-84597419D01*
X136732932Y-84597419D02*
X137066265Y-85311704D01*
X137066265Y-85311704D02*
X137399598Y-84597419D01*
X137399598Y-84597419D02*
X137399598Y-85597419D01*
X138447217Y-85502180D02*
X138399598Y-85549800D01*
X138399598Y-85549800D02*
X138256741Y-85597419D01*
X138256741Y-85597419D02*
X138161503Y-85597419D01*
X138161503Y-85597419D02*
X138018646Y-85549800D01*
X138018646Y-85549800D02*
X137923408Y-85454561D01*
X137923408Y-85454561D02*
X137875789Y-85359323D01*
X137875789Y-85359323D02*
X137828170Y-85168847D01*
X137828170Y-85168847D02*
X137828170Y-85025990D01*
X137828170Y-85025990D02*
X137875789Y-84835514D01*
X137875789Y-84835514D02*
X137923408Y-84740276D01*
X137923408Y-84740276D02*
X138018646Y-84645038D01*
X138018646Y-84645038D02*
X138161503Y-84597419D01*
X138161503Y-84597419D02*
X138256741Y-84597419D01*
X138256741Y-84597419D02*
X138399598Y-84645038D01*
X138399598Y-84645038D02*
X138447217Y-84692657D01*
X136082693Y-109410038D02*
X135987455Y-109362419D01*
X135987455Y-109362419D02*
X135844598Y-109362419D01*
X135844598Y-109362419D02*
X135701741Y-109410038D01*
X135701741Y-109410038D02*
X135606503Y-109505276D01*
X135606503Y-109505276D02*
X135558884Y-109600514D01*
X135558884Y-109600514D02*
X135511265Y-109790990D01*
X135511265Y-109790990D02*
X135511265Y-109933847D01*
X135511265Y-109933847D02*
X135558884Y-110124323D01*
X135558884Y-110124323D02*
X135606503Y-110219561D01*
X135606503Y-110219561D02*
X135701741Y-110314800D01*
X135701741Y-110314800D02*
X135844598Y-110362419D01*
X135844598Y-110362419D02*
X135939836Y-110362419D01*
X135939836Y-110362419D02*
X136082693Y-110314800D01*
X136082693Y-110314800D02*
X136130312Y-110267180D01*
X136130312Y-110267180D02*
X136130312Y-109933847D01*
X136130312Y-109933847D02*
X135939836Y-109933847D01*
X137130312Y-110362419D02*
X136796979Y-109886228D01*
X136558884Y-110362419D02*
X136558884Y-109362419D01*
X136558884Y-109362419D02*
X136939836Y-109362419D01*
X136939836Y-109362419D02*
X137035074Y-109410038D01*
X137035074Y-109410038D02*
X137082693Y-109457657D01*
X137082693Y-109457657D02*
X137130312Y-109552895D01*
X137130312Y-109552895D02*
X137130312Y-109695752D01*
X137130312Y-109695752D02*
X137082693Y-109790990D01*
X137082693Y-109790990D02*
X137035074Y-109838609D01*
X137035074Y-109838609D02*
X136939836Y-109886228D01*
X136939836Y-109886228D02*
X136558884Y-109886228D01*
X137558884Y-109838609D02*
X137892217Y-109838609D01*
X138035074Y-110362419D02*
X137558884Y-110362419D01*
X137558884Y-110362419D02*
X137558884Y-109362419D01*
X137558884Y-109362419D02*
X138035074Y-109362419D01*
X138463646Y-109838609D02*
X138796979Y-109838609D01*
X138939836Y-110362419D02*
X138463646Y-110362419D01*
X138463646Y-110362419D02*
X138463646Y-109362419D01*
X138463646Y-109362419D02*
X138939836Y-109362419D01*
X139368408Y-110362419D02*
X139368408Y-109362419D01*
X139368408Y-109362419D02*
X139939836Y-110362419D01*
X139939836Y-110362419D02*
X139939836Y-109362419D01*
X195173063Y-97645355D02*
X194839730Y-97169164D01*
X194601635Y-97645355D02*
X194601635Y-96645355D01*
X194601635Y-96645355D02*
X194982587Y-96645355D01*
X194982587Y-96645355D02*
X195077825Y-96692974D01*
X195077825Y-96692974D02*
X195125444Y-96740593D01*
X195125444Y-96740593D02*
X195173063Y-96835831D01*
X195173063Y-96835831D02*
X195173063Y-96978688D01*
X195173063Y-96978688D02*
X195125444Y-97073926D01*
X195125444Y-97073926D02*
X195077825Y-97121545D01*
X195077825Y-97121545D02*
X194982587Y-97169164D01*
X194982587Y-97169164D02*
X194601635Y-97169164D01*
X195601635Y-97121545D02*
X195934968Y-97121545D01*
X196077825Y-97645355D02*
X195601635Y-97645355D01*
X195601635Y-97645355D02*
X195601635Y-96645355D01*
X195601635Y-96645355D02*
X196077825Y-96645355D01*
X196506397Y-97645355D02*
X196506397Y-96645355D01*
X196506397Y-96645355D02*
X196744492Y-96645355D01*
X196744492Y-96645355D02*
X196887349Y-96692974D01*
X196887349Y-96692974D02*
X196982587Y-96788212D01*
X196982587Y-96788212D02*
X197030206Y-96883450D01*
X197030206Y-96883450D02*
X197077825Y-97073926D01*
X197077825Y-97073926D02*
X197077825Y-97216783D01*
X197077825Y-97216783D02*
X197030206Y-97407259D01*
X197030206Y-97407259D02*
X196982587Y-97502497D01*
X196982587Y-97502497D02*
X196887349Y-97597736D01*
X196887349Y-97597736D02*
X196744492Y-97645355D01*
X196744492Y-97645355D02*
X196506397Y-97645355D01*
X158876466Y-128220115D02*
X158876466Y-127458211D01*
X159257419Y-127839163D02*
X158495514Y-127839163D01*
X159257419Y-126458211D02*
X159257419Y-127029639D01*
X159257419Y-126743925D02*
X158257419Y-126743925D01*
X158257419Y-126743925D02*
X158400276Y-126839163D01*
X158400276Y-126839163D02*
X158495514Y-126934401D01*
X158495514Y-126934401D02*
X158543133Y-127029639D01*
X158352657Y-126077258D02*
X158305038Y-126029639D01*
X158305038Y-126029639D02*
X158257419Y-125934401D01*
X158257419Y-125934401D02*
X158257419Y-125696306D01*
X158257419Y-125696306D02*
X158305038Y-125601068D01*
X158305038Y-125601068D02*
X158352657Y-125553449D01*
X158352657Y-125553449D02*
X158447895Y-125505830D01*
X158447895Y-125505830D02*
X158543133Y-125505830D01*
X158543133Y-125505830D02*
X158685990Y-125553449D01*
X158685990Y-125553449D02*
X159257419Y-126124877D01*
X159257419Y-126124877D02*
X159257419Y-125505830D01*
X158257419Y-125220115D02*
X159257419Y-124886782D01*
X159257419Y-124886782D02*
X158257419Y-124553449D01*
X159575038Y-95438306D02*
X159527419Y-95533544D01*
X159527419Y-95533544D02*
X159527419Y-95676401D01*
X159527419Y-95676401D02*
X159575038Y-95819258D01*
X159575038Y-95819258D02*
X159670276Y-95914496D01*
X159670276Y-95914496D02*
X159765514Y-95962115D01*
X159765514Y-95962115D02*
X159955990Y-96009734D01*
X159955990Y-96009734D02*
X160098847Y-96009734D01*
X160098847Y-96009734D02*
X160289323Y-95962115D01*
X160289323Y-95962115D02*
X160384561Y-95914496D01*
X160384561Y-95914496D02*
X160479800Y-95819258D01*
X160479800Y-95819258D02*
X160527419Y-95676401D01*
X160527419Y-95676401D02*
X160527419Y-95581163D01*
X160527419Y-95581163D02*
X160479800Y-95438306D01*
X160479800Y-95438306D02*
X160432180Y-95390687D01*
X160432180Y-95390687D02*
X160098847Y-95390687D01*
X160098847Y-95390687D02*
X160098847Y-95581163D01*
X160527419Y-94962115D02*
X159527419Y-94962115D01*
X159527419Y-94962115D02*
X160527419Y-94390687D01*
X160527419Y-94390687D02*
X159527419Y-94390687D01*
X160527419Y-93914496D02*
X159527419Y-93914496D01*
X159527419Y-93914496D02*
X159527419Y-93676401D01*
X159527419Y-93676401D02*
X159575038Y-93533544D01*
X159575038Y-93533544D02*
X159670276Y-93438306D01*
X159670276Y-93438306D02*
X159765514Y-93390687D01*
X159765514Y-93390687D02*
X159955990Y-93343068D01*
X159955990Y-93343068D02*
X160098847Y-93343068D01*
X160098847Y-93343068D02*
X160289323Y-93390687D01*
X160289323Y-93390687D02*
X160384561Y-93438306D01*
X160384561Y-93438306D02*
X160479800Y-93533544D01*
X160479800Y-93533544D02*
X160527419Y-93676401D01*
X160527419Y-93676401D02*
X160527419Y-93914496D01*
X161797419Y-127204115D02*
X160797419Y-127204115D01*
X160797419Y-127204115D02*
X161797419Y-126632687D01*
X161797419Y-126632687D02*
X160797419Y-126632687D01*
X160749800Y-125442211D02*
X162035514Y-126299353D01*
X161702180Y-124537449D02*
X161749800Y-124585068D01*
X161749800Y-124585068D02*
X161797419Y-124727925D01*
X161797419Y-124727925D02*
X161797419Y-124823163D01*
X161797419Y-124823163D02*
X161749800Y-124966020D01*
X161749800Y-124966020D02*
X161654561Y-125061258D01*
X161654561Y-125061258D02*
X161559323Y-125108877D01*
X161559323Y-125108877D02*
X161368847Y-125156496D01*
X161368847Y-125156496D02*
X161225990Y-125156496D01*
X161225990Y-125156496D02*
X161035514Y-125108877D01*
X161035514Y-125108877D02*
X160940276Y-125061258D01*
X160940276Y-125061258D02*
X160845038Y-124966020D01*
X160845038Y-124966020D02*
X160797419Y-124823163D01*
X160797419Y-124823163D02*
X160797419Y-124727925D01*
X160797419Y-124727925D02*
X160845038Y-124585068D01*
X160845038Y-124585068D02*
X160892657Y-124537449D01*
X162543609Y-96978115D02*
X162543609Y-96644782D01*
X163067419Y-96501925D02*
X163067419Y-96978115D01*
X163067419Y-96978115D02*
X162067419Y-96978115D01*
X162067419Y-96978115D02*
X162067419Y-96501925D01*
X162972180Y-95501925D02*
X163019800Y-95549544D01*
X163019800Y-95549544D02*
X163067419Y-95692401D01*
X163067419Y-95692401D02*
X163067419Y-95787639D01*
X163067419Y-95787639D02*
X163019800Y-95930496D01*
X163019800Y-95930496D02*
X162924561Y-96025734D01*
X162924561Y-96025734D02*
X162829323Y-96073353D01*
X162829323Y-96073353D02*
X162638847Y-96120972D01*
X162638847Y-96120972D02*
X162495990Y-96120972D01*
X162495990Y-96120972D02*
X162305514Y-96073353D01*
X162305514Y-96073353D02*
X162210276Y-96025734D01*
X162210276Y-96025734D02*
X162115038Y-95930496D01*
X162115038Y-95930496D02*
X162067419Y-95787639D01*
X162067419Y-95787639D02*
X162067419Y-95692401D01*
X162067419Y-95692401D02*
X162115038Y-95549544D01*
X162115038Y-95549544D02*
X162162657Y-95501925D01*
X163067419Y-95073353D02*
X162067419Y-95073353D01*
X162543609Y-95073353D02*
X162543609Y-94501925D01*
X163067419Y-94501925D02*
X162067419Y-94501925D01*
X162067419Y-93835258D02*
X162067419Y-93644782D01*
X162067419Y-93644782D02*
X162115038Y-93549544D01*
X162115038Y-93549544D02*
X162210276Y-93454306D01*
X162210276Y-93454306D02*
X162400752Y-93406687D01*
X162400752Y-93406687D02*
X162734085Y-93406687D01*
X162734085Y-93406687D02*
X162924561Y-93454306D01*
X162924561Y-93454306D02*
X163019800Y-93549544D01*
X163019800Y-93549544D02*
X163067419Y-93644782D01*
X163067419Y-93644782D02*
X163067419Y-93835258D01*
X163067419Y-93835258D02*
X163019800Y-93930496D01*
X163019800Y-93930496D02*
X162924561Y-94025734D01*
X162924561Y-94025734D02*
X162734085Y-94073353D01*
X162734085Y-94073353D02*
X162400752Y-94073353D01*
X162400752Y-94073353D02*
X162210276Y-94025734D01*
X162210276Y-94025734D02*
X162115038Y-93930496D01*
X162115038Y-93930496D02*
X162067419Y-93835258D01*
X163385038Y-128458306D02*
X163337419Y-128553544D01*
X163337419Y-128553544D02*
X163337419Y-128696401D01*
X163337419Y-128696401D02*
X163385038Y-128839258D01*
X163385038Y-128839258D02*
X163480276Y-128934496D01*
X163480276Y-128934496D02*
X163575514Y-128982115D01*
X163575514Y-128982115D02*
X163765990Y-129029734D01*
X163765990Y-129029734D02*
X163908847Y-129029734D01*
X163908847Y-129029734D02*
X164099323Y-128982115D01*
X164099323Y-128982115D02*
X164194561Y-128934496D01*
X164194561Y-128934496D02*
X164289800Y-128839258D01*
X164289800Y-128839258D02*
X164337419Y-128696401D01*
X164337419Y-128696401D02*
X164337419Y-128601163D01*
X164337419Y-128601163D02*
X164289800Y-128458306D01*
X164289800Y-128458306D02*
X164242180Y-128410687D01*
X164242180Y-128410687D02*
X163908847Y-128410687D01*
X163908847Y-128410687D02*
X163908847Y-128601163D01*
X164337419Y-127410687D02*
X163861228Y-127744020D01*
X164337419Y-127982115D02*
X163337419Y-127982115D01*
X163337419Y-127982115D02*
X163337419Y-127601163D01*
X163337419Y-127601163D02*
X163385038Y-127505925D01*
X163385038Y-127505925D02*
X163432657Y-127458306D01*
X163432657Y-127458306D02*
X163527895Y-127410687D01*
X163527895Y-127410687D02*
X163670752Y-127410687D01*
X163670752Y-127410687D02*
X163765990Y-127458306D01*
X163765990Y-127458306D02*
X163813609Y-127505925D01*
X163813609Y-127505925D02*
X163861228Y-127601163D01*
X163861228Y-127601163D02*
X163861228Y-127982115D01*
X163813609Y-126982115D02*
X163813609Y-126648782D01*
X164337419Y-126505925D02*
X164337419Y-126982115D01*
X164337419Y-126982115D02*
X163337419Y-126982115D01*
X163337419Y-126982115D02*
X163337419Y-126505925D01*
X163813609Y-126077353D02*
X163813609Y-125744020D01*
X164337419Y-125601163D02*
X164337419Y-126077353D01*
X164337419Y-126077353D02*
X163337419Y-126077353D01*
X163337419Y-126077353D02*
X163337419Y-125601163D01*
X164337419Y-125172591D02*
X163337419Y-125172591D01*
X163337419Y-125172591D02*
X164337419Y-124601163D01*
X164337419Y-124601163D02*
X163337419Y-124601163D01*
X163059800Y-129120211D02*
X163059800Y-124463068D01*
X164607419Y-96358972D02*
X164607419Y-95787544D01*
X165607419Y-96073258D02*
X164607419Y-96073258D01*
X165607419Y-94882782D02*
X165131228Y-95216115D01*
X165607419Y-95454210D02*
X164607419Y-95454210D01*
X164607419Y-95454210D02*
X164607419Y-95073258D01*
X164607419Y-95073258D02*
X164655038Y-94978020D01*
X164655038Y-94978020D02*
X164702657Y-94930401D01*
X164702657Y-94930401D02*
X164797895Y-94882782D01*
X164797895Y-94882782D02*
X164940752Y-94882782D01*
X164940752Y-94882782D02*
X165035990Y-94930401D01*
X165035990Y-94930401D02*
X165083609Y-94978020D01*
X165083609Y-94978020D02*
X165131228Y-95073258D01*
X165131228Y-95073258D02*
X165131228Y-95454210D01*
X165607419Y-94454210D02*
X164607419Y-94454210D01*
X164655038Y-93454211D02*
X164607419Y-93549449D01*
X164607419Y-93549449D02*
X164607419Y-93692306D01*
X164607419Y-93692306D02*
X164655038Y-93835163D01*
X164655038Y-93835163D02*
X164750276Y-93930401D01*
X164750276Y-93930401D02*
X164845514Y-93978020D01*
X164845514Y-93978020D02*
X165035990Y-94025639D01*
X165035990Y-94025639D02*
X165178847Y-94025639D01*
X165178847Y-94025639D02*
X165369323Y-93978020D01*
X165369323Y-93978020D02*
X165464561Y-93930401D01*
X165464561Y-93930401D02*
X165559800Y-93835163D01*
X165559800Y-93835163D02*
X165607419Y-93692306D01*
X165607419Y-93692306D02*
X165607419Y-93597068D01*
X165607419Y-93597068D02*
X165559800Y-93454211D01*
X165559800Y-93454211D02*
X165512180Y-93406592D01*
X165512180Y-93406592D02*
X165178847Y-93406592D01*
X165178847Y-93406592D02*
X165178847Y-93597068D01*
X166401228Y-129426639D02*
X166877419Y-129426639D01*
X165877419Y-129759972D02*
X166401228Y-129426639D01*
X166401228Y-129426639D02*
X165877419Y-129093306D01*
X166353609Y-128759972D02*
X166353609Y-128426639D01*
X166877419Y-128283782D02*
X166877419Y-128759972D01*
X166877419Y-128759972D02*
X165877419Y-128759972D01*
X165877419Y-128759972D02*
X165877419Y-128283782D01*
X166877419Y-127379020D02*
X166877419Y-127855210D01*
X166877419Y-127855210D02*
X165877419Y-127855210D01*
X166877419Y-126569496D02*
X166877419Y-127045686D01*
X166877419Y-127045686D02*
X165877419Y-127045686D01*
X165877419Y-126045686D02*
X165877419Y-125855210D01*
X165877419Y-125855210D02*
X165925038Y-125759972D01*
X165925038Y-125759972D02*
X166020276Y-125664734D01*
X166020276Y-125664734D02*
X166210752Y-125617115D01*
X166210752Y-125617115D02*
X166544085Y-125617115D01*
X166544085Y-125617115D02*
X166734561Y-125664734D01*
X166734561Y-125664734D02*
X166829800Y-125759972D01*
X166829800Y-125759972D02*
X166877419Y-125855210D01*
X166877419Y-125855210D02*
X166877419Y-126045686D01*
X166877419Y-126045686D02*
X166829800Y-126140924D01*
X166829800Y-126140924D02*
X166734561Y-126236162D01*
X166734561Y-126236162D02*
X166544085Y-126283781D01*
X166544085Y-126283781D02*
X166210752Y-126283781D01*
X166210752Y-126283781D02*
X166020276Y-126236162D01*
X166020276Y-126236162D02*
X165925038Y-126140924D01*
X165925038Y-126140924D02*
X165877419Y-126045686D01*
X165877419Y-125283781D02*
X166877419Y-125045686D01*
X166877419Y-125045686D02*
X166163133Y-124855210D01*
X166163133Y-124855210D02*
X166877419Y-124664734D01*
X166877419Y-124664734D02*
X165877419Y-124426639D01*
X165599800Y-129755211D02*
X165599800Y-124383782D01*
X167147419Y-96104972D02*
X168147419Y-95771639D01*
X168147419Y-95771639D02*
X167147419Y-95438306D01*
X168052180Y-94533544D02*
X168099800Y-94581163D01*
X168099800Y-94581163D02*
X168147419Y-94724020D01*
X168147419Y-94724020D02*
X168147419Y-94819258D01*
X168147419Y-94819258D02*
X168099800Y-94962115D01*
X168099800Y-94962115D02*
X168004561Y-95057353D01*
X168004561Y-95057353D02*
X167909323Y-95104972D01*
X167909323Y-95104972D02*
X167718847Y-95152591D01*
X167718847Y-95152591D02*
X167575990Y-95152591D01*
X167575990Y-95152591D02*
X167385514Y-95104972D01*
X167385514Y-95104972D02*
X167290276Y-95057353D01*
X167290276Y-95057353D02*
X167195038Y-94962115D01*
X167195038Y-94962115D02*
X167147419Y-94819258D01*
X167147419Y-94819258D02*
X167147419Y-94724020D01*
X167147419Y-94724020D02*
X167195038Y-94581163D01*
X167195038Y-94581163D02*
X167242657Y-94533544D01*
X168052180Y-93533544D02*
X168099800Y-93581163D01*
X168099800Y-93581163D02*
X168147419Y-93724020D01*
X168147419Y-93724020D02*
X168147419Y-93819258D01*
X168147419Y-93819258D02*
X168099800Y-93962115D01*
X168099800Y-93962115D02*
X168004561Y-94057353D01*
X168004561Y-94057353D02*
X167909323Y-94104972D01*
X167909323Y-94104972D02*
X167718847Y-94152591D01*
X167718847Y-94152591D02*
X167575990Y-94152591D01*
X167575990Y-94152591D02*
X167385514Y-94104972D01*
X167385514Y-94104972D02*
X167290276Y-94057353D01*
X167290276Y-94057353D02*
X167195038Y-93962115D01*
X167195038Y-93962115D02*
X167147419Y-93819258D01*
X167147419Y-93819258D02*
X167147419Y-93724020D01*
X167147419Y-93724020D02*
X167195038Y-93581163D01*
X167195038Y-93581163D02*
X167242657Y-93533544D01*
X169417419Y-126378687D02*
X168941228Y-126712020D01*
X169417419Y-126950115D02*
X168417419Y-126950115D01*
X168417419Y-126950115D02*
X168417419Y-126569163D01*
X168417419Y-126569163D02*
X168465038Y-126473925D01*
X168465038Y-126473925D02*
X168512657Y-126426306D01*
X168512657Y-126426306D02*
X168607895Y-126378687D01*
X168607895Y-126378687D02*
X168750752Y-126378687D01*
X168750752Y-126378687D02*
X168845990Y-126426306D01*
X168845990Y-126426306D02*
X168893609Y-126473925D01*
X168893609Y-126473925D02*
X168941228Y-126569163D01*
X168941228Y-126569163D02*
X168941228Y-126950115D01*
X168893609Y-125950115D02*
X168893609Y-125616782D01*
X169417419Y-125473925D02*
X169417419Y-125950115D01*
X169417419Y-125950115D02*
X168417419Y-125950115D01*
X168417419Y-125950115D02*
X168417419Y-125473925D01*
X169417419Y-125045353D02*
X168417419Y-125045353D01*
X168417419Y-125045353D02*
X168417419Y-124807258D01*
X168417419Y-124807258D02*
X168465038Y-124664401D01*
X168465038Y-124664401D02*
X168560276Y-124569163D01*
X168560276Y-124569163D02*
X168655514Y-124521544D01*
X168655514Y-124521544D02*
X168845990Y-124473925D01*
X168845990Y-124473925D02*
X168988847Y-124473925D01*
X168988847Y-124473925D02*
X169179323Y-124521544D01*
X169179323Y-124521544D02*
X169274561Y-124569163D01*
X169274561Y-124569163D02*
X169369800Y-124664401D01*
X169369800Y-124664401D02*
X169417419Y-124807258D01*
X169417419Y-124807258D02*
X169417419Y-125045353D01*
X168139800Y-127088211D02*
X168139800Y-124383449D01*
D11*
X153740225Y-138707257D02*
X153597368Y-138635828D01*
X153597368Y-138635828D02*
X153383082Y-138635828D01*
X153383082Y-138635828D02*
X153168796Y-138707257D01*
X153168796Y-138707257D02*
X153025939Y-138850114D01*
X153025939Y-138850114D02*
X152954510Y-138992971D01*
X152954510Y-138992971D02*
X152883082Y-139278685D01*
X152883082Y-139278685D02*
X152883082Y-139492971D01*
X152883082Y-139492971D02*
X152954510Y-139778685D01*
X152954510Y-139778685D02*
X153025939Y-139921542D01*
X153025939Y-139921542D02*
X153168796Y-140064400D01*
X153168796Y-140064400D02*
X153383082Y-140135828D01*
X153383082Y-140135828D02*
X153525939Y-140135828D01*
X153525939Y-140135828D02*
X153740225Y-140064400D01*
X153740225Y-140064400D02*
X153811653Y-139992971D01*
X153811653Y-139992971D02*
X153811653Y-139492971D01*
X153811653Y-139492971D02*
X153525939Y-139492971D01*
X155097368Y-140135828D02*
X155097368Y-139350114D01*
X155097368Y-139350114D02*
X155025939Y-139207257D01*
X155025939Y-139207257D02*
X154883082Y-139135828D01*
X154883082Y-139135828D02*
X154597368Y-139135828D01*
X154597368Y-139135828D02*
X154454510Y-139207257D01*
X155097368Y-140064400D02*
X154954510Y-140135828D01*
X154954510Y-140135828D02*
X154597368Y-140135828D01*
X154597368Y-140135828D02*
X154454510Y-140064400D01*
X154454510Y-140064400D02*
X154383082Y-139921542D01*
X154383082Y-139921542D02*
X154383082Y-139778685D01*
X154383082Y-139778685D02*
X154454510Y-139635828D01*
X154454510Y-139635828D02*
X154597368Y-139564400D01*
X154597368Y-139564400D02*
X154954510Y-139564400D01*
X154954510Y-139564400D02*
X155097368Y-139492971D01*
X155811653Y-140135828D02*
X155811653Y-139135828D01*
X155811653Y-139421542D02*
X155883082Y-139278685D01*
X155883082Y-139278685D02*
X155954511Y-139207257D01*
X155954511Y-139207257D02*
X156097368Y-139135828D01*
X156097368Y-139135828D02*
X156240225Y-139135828D01*
X157383082Y-140135828D02*
X157383082Y-139350114D01*
X157383082Y-139350114D02*
X157311653Y-139207257D01*
X157311653Y-139207257D02*
X157168796Y-139135828D01*
X157168796Y-139135828D02*
X156883082Y-139135828D01*
X156883082Y-139135828D02*
X156740224Y-139207257D01*
X157383082Y-140064400D02*
X157240224Y-140135828D01*
X157240224Y-140135828D02*
X156883082Y-140135828D01*
X156883082Y-140135828D02*
X156740224Y-140064400D01*
X156740224Y-140064400D02*
X156668796Y-139921542D01*
X156668796Y-139921542D02*
X156668796Y-139778685D01*
X156668796Y-139778685D02*
X156740224Y-139635828D01*
X156740224Y-139635828D02*
X156883082Y-139564400D01*
X156883082Y-139564400D02*
X157240224Y-139564400D01*
X157240224Y-139564400D02*
X157383082Y-139492971D01*
X158740225Y-139135828D02*
X158740225Y-140350114D01*
X158740225Y-140350114D02*
X158668796Y-140492971D01*
X158668796Y-140492971D02*
X158597367Y-140564400D01*
X158597367Y-140564400D02*
X158454510Y-140635828D01*
X158454510Y-140635828D02*
X158240225Y-140635828D01*
X158240225Y-140635828D02*
X158097367Y-140564400D01*
X158740225Y-140064400D02*
X158597367Y-140135828D01*
X158597367Y-140135828D02*
X158311653Y-140135828D01*
X158311653Y-140135828D02*
X158168796Y-140064400D01*
X158168796Y-140064400D02*
X158097367Y-139992971D01*
X158097367Y-139992971D02*
X158025939Y-139850114D01*
X158025939Y-139850114D02*
X158025939Y-139421542D01*
X158025939Y-139421542D02*
X158097367Y-139278685D01*
X158097367Y-139278685D02*
X158168796Y-139207257D01*
X158168796Y-139207257D02*
X158311653Y-139135828D01*
X158311653Y-139135828D02*
X158597367Y-139135828D01*
X158597367Y-139135828D02*
X158740225Y-139207257D01*
X160025939Y-140064400D02*
X159883082Y-140135828D01*
X159883082Y-140135828D02*
X159597368Y-140135828D01*
X159597368Y-140135828D02*
X159454510Y-140064400D01*
X159454510Y-140064400D02*
X159383082Y-139921542D01*
X159383082Y-139921542D02*
X159383082Y-139350114D01*
X159383082Y-139350114D02*
X159454510Y-139207257D01*
X159454510Y-139207257D02*
X159597368Y-139135828D01*
X159597368Y-139135828D02*
X159883082Y-139135828D01*
X159883082Y-139135828D02*
X160025939Y-139207257D01*
X160025939Y-139207257D02*
X160097368Y-139350114D01*
X160097368Y-139350114D02*
X160097368Y-139492971D01*
X160097368Y-139492971D02*
X159383082Y-139635828D01*
X162597367Y-140135828D02*
X161883081Y-140135828D01*
X161883081Y-140135828D02*
X161883081Y-138635828D01*
X163097367Y-140135828D02*
X163097367Y-139135828D01*
X163097367Y-138635828D02*
X163025939Y-138707257D01*
X163025939Y-138707257D02*
X163097367Y-138778685D01*
X163097367Y-138778685D02*
X163168796Y-138707257D01*
X163168796Y-138707257D02*
X163097367Y-138635828D01*
X163097367Y-138635828D02*
X163097367Y-138778685D01*
X164454511Y-139135828D02*
X164454511Y-140350114D01*
X164454511Y-140350114D02*
X164383082Y-140492971D01*
X164383082Y-140492971D02*
X164311653Y-140564400D01*
X164311653Y-140564400D02*
X164168796Y-140635828D01*
X164168796Y-140635828D02*
X163954511Y-140635828D01*
X163954511Y-140635828D02*
X163811653Y-140564400D01*
X164454511Y-140064400D02*
X164311653Y-140135828D01*
X164311653Y-140135828D02*
X164025939Y-140135828D01*
X164025939Y-140135828D02*
X163883082Y-140064400D01*
X163883082Y-140064400D02*
X163811653Y-139992971D01*
X163811653Y-139992971D02*
X163740225Y-139850114D01*
X163740225Y-139850114D02*
X163740225Y-139421542D01*
X163740225Y-139421542D02*
X163811653Y-139278685D01*
X163811653Y-139278685D02*
X163883082Y-139207257D01*
X163883082Y-139207257D02*
X164025939Y-139135828D01*
X164025939Y-139135828D02*
X164311653Y-139135828D01*
X164311653Y-139135828D02*
X164454511Y-139207257D01*
X165168796Y-140135828D02*
X165168796Y-138635828D01*
X165811654Y-140135828D02*
X165811654Y-139350114D01*
X165811654Y-139350114D02*
X165740225Y-139207257D01*
X165740225Y-139207257D02*
X165597368Y-139135828D01*
X165597368Y-139135828D02*
X165383082Y-139135828D01*
X165383082Y-139135828D02*
X165240225Y-139207257D01*
X165240225Y-139207257D02*
X165168796Y-139278685D01*
X166311654Y-139135828D02*
X166883082Y-139135828D01*
X166525939Y-138635828D02*
X166525939Y-139921542D01*
X166525939Y-139921542D02*
X166597368Y-140064400D01*
X166597368Y-140064400D02*
X166740225Y-140135828D01*
X166740225Y-140135828D02*
X166883082Y-140135828D01*
X167311654Y-140064400D02*
X167454511Y-140135828D01*
X167454511Y-140135828D02*
X167740225Y-140135828D01*
X167740225Y-140135828D02*
X167883082Y-140064400D01*
X167883082Y-140064400D02*
X167954511Y-139921542D01*
X167954511Y-139921542D02*
X167954511Y-139850114D01*
X167954511Y-139850114D02*
X167883082Y-139707257D01*
X167883082Y-139707257D02*
X167740225Y-139635828D01*
X167740225Y-139635828D02*
X167525940Y-139635828D01*
X167525940Y-139635828D02*
X167383082Y-139564400D01*
X167383082Y-139564400D02*
X167311654Y-139421542D01*
X167311654Y-139421542D02*
X167311654Y-139350114D01*
X167311654Y-139350114D02*
X167383082Y-139207257D01*
X167383082Y-139207257D02*
X167525940Y-139135828D01*
X167525940Y-139135828D02*
X167740225Y-139135828D01*
X167740225Y-139135828D02*
X167883082Y-139207257D01*
X170597368Y-140135828D02*
X170097368Y-139421542D01*
X169740225Y-140135828D02*
X169740225Y-138635828D01*
X169740225Y-138635828D02*
X170311654Y-138635828D01*
X170311654Y-138635828D02*
X170454511Y-138707257D01*
X170454511Y-138707257D02*
X170525940Y-138778685D01*
X170525940Y-138778685D02*
X170597368Y-138921542D01*
X170597368Y-138921542D02*
X170597368Y-139135828D01*
X170597368Y-139135828D02*
X170525940Y-139278685D01*
X170525940Y-139278685D02*
X170454511Y-139350114D01*
X170454511Y-139350114D02*
X170311654Y-139421542D01*
X170311654Y-139421542D02*
X169740225Y-139421542D01*
X171811654Y-140064400D02*
X171668797Y-140135828D01*
X171668797Y-140135828D02*
X171383083Y-140135828D01*
X171383083Y-140135828D02*
X171240225Y-140064400D01*
X171240225Y-140064400D02*
X171168797Y-139921542D01*
X171168797Y-139921542D02*
X171168797Y-139350114D01*
X171168797Y-139350114D02*
X171240225Y-139207257D01*
X171240225Y-139207257D02*
X171383083Y-139135828D01*
X171383083Y-139135828D02*
X171668797Y-139135828D01*
X171668797Y-139135828D02*
X171811654Y-139207257D01*
X171811654Y-139207257D02*
X171883083Y-139350114D01*
X171883083Y-139350114D02*
X171883083Y-139492971D01*
X171883083Y-139492971D02*
X171168797Y-139635828D01*
X172383082Y-139135828D02*
X172740225Y-140135828D01*
X172740225Y-140135828D02*
X173097368Y-139135828D01*
X175311653Y-139350114D02*
X175525939Y-139421542D01*
X175525939Y-139421542D02*
X175597368Y-139492971D01*
X175597368Y-139492971D02*
X175668796Y-139635828D01*
X175668796Y-139635828D02*
X175668796Y-139850114D01*
X175668796Y-139850114D02*
X175597368Y-139992971D01*
X175597368Y-139992971D02*
X175525939Y-140064400D01*
X175525939Y-140064400D02*
X175383082Y-140135828D01*
X175383082Y-140135828D02*
X174811653Y-140135828D01*
X174811653Y-140135828D02*
X174811653Y-138635828D01*
X174811653Y-138635828D02*
X175311653Y-138635828D01*
X175311653Y-138635828D02*
X175454511Y-138707257D01*
X175454511Y-138707257D02*
X175525939Y-138778685D01*
X175525939Y-138778685D02*
X175597368Y-138921542D01*
X175597368Y-138921542D02*
X175597368Y-139064400D01*
X175597368Y-139064400D02*
X175525939Y-139207257D01*
X175525939Y-139207257D02*
X175454511Y-139278685D01*
X175454511Y-139278685D02*
X175311653Y-139350114D01*
X175311653Y-139350114D02*
X174811653Y-139350114D01*
D12*
X168819761Y-113685057D02*
X168724523Y-113637438D01*
X168724523Y-113637438D02*
X168629285Y-113542200D01*
X168629285Y-113542200D02*
X168486428Y-113399342D01*
X168486428Y-113399342D02*
X168391190Y-113351723D01*
X168391190Y-113351723D02*
X168295952Y-113351723D01*
X168343571Y-113589819D02*
X168248333Y-113542200D01*
X168248333Y-113542200D02*
X168153095Y-113446961D01*
X168153095Y-113446961D02*
X168105476Y-113256485D01*
X168105476Y-113256485D02*
X168105476Y-112923152D01*
X168105476Y-112923152D02*
X168153095Y-112732676D01*
X168153095Y-112732676D02*
X168248333Y-112637438D01*
X168248333Y-112637438D02*
X168343571Y-112589819D01*
X168343571Y-112589819D02*
X168534047Y-112589819D01*
X168534047Y-112589819D02*
X168629285Y-112637438D01*
X168629285Y-112637438D02*
X168724523Y-112732676D01*
X168724523Y-112732676D02*
X168772142Y-112923152D01*
X168772142Y-112923152D02*
X168772142Y-113256485D01*
X168772142Y-113256485D02*
X168724523Y-113446961D01*
X168724523Y-113446961D02*
X168629285Y-113542200D01*
X168629285Y-113542200D02*
X168534047Y-113589819D01*
X168534047Y-113589819D02*
X168343571Y-113589819D01*
X169105476Y-112589819D02*
X169724523Y-112589819D01*
X169724523Y-112589819D02*
X169391190Y-112970771D01*
X169391190Y-112970771D02*
X169534047Y-112970771D01*
X169534047Y-112970771D02*
X169629285Y-113018390D01*
X169629285Y-113018390D02*
X169676904Y-113066009D01*
X169676904Y-113066009D02*
X169724523Y-113161247D01*
X169724523Y-113161247D02*
X169724523Y-113399342D01*
X169724523Y-113399342D02*
X169676904Y-113494580D01*
X169676904Y-113494580D02*
X169629285Y-113542200D01*
X169629285Y-113542200D02*
X169534047Y-113589819D01*
X169534047Y-113589819D02*
X169248333Y-113589819D01*
X169248333Y-113589819D02*
X169153095Y-113542200D01*
X169153095Y-113542200D02*
X169105476Y-113494580D01*
X181929580Y-87161666D02*
X181977200Y-87209285D01*
X181977200Y-87209285D02*
X182024819Y-87352142D01*
X182024819Y-87352142D02*
X182024819Y-87447380D01*
X182024819Y-87447380D02*
X181977200Y-87590237D01*
X181977200Y-87590237D02*
X181881961Y-87685475D01*
X181881961Y-87685475D02*
X181786723Y-87733094D01*
X181786723Y-87733094D02*
X181596247Y-87780713D01*
X181596247Y-87780713D02*
X181453390Y-87780713D01*
X181453390Y-87780713D02*
X181262914Y-87733094D01*
X181262914Y-87733094D02*
X181167676Y-87685475D01*
X181167676Y-87685475D02*
X181072438Y-87590237D01*
X181072438Y-87590237D02*
X181024819Y-87447380D01*
X181024819Y-87447380D02*
X181024819Y-87352142D01*
X181024819Y-87352142D02*
X181072438Y-87209285D01*
X181072438Y-87209285D02*
X181120057Y-87161666D01*
X181358152Y-86304523D02*
X182024819Y-86304523D01*
X180977200Y-86542618D02*
X181691485Y-86780713D01*
X181691485Y-86780713D02*
X181691485Y-86161666D01*
X156609580Y-72397857D02*
X156657200Y-72445476D01*
X156657200Y-72445476D02*
X156704819Y-72588333D01*
X156704819Y-72588333D02*
X156704819Y-72683571D01*
X156704819Y-72683571D02*
X156657200Y-72826428D01*
X156657200Y-72826428D02*
X156561961Y-72921666D01*
X156561961Y-72921666D02*
X156466723Y-72969285D01*
X156466723Y-72969285D02*
X156276247Y-73016904D01*
X156276247Y-73016904D02*
X156133390Y-73016904D01*
X156133390Y-73016904D02*
X155942914Y-72969285D01*
X155942914Y-72969285D02*
X155847676Y-72921666D01*
X155847676Y-72921666D02*
X155752438Y-72826428D01*
X155752438Y-72826428D02*
X155704819Y-72683571D01*
X155704819Y-72683571D02*
X155704819Y-72588333D01*
X155704819Y-72588333D02*
X155752438Y-72445476D01*
X155752438Y-72445476D02*
X155800057Y-72397857D01*
X156704819Y-71445476D02*
X156704819Y-72016904D01*
X156704819Y-71731190D02*
X155704819Y-71731190D01*
X155704819Y-71731190D02*
X155847676Y-71826428D01*
X155847676Y-71826428D02*
X155942914Y-71921666D01*
X155942914Y-71921666D02*
X155990533Y-72016904D01*
X156704819Y-70493095D02*
X156704819Y-71064523D01*
X156704819Y-70778809D02*
X155704819Y-70778809D01*
X155704819Y-70778809D02*
X155847676Y-70874047D01*
X155847676Y-70874047D02*
X155942914Y-70969285D01*
X155942914Y-70969285D02*
X155990533Y-71064523D01*
X168267142Y-72749580D02*
X168219523Y-72797200D01*
X168219523Y-72797200D02*
X168076666Y-72844819D01*
X168076666Y-72844819D02*
X167981428Y-72844819D01*
X167981428Y-72844819D02*
X167838571Y-72797200D01*
X167838571Y-72797200D02*
X167743333Y-72701961D01*
X167743333Y-72701961D02*
X167695714Y-72606723D01*
X167695714Y-72606723D02*
X167648095Y-72416247D01*
X167648095Y-72416247D02*
X167648095Y-72273390D01*
X167648095Y-72273390D02*
X167695714Y-72082914D01*
X167695714Y-72082914D02*
X167743333Y-71987676D01*
X167743333Y-71987676D02*
X167838571Y-71892438D01*
X167838571Y-71892438D02*
X167981428Y-71844819D01*
X167981428Y-71844819D02*
X168076666Y-71844819D01*
X168076666Y-71844819D02*
X168219523Y-71892438D01*
X168219523Y-71892438D02*
X168267142Y-71940057D01*
X169219523Y-72844819D02*
X168648095Y-72844819D01*
X168933809Y-72844819D02*
X168933809Y-71844819D01*
X168933809Y-71844819D02*
X168838571Y-71987676D01*
X168838571Y-71987676D02*
X168743333Y-72082914D01*
X168743333Y-72082914D02*
X168648095Y-72130533D01*
X169600476Y-71940057D02*
X169648095Y-71892438D01*
X169648095Y-71892438D02*
X169743333Y-71844819D01*
X169743333Y-71844819D02*
X169981428Y-71844819D01*
X169981428Y-71844819D02*
X170076666Y-71892438D01*
X170076666Y-71892438D02*
X170124285Y-71940057D01*
X170124285Y-71940057D02*
X170171904Y-72035295D01*
X170171904Y-72035295D02*
X170171904Y-72130533D01*
X170171904Y-72130533D02*
X170124285Y-72273390D01*
X170124285Y-72273390D02*
X169552857Y-72844819D01*
X169552857Y-72844819D02*
X170171904Y-72844819D01*
X142073333Y-103859580D02*
X142025714Y-103907200D01*
X142025714Y-103907200D02*
X141882857Y-103954819D01*
X141882857Y-103954819D02*
X141787619Y-103954819D01*
X141787619Y-103954819D02*
X141644762Y-103907200D01*
X141644762Y-103907200D02*
X141549524Y-103811961D01*
X141549524Y-103811961D02*
X141501905Y-103716723D01*
X141501905Y-103716723D02*
X141454286Y-103526247D01*
X141454286Y-103526247D02*
X141454286Y-103383390D01*
X141454286Y-103383390D02*
X141501905Y-103192914D01*
X141501905Y-103192914D02*
X141549524Y-103097676D01*
X141549524Y-103097676D02*
X141644762Y-103002438D01*
X141644762Y-103002438D02*
X141787619Y-102954819D01*
X141787619Y-102954819D02*
X141882857Y-102954819D01*
X141882857Y-102954819D02*
X142025714Y-103002438D01*
X142025714Y-103002438D02*
X142073333Y-103050057D01*
X142978095Y-102954819D02*
X142501905Y-102954819D01*
X142501905Y-102954819D02*
X142454286Y-103431009D01*
X142454286Y-103431009D02*
X142501905Y-103383390D01*
X142501905Y-103383390D02*
X142597143Y-103335771D01*
X142597143Y-103335771D02*
X142835238Y-103335771D01*
X142835238Y-103335771D02*
X142930476Y-103383390D01*
X142930476Y-103383390D02*
X142978095Y-103431009D01*
X142978095Y-103431009D02*
X143025714Y-103526247D01*
X143025714Y-103526247D02*
X143025714Y-103764342D01*
X143025714Y-103764342D02*
X142978095Y-103859580D01*
X142978095Y-103859580D02*
X142930476Y-103907200D01*
X142930476Y-103907200D02*
X142835238Y-103954819D01*
X142835238Y-103954819D02*
X142597143Y-103954819D01*
X142597143Y-103954819D02*
X142501905Y-103907200D01*
X142501905Y-103907200D02*
X142454286Y-103859580D01*
X188622512Y-97592755D02*
X188289179Y-97116564D01*
X188051084Y-97592755D02*
X188051084Y-96592755D01*
X188051084Y-96592755D02*
X188432036Y-96592755D01*
X188432036Y-96592755D02*
X188527274Y-96640374D01*
X188527274Y-96640374D02*
X188574893Y-96687993D01*
X188574893Y-96687993D02*
X188622512Y-96783231D01*
X188622512Y-96783231D02*
X188622512Y-96926088D01*
X188622512Y-96926088D02*
X188574893Y-97021326D01*
X188574893Y-97021326D02*
X188527274Y-97068945D01*
X188527274Y-97068945D02*
X188432036Y-97116564D01*
X188432036Y-97116564D02*
X188051084Y-97116564D01*
X188908227Y-96592755D02*
X189241560Y-97592755D01*
X189241560Y-97592755D02*
X189574893Y-96592755D01*
X189860608Y-96687993D02*
X189908227Y-96640374D01*
X189908227Y-96640374D02*
X190003465Y-96592755D01*
X190003465Y-96592755D02*
X190241560Y-96592755D01*
X190241560Y-96592755D02*
X190336798Y-96640374D01*
X190336798Y-96640374D02*
X190384417Y-96687993D01*
X190384417Y-96687993D02*
X190432036Y-96783231D01*
X190432036Y-96783231D02*
X190432036Y-96878469D01*
X190432036Y-96878469D02*
X190384417Y-97021326D01*
X190384417Y-97021326D02*
X189812989Y-97592755D01*
X189812989Y-97592755D02*
X190432036Y-97592755D01*
X162379819Y-79478094D02*
X161379819Y-79478094D01*
X161379819Y-79478094D02*
X161379819Y-79239999D01*
X161379819Y-79239999D02*
X161427438Y-79097142D01*
X161427438Y-79097142D02*
X161522676Y-79001904D01*
X161522676Y-79001904D02*
X161617914Y-78954285D01*
X161617914Y-78954285D02*
X161808390Y-78906666D01*
X161808390Y-78906666D02*
X161951247Y-78906666D01*
X161951247Y-78906666D02*
X162141723Y-78954285D01*
X162141723Y-78954285D02*
X162236961Y-79001904D01*
X162236961Y-79001904D02*
X162332200Y-79097142D01*
X162332200Y-79097142D02*
X162379819Y-79239999D01*
X162379819Y-79239999D02*
X162379819Y-79478094D01*
X162379819Y-77954285D02*
X162379819Y-78525713D01*
X162379819Y-78239999D02*
X161379819Y-78239999D01*
X161379819Y-78239999D02*
X161522676Y-78335237D01*
X161522676Y-78335237D02*
X161617914Y-78430475D01*
X161617914Y-78430475D02*
X161665533Y-78525713D01*
X167513095Y-73632319D02*
X167513095Y-74441842D01*
X167513095Y-74441842D02*
X167560714Y-74537080D01*
X167560714Y-74537080D02*
X167608333Y-74584700D01*
X167608333Y-74584700D02*
X167703571Y-74632319D01*
X167703571Y-74632319D02*
X167894047Y-74632319D01*
X167894047Y-74632319D02*
X167989285Y-74584700D01*
X167989285Y-74584700D02*
X168036904Y-74537080D01*
X168036904Y-74537080D02*
X168084523Y-74441842D01*
X168084523Y-74441842D02*
X168084523Y-73632319D01*
X169084523Y-74632319D02*
X168513095Y-74632319D01*
X168798809Y-74632319D02*
X168798809Y-73632319D01*
X168798809Y-73632319D02*
X168703571Y-73775176D01*
X168703571Y-73775176D02*
X168608333Y-73870414D01*
X168608333Y-73870414D02*
X168513095Y-73918033D01*
X147672083Y-124084819D02*
X147672083Y-124799104D01*
X147672083Y-124799104D02*
X147624464Y-124941961D01*
X147624464Y-124941961D02*
X147529226Y-125037200D01*
X147529226Y-125037200D02*
X147386369Y-125084819D01*
X147386369Y-125084819D02*
X147291131Y-125084819D01*
X148053036Y-124084819D02*
X148672083Y-124084819D01*
X148672083Y-124084819D02*
X148338750Y-124465771D01*
X148338750Y-124465771D02*
X148481607Y-124465771D01*
X148481607Y-124465771D02*
X148576845Y-124513390D01*
X148576845Y-124513390D02*
X148624464Y-124561009D01*
X148624464Y-124561009D02*
X148672083Y-124656247D01*
X148672083Y-124656247D02*
X148672083Y-124894342D01*
X148672083Y-124894342D02*
X148624464Y-124989580D01*
X148624464Y-124989580D02*
X148576845Y-125037200D01*
X148576845Y-125037200D02*
X148481607Y-125084819D01*
X148481607Y-125084819D02*
X148195893Y-125084819D01*
X148195893Y-125084819D02*
X148100655Y-125037200D01*
X148100655Y-125037200D02*
X148053036Y-124989580D01*
X138263333Y-119434580D02*
X138215714Y-119482200D01*
X138215714Y-119482200D02*
X138072857Y-119529819D01*
X138072857Y-119529819D02*
X137977619Y-119529819D01*
X137977619Y-119529819D02*
X137834762Y-119482200D01*
X137834762Y-119482200D02*
X137739524Y-119386961D01*
X137739524Y-119386961D02*
X137691905Y-119291723D01*
X137691905Y-119291723D02*
X137644286Y-119101247D01*
X137644286Y-119101247D02*
X137644286Y-118958390D01*
X137644286Y-118958390D02*
X137691905Y-118767914D01*
X137691905Y-118767914D02*
X137739524Y-118672676D01*
X137739524Y-118672676D02*
X137834762Y-118577438D01*
X137834762Y-118577438D02*
X137977619Y-118529819D01*
X137977619Y-118529819D02*
X138072857Y-118529819D01*
X138072857Y-118529819D02*
X138215714Y-118577438D01*
X138215714Y-118577438D02*
X138263333Y-118625057D01*
X139120476Y-118529819D02*
X138930000Y-118529819D01*
X138930000Y-118529819D02*
X138834762Y-118577438D01*
X138834762Y-118577438D02*
X138787143Y-118625057D01*
X138787143Y-118625057D02*
X138691905Y-118767914D01*
X138691905Y-118767914D02*
X138644286Y-118958390D01*
X138644286Y-118958390D02*
X138644286Y-119339342D01*
X138644286Y-119339342D02*
X138691905Y-119434580D01*
X138691905Y-119434580D02*
X138739524Y-119482200D01*
X138739524Y-119482200D02*
X138834762Y-119529819D01*
X138834762Y-119529819D02*
X139025238Y-119529819D01*
X139025238Y-119529819D02*
X139120476Y-119482200D01*
X139120476Y-119482200D02*
X139168095Y-119434580D01*
X139168095Y-119434580D02*
X139215714Y-119339342D01*
X139215714Y-119339342D02*
X139215714Y-119101247D01*
X139215714Y-119101247D02*
X139168095Y-119006009D01*
X139168095Y-119006009D02*
X139120476Y-118958390D01*
X139120476Y-118958390D02*
X139025238Y-118910771D01*
X139025238Y-118910771D02*
X138834762Y-118910771D01*
X138834762Y-118910771D02*
X138739524Y-118958390D01*
X138739524Y-118958390D02*
X138691905Y-119006009D01*
X138691905Y-119006009D02*
X138644286Y-119101247D01*
X140168333Y-98069819D02*
X139835000Y-97593628D01*
X139596905Y-98069819D02*
X139596905Y-97069819D01*
X139596905Y-97069819D02*
X139977857Y-97069819D01*
X139977857Y-97069819D02*
X140073095Y-97117438D01*
X140073095Y-97117438D02*
X140120714Y-97165057D01*
X140120714Y-97165057D02*
X140168333Y-97260295D01*
X140168333Y-97260295D02*
X140168333Y-97403152D01*
X140168333Y-97403152D02*
X140120714Y-97498390D01*
X140120714Y-97498390D02*
X140073095Y-97546009D01*
X140073095Y-97546009D02*
X139977857Y-97593628D01*
X139977857Y-97593628D02*
X139596905Y-97593628D01*
X141073095Y-97069819D02*
X140596905Y-97069819D01*
X140596905Y-97069819D02*
X140549286Y-97546009D01*
X140549286Y-97546009D02*
X140596905Y-97498390D01*
X140596905Y-97498390D02*
X140692143Y-97450771D01*
X140692143Y-97450771D02*
X140930238Y-97450771D01*
X140930238Y-97450771D02*
X141025476Y-97498390D01*
X141025476Y-97498390D02*
X141073095Y-97546009D01*
X141073095Y-97546009D02*
X141120714Y-97641247D01*
X141120714Y-97641247D02*
X141120714Y-97879342D01*
X141120714Y-97879342D02*
X141073095Y-97974580D01*
X141073095Y-97974580D02*
X141025476Y-98022200D01*
X141025476Y-98022200D02*
X140930238Y-98069819D01*
X140930238Y-98069819D02*
X140692143Y-98069819D01*
X140692143Y-98069819D02*
X140596905Y-98022200D01*
X140596905Y-98022200D02*
X140549286Y-97974580D01*
X166654819Y-106211666D02*
X166178628Y-106544999D01*
X166654819Y-106783094D02*
X165654819Y-106783094D01*
X165654819Y-106783094D02*
X165654819Y-106402142D01*
X165654819Y-106402142D02*
X165702438Y-106306904D01*
X165702438Y-106306904D02*
X165750057Y-106259285D01*
X165750057Y-106259285D02*
X165845295Y-106211666D01*
X165845295Y-106211666D02*
X165988152Y-106211666D01*
X165988152Y-106211666D02*
X166083390Y-106259285D01*
X166083390Y-106259285D02*
X166131009Y-106306904D01*
X166131009Y-106306904D02*
X166178628Y-106402142D01*
X166178628Y-106402142D02*
X166178628Y-106783094D01*
X165654819Y-105354523D02*
X165654819Y-105544999D01*
X165654819Y-105544999D02*
X165702438Y-105640237D01*
X165702438Y-105640237D02*
X165750057Y-105687856D01*
X165750057Y-105687856D02*
X165892914Y-105783094D01*
X165892914Y-105783094D02*
X166083390Y-105830713D01*
X166083390Y-105830713D02*
X166464342Y-105830713D01*
X166464342Y-105830713D02*
X166559580Y-105783094D01*
X166559580Y-105783094D02*
X166607200Y-105735475D01*
X166607200Y-105735475D02*
X166654819Y-105640237D01*
X166654819Y-105640237D02*
X166654819Y-105449761D01*
X166654819Y-105449761D02*
X166607200Y-105354523D01*
X166607200Y-105354523D02*
X166559580Y-105306904D01*
X166559580Y-105306904D02*
X166464342Y-105259285D01*
X166464342Y-105259285D02*
X166226247Y-105259285D01*
X166226247Y-105259285D02*
X166131009Y-105306904D01*
X166131009Y-105306904D02*
X166083390Y-105354523D01*
X166083390Y-105354523D02*
X166035771Y-105449761D01*
X166035771Y-105449761D02*
X166035771Y-105640237D01*
X166035771Y-105640237D02*
X166083390Y-105735475D01*
X166083390Y-105735475D02*
X166131009Y-105783094D01*
X166131009Y-105783094D02*
X166226247Y-105830713D01*
X137628095Y-125804819D02*
X137628095Y-126614342D01*
X137628095Y-126614342D02*
X137675714Y-126709580D01*
X137675714Y-126709580D02*
X137723333Y-126757200D01*
X137723333Y-126757200D02*
X137818571Y-126804819D01*
X137818571Y-126804819D02*
X138009047Y-126804819D01*
X138009047Y-126804819D02*
X138104285Y-126757200D01*
X138104285Y-126757200D02*
X138151904Y-126709580D01*
X138151904Y-126709580D02*
X138199523Y-126614342D01*
X138199523Y-126614342D02*
X138199523Y-125804819D01*
X139104285Y-126138152D02*
X139104285Y-126804819D01*
X138866190Y-125757200D02*
X138628095Y-126471485D01*
X138628095Y-126471485D02*
X139247142Y-126471485D01*
X173982142Y-116564580D02*
X173934523Y-116612200D01*
X173934523Y-116612200D02*
X173791666Y-116659819D01*
X173791666Y-116659819D02*
X173696428Y-116659819D01*
X173696428Y-116659819D02*
X173553571Y-116612200D01*
X173553571Y-116612200D02*
X173458333Y-116516961D01*
X173458333Y-116516961D02*
X173410714Y-116421723D01*
X173410714Y-116421723D02*
X173363095Y-116231247D01*
X173363095Y-116231247D02*
X173363095Y-116088390D01*
X173363095Y-116088390D02*
X173410714Y-115897914D01*
X173410714Y-115897914D02*
X173458333Y-115802676D01*
X173458333Y-115802676D02*
X173553571Y-115707438D01*
X173553571Y-115707438D02*
X173696428Y-115659819D01*
X173696428Y-115659819D02*
X173791666Y-115659819D01*
X173791666Y-115659819D02*
X173934523Y-115707438D01*
X173934523Y-115707438D02*
X173982142Y-115755057D01*
X174934523Y-116659819D02*
X174363095Y-116659819D01*
X174648809Y-116659819D02*
X174648809Y-115659819D01*
X174648809Y-115659819D02*
X174553571Y-115802676D01*
X174553571Y-115802676D02*
X174458333Y-115897914D01*
X174458333Y-115897914D02*
X174363095Y-115945533D01*
X175553571Y-115659819D02*
X175648809Y-115659819D01*
X175648809Y-115659819D02*
X175744047Y-115707438D01*
X175744047Y-115707438D02*
X175791666Y-115755057D01*
X175791666Y-115755057D02*
X175839285Y-115850295D01*
X175839285Y-115850295D02*
X175886904Y-116040771D01*
X175886904Y-116040771D02*
X175886904Y-116278866D01*
X175886904Y-116278866D02*
X175839285Y-116469342D01*
X175839285Y-116469342D02*
X175791666Y-116564580D01*
X175791666Y-116564580D02*
X175744047Y-116612200D01*
X175744047Y-116612200D02*
X175648809Y-116659819D01*
X175648809Y-116659819D02*
X175553571Y-116659819D01*
X175553571Y-116659819D02*
X175458333Y-116612200D01*
X175458333Y-116612200D02*
X175410714Y-116564580D01*
X175410714Y-116564580D02*
X175363095Y-116469342D01*
X175363095Y-116469342D02*
X175315476Y-116278866D01*
X175315476Y-116278866D02*
X175315476Y-116040771D01*
X175315476Y-116040771D02*
X175363095Y-115850295D01*
X175363095Y-115850295D02*
X175410714Y-115755057D01*
X175410714Y-115755057D02*
X175458333Y-115707438D01*
X175458333Y-115707438D02*
X175553571Y-115659819D01*
X179111792Y-124084819D02*
X179111792Y-124799104D01*
X179111792Y-124799104D02*
X179064173Y-124941961D01*
X179064173Y-124941961D02*
X178968935Y-125037200D01*
X178968935Y-125037200D02*
X178826078Y-125084819D01*
X178826078Y-125084819D02*
X178730840Y-125084819D01*
X180016554Y-124418152D02*
X180016554Y-125084819D01*
X179778459Y-124037200D02*
X179540364Y-124751485D01*
X179540364Y-124751485D02*
X180159411Y-124751485D01*
X163739761Y-113685057D02*
X163644523Y-113637438D01*
X163644523Y-113637438D02*
X163549285Y-113542200D01*
X163549285Y-113542200D02*
X163406428Y-113399342D01*
X163406428Y-113399342D02*
X163311190Y-113351723D01*
X163311190Y-113351723D02*
X163215952Y-113351723D01*
X163263571Y-113589819D02*
X163168333Y-113542200D01*
X163168333Y-113542200D02*
X163073095Y-113446961D01*
X163073095Y-113446961D02*
X163025476Y-113256485D01*
X163025476Y-113256485D02*
X163025476Y-112923152D01*
X163025476Y-112923152D02*
X163073095Y-112732676D01*
X163073095Y-112732676D02*
X163168333Y-112637438D01*
X163168333Y-112637438D02*
X163263571Y-112589819D01*
X163263571Y-112589819D02*
X163454047Y-112589819D01*
X163454047Y-112589819D02*
X163549285Y-112637438D01*
X163549285Y-112637438D02*
X163644523Y-112732676D01*
X163644523Y-112732676D02*
X163692142Y-112923152D01*
X163692142Y-112923152D02*
X163692142Y-113256485D01*
X163692142Y-113256485D02*
X163644523Y-113446961D01*
X163644523Y-113446961D02*
X163549285Y-113542200D01*
X163549285Y-113542200D02*
X163454047Y-113589819D01*
X163454047Y-113589819D02*
X163263571Y-113589819D01*
X164073095Y-112685057D02*
X164120714Y-112637438D01*
X164120714Y-112637438D02*
X164215952Y-112589819D01*
X164215952Y-112589819D02*
X164454047Y-112589819D01*
X164454047Y-112589819D02*
X164549285Y-112637438D01*
X164549285Y-112637438D02*
X164596904Y-112685057D01*
X164596904Y-112685057D02*
X164644523Y-112780295D01*
X164644523Y-112780295D02*
X164644523Y-112875533D01*
X164644523Y-112875533D02*
X164596904Y-113018390D01*
X164596904Y-113018390D02*
X164025476Y-113589819D01*
X164025476Y-113589819D02*
X164644523Y-113589819D01*
X185253333Y-103269580D02*
X185205714Y-103317200D01*
X185205714Y-103317200D02*
X185062857Y-103364819D01*
X185062857Y-103364819D02*
X184967619Y-103364819D01*
X184967619Y-103364819D02*
X184824762Y-103317200D01*
X184824762Y-103317200D02*
X184729524Y-103221961D01*
X184729524Y-103221961D02*
X184681905Y-103126723D01*
X184681905Y-103126723D02*
X184634286Y-102936247D01*
X184634286Y-102936247D02*
X184634286Y-102793390D01*
X184634286Y-102793390D02*
X184681905Y-102602914D01*
X184681905Y-102602914D02*
X184729524Y-102507676D01*
X184729524Y-102507676D02*
X184824762Y-102412438D01*
X184824762Y-102412438D02*
X184967619Y-102364819D01*
X184967619Y-102364819D02*
X185062857Y-102364819D01*
X185062857Y-102364819D02*
X185205714Y-102412438D01*
X185205714Y-102412438D02*
X185253333Y-102460057D01*
X185824762Y-102793390D02*
X185729524Y-102745771D01*
X185729524Y-102745771D02*
X185681905Y-102698152D01*
X185681905Y-102698152D02*
X185634286Y-102602914D01*
X185634286Y-102602914D02*
X185634286Y-102555295D01*
X185634286Y-102555295D02*
X185681905Y-102460057D01*
X185681905Y-102460057D02*
X185729524Y-102412438D01*
X185729524Y-102412438D02*
X185824762Y-102364819D01*
X185824762Y-102364819D02*
X186015238Y-102364819D01*
X186015238Y-102364819D02*
X186110476Y-102412438D01*
X186110476Y-102412438D02*
X186158095Y-102460057D01*
X186158095Y-102460057D02*
X186205714Y-102555295D01*
X186205714Y-102555295D02*
X186205714Y-102602914D01*
X186205714Y-102602914D02*
X186158095Y-102698152D01*
X186158095Y-102698152D02*
X186110476Y-102745771D01*
X186110476Y-102745771D02*
X186015238Y-102793390D01*
X186015238Y-102793390D02*
X185824762Y-102793390D01*
X185824762Y-102793390D02*
X185729524Y-102841009D01*
X185729524Y-102841009D02*
X185681905Y-102888628D01*
X185681905Y-102888628D02*
X185634286Y-102983866D01*
X185634286Y-102983866D02*
X185634286Y-103174342D01*
X185634286Y-103174342D02*
X185681905Y-103269580D01*
X185681905Y-103269580D02*
X185729524Y-103317200D01*
X185729524Y-103317200D02*
X185824762Y-103364819D01*
X185824762Y-103364819D02*
X186015238Y-103364819D01*
X186015238Y-103364819D02*
X186110476Y-103317200D01*
X186110476Y-103317200D02*
X186158095Y-103269580D01*
X186158095Y-103269580D02*
X186205714Y-103174342D01*
X186205714Y-103174342D02*
X186205714Y-102983866D01*
X186205714Y-102983866D02*
X186158095Y-102888628D01*
X186158095Y-102888628D02*
X186110476Y-102841009D01*
X186110476Y-102841009D02*
X186015238Y-102793390D01*
X171484819Y-108053094D02*
X170484819Y-108053094D01*
X170484819Y-108053094D02*
X170484819Y-107814999D01*
X170484819Y-107814999D02*
X170532438Y-107672142D01*
X170532438Y-107672142D02*
X170627676Y-107576904D01*
X170627676Y-107576904D02*
X170722914Y-107529285D01*
X170722914Y-107529285D02*
X170913390Y-107481666D01*
X170913390Y-107481666D02*
X171056247Y-107481666D01*
X171056247Y-107481666D02*
X171246723Y-107529285D01*
X171246723Y-107529285D02*
X171341961Y-107576904D01*
X171341961Y-107576904D02*
X171437200Y-107672142D01*
X171437200Y-107672142D02*
X171484819Y-107814999D01*
X171484819Y-107814999D02*
X171484819Y-108053094D01*
X170484819Y-107148332D02*
X170484819Y-106529285D01*
X170484819Y-106529285D02*
X170865771Y-106862618D01*
X170865771Y-106862618D02*
X170865771Y-106719761D01*
X170865771Y-106719761D02*
X170913390Y-106624523D01*
X170913390Y-106624523D02*
X170961009Y-106576904D01*
X170961009Y-106576904D02*
X171056247Y-106529285D01*
X171056247Y-106529285D02*
X171294342Y-106529285D01*
X171294342Y-106529285D02*
X171389580Y-106576904D01*
X171389580Y-106576904D02*
X171437200Y-106624523D01*
X171437200Y-106624523D02*
X171484819Y-106719761D01*
X171484819Y-106719761D02*
X171484819Y-107005475D01*
X171484819Y-107005475D02*
X171437200Y-107100713D01*
X171437200Y-107100713D02*
X171389580Y-107148332D01*
X142864819Y-86526666D02*
X142388628Y-86859999D01*
X142864819Y-87098094D02*
X141864819Y-87098094D01*
X141864819Y-87098094D02*
X141864819Y-86717142D01*
X141864819Y-86717142D02*
X141912438Y-86621904D01*
X141912438Y-86621904D02*
X141960057Y-86574285D01*
X141960057Y-86574285D02*
X142055295Y-86526666D01*
X142055295Y-86526666D02*
X142198152Y-86526666D01*
X142198152Y-86526666D02*
X142293390Y-86574285D01*
X142293390Y-86574285D02*
X142341009Y-86621904D01*
X142341009Y-86621904D02*
X142388628Y-86717142D01*
X142388628Y-86717142D02*
X142388628Y-87098094D01*
X141960057Y-86145713D02*
X141912438Y-86098094D01*
X141912438Y-86098094D02*
X141864819Y-86002856D01*
X141864819Y-86002856D02*
X141864819Y-85764761D01*
X141864819Y-85764761D02*
X141912438Y-85669523D01*
X141912438Y-85669523D02*
X141960057Y-85621904D01*
X141960057Y-85621904D02*
X142055295Y-85574285D01*
X142055295Y-85574285D02*
X142150533Y-85574285D01*
X142150533Y-85574285D02*
X142293390Y-85621904D01*
X142293390Y-85621904D02*
X142864819Y-86193332D01*
X142864819Y-86193332D02*
X142864819Y-85574285D01*
X150368095Y-73114819D02*
X150368095Y-73924342D01*
X150368095Y-73924342D02*
X150415714Y-74019580D01*
X150415714Y-74019580D02*
X150463333Y-74067200D01*
X150463333Y-74067200D02*
X150558571Y-74114819D01*
X150558571Y-74114819D02*
X150749047Y-74114819D01*
X150749047Y-74114819D02*
X150844285Y-74067200D01*
X150844285Y-74067200D02*
X150891904Y-74019580D01*
X150891904Y-74019580D02*
X150939523Y-73924342D01*
X150939523Y-73924342D02*
X150939523Y-73114819D01*
X151368095Y-73210057D02*
X151415714Y-73162438D01*
X151415714Y-73162438D02*
X151510952Y-73114819D01*
X151510952Y-73114819D02*
X151749047Y-73114819D01*
X151749047Y-73114819D02*
X151844285Y-73162438D01*
X151844285Y-73162438D02*
X151891904Y-73210057D01*
X151891904Y-73210057D02*
X151939523Y-73305295D01*
X151939523Y-73305295D02*
X151939523Y-73400533D01*
X151939523Y-73400533D02*
X151891904Y-73543390D01*
X151891904Y-73543390D02*
X151320476Y-74114819D01*
X151320476Y-74114819D02*
X151939523Y-74114819D01*
X147788333Y-86719580D02*
X147740714Y-86767200D01*
X147740714Y-86767200D02*
X147597857Y-86814819D01*
X147597857Y-86814819D02*
X147502619Y-86814819D01*
X147502619Y-86814819D02*
X147359762Y-86767200D01*
X147359762Y-86767200D02*
X147264524Y-86671961D01*
X147264524Y-86671961D02*
X147216905Y-86576723D01*
X147216905Y-86576723D02*
X147169286Y-86386247D01*
X147169286Y-86386247D02*
X147169286Y-86243390D01*
X147169286Y-86243390D02*
X147216905Y-86052914D01*
X147216905Y-86052914D02*
X147264524Y-85957676D01*
X147264524Y-85957676D02*
X147359762Y-85862438D01*
X147359762Y-85862438D02*
X147502619Y-85814819D01*
X147502619Y-85814819D02*
X147597857Y-85814819D01*
X147597857Y-85814819D02*
X147740714Y-85862438D01*
X147740714Y-85862438D02*
X147788333Y-85910057D01*
X148121667Y-85814819D02*
X148740714Y-85814819D01*
X148740714Y-85814819D02*
X148407381Y-86195771D01*
X148407381Y-86195771D02*
X148550238Y-86195771D01*
X148550238Y-86195771D02*
X148645476Y-86243390D01*
X148645476Y-86243390D02*
X148693095Y-86291009D01*
X148693095Y-86291009D02*
X148740714Y-86386247D01*
X148740714Y-86386247D02*
X148740714Y-86624342D01*
X148740714Y-86624342D02*
X148693095Y-86719580D01*
X148693095Y-86719580D02*
X148645476Y-86767200D01*
X148645476Y-86767200D02*
X148550238Y-86814819D01*
X148550238Y-86814819D02*
X148264524Y-86814819D01*
X148264524Y-86814819D02*
X148169286Y-86767200D01*
X148169286Y-86767200D02*
X148121667Y-86719580D01*
X161324819Y-108053094D02*
X160324819Y-108053094D01*
X160324819Y-108053094D02*
X160324819Y-107814999D01*
X160324819Y-107814999D02*
X160372438Y-107672142D01*
X160372438Y-107672142D02*
X160467676Y-107576904D01*
X160467676Y-107576904D02*
X160562914Y-107529285D01*
X160562914Y-107529285D02*
X160753390Y-107481666D01*
X160753390Y-107481666D02*
X160896247Y-107481666D01*
X160896247Y-107481666D02*
X161086723Y-107529285D01*
X161086723Y-107529285D02*
X161181961Y-107576904D01*
X161181961Y-107576904D02*
X161277200Y-107672142D01*
X161277200Y-107672142D02*
X161324819Y-107814999D01*
X161324819Y-107814999D02*
X161324819Y-108053094D01*
X160420057Y-107100713D02*
X160372438Y-107053094D01*
X160372438Y-107053094D02*
X160324819Y-106957856D01*
X160324819Y-106957856D02*
X160324819Y-106719761D01*
X160324819Y-106719761D02*
X160372438Y-106624523D01*
X160372438Y-106624523D02*
X160420057Y-106576904D01*
X160420057Y-106576904D02*
X160515295Y-106529285D01*
X160515295Y-106529285D02*
X160610533Y-106529285D01*
X160610533Y-106529285D02*
X160753390Y-106576904D01*
X160753390Y-106576904D02*
X161324819Y-107148332D01*
X161324819Y-107148332D02*
X161324819Y-106529285D01*
X181894819Y-77636666D02*
X181418628Y-77969999D01*
X181894819Y-78208094D02*
X180894819Y-78208094D01*
X180894819Y-78208094D02*
X180894819Y-77827142D01*
X180894819Y-77827142D02*
X180942438Y-77731904D01*
X180942438Y-77731904D02*
X180990057Y-77684285D01*
X180990057Y-77684285D02*
X181085295Y-77636666D01*
X181085295Y-77636666D02*
X181228152Y-77636666D01*
X181228152Y-77636666D02*
X181323390Y-77684285D01*
X181323390Y-77684285D02*
X181371009Y-77731904D01*
X181371009Y-77731904D02*
X181418628Y-77827142D01*
X181418628Y-77827142D02*
X181418628Y-78208094D01*
X181228152Y-76779523D02*
X181894819Y-76779523D01*
X180847200Y-77017618D02*
X181561485Y-77255713D01*
X181561485Y-77255713D02*
X181561485Y-76636666D01*
X177673095Y-109944819D02*
X177673095Y-110754342D01*
X177673095Y-110754342D02*
X177720714Y-110849580D01*
X177720714Y-110849580D02*
X177768333Y-110897200D01*
X177768333Y-110897200D02*
X177863571Y-110944819D01*
X177863571Y-110944819D02*
X178054047Y-110944819D01*
X178054047Y-110944819D02*
X178149285Y-110897200D01*
X178149285Y-110897200D02*
X178196904Y-110849580D01*
X178196904Y-110849580D02*
X178244523Y-110754342D01*
X178244523Y-110754342D02*
X178244523Y-109944819D01*
X179196904Y-109944819D02*
X178720714Y-109944819D01*
X178720714Y-109944819D02*
X178673095Y-110421009D01*
X178673095Y-110421009D02*
X178720714Y-110373390D01*
X178720714Y-110373390D02*
X178815952Y-110325771D01*
X178815952Y-110325771D02*
X179054047Y-110325771D01*
X179054047Y-110325771D02*
X179149285Y-110373390D01*
X179149285Y-110373390D02*
X179196904Y-110421009D01*
X179196904Y-110421009D02*
X179244523Y-110516247D01*
X179244523Y-110516247D02*
X179244523Y-110754342D01*
X179244523Y-110754342D02*
X179196904Y-110849580D01*
X179196904Y-110849580D02*
X179149285Y-110897200D01*
X179149285Y-110897200D02*
X179054047Y-110944819D01*
X179054047Y-110944819D02*
X178815952Y-110944819D01*
X178815952Y-110944819D02*
X178720714Y-110897200D01*
X178720714Y-110897200D02*
X178673095Y-110849580D01*
X134493095Y-132194819D02*
X134493095Y-131194819D01*
X134493095Y-131671009D02*
X135064523Y-131671009D01*
X135064523Y-132194819D02*
X135064523Y-131194819D01*
X135445476Y-131194819D02*
X136064523Y-131194819D01*
X136064523Y-131194819D02*
X135731190Y-131575771D01*
X135731190Y-131575771D02*
X135874047Y-131575771D01*
X135874047Y-131575771D02*
X135969285Y-131623390D01*
X135969285Y-131623390D02*
X136016904Y-131671009D01*
X136016904Y-131671009D02*
X136064523Y-131766247D01*
X136064523Y-131766247D02*
X136064523Y-132004342D01*
X136064523Y-132004342D02*
X136016904Y-132099580D01*
X136016904Y-132099580D02*
X135969285Y-132147200D01*
X135969285Y-132147200D02*
X135874047Y-132194819D01*
X135874047Y-132194819D02*
X135588333Y-132194819D01*
X135588333Y-132194819D02*
X135493095Y-132147200D01*
X135493095Y-132147200D02*
X135445476Y-132099580D01*
X142200333Y-119434580D02*
X142152714Y-119482200D01*
X142152714Y-119482200D02*
X142009857Y-119529819D01*
X142009857Y-119529819D02*
X141914619Y-119529819D01*
X141914619Y-119529819D02*
X141771762Y-119482200D01*
X141771762Y-119482200D02*
X141676524Y-119386961D01*
X141676524Y-119386961D02*
X141628905Y-119291723D01*
X141628905Y-119291723D02*
X141581286Y-119101247D01*
X141581286Y-119101247D02*
X141581286Y-118958390D01*
X141581286Y-118958390D02*
X141628905Y-118767914D01*
X141628905Y-118767914D02*
X141676524Y-118672676D01*
X141676524Y-118672676D02*
X141771762Y-118577438D01*
X141771762Y-118577438D02*
X141914619Y-118529819D01*
X141914619Y-118529819D02*
X142009857Y-118529819D01*
X142009857Y-118529819D02*
X142152714Y-118577438D01*
X142152714Y-118577438D02*
X142200333Y-118625057D01*
X142533667Y-118529819D02*
X143200333Y-118529819D01*
X143200333Y-118529819D02*
X142771762Y-119529819D01*
X147788333Y-71479580D02*
X147740714Y-71527200D01*
X147740714Y-71527200D02*
X147597857Y-71574819D01*
X147597857Y-71574819D02*
X147502619Y-71574819D01*
X147502619Y-71574819D02*
X147359762Y-71527200D01*
X147359762Y-71527200D02*
X147264524Y-71431961D01*
X147264524Y-71431961D02*
X147216905Y-71336723D01*
X147216905Y-71336723D02*
X147169286Y-71146247D01*
X147169286Y-71146247D02*
X147169286Y-71003390D01*
X147169286Y-71003390D02*
X147216905Y-70812914D01*
X147216905Y-70812914D02*
X147264524Y-70717676D01*
X147264524Y-70717676D02*
X147359762Y-70622438D01*
X147359762Y-70622438D02*
X147502619Y-70574819D01*
X147502619Y-70574819D02*
X147597857Y-70574819D01*
X147597857Y-70574819D02*
X147740714Y-70622438D01*
X147740714Y-70622438D02*
X147788333Y-70670057D01*
X148169286Y-70670057D02*
X148216905Y-70622438D01*
X148216905Y-70622438D02*
X148312143Y-70574819D01*
X148312143Y-70574819D02*
X148550238Y-70574819D01*
X148550238Y-70574819D02*
X148645476Y-70622438D01*
X148645476Y-70622438D02*
X148693095Y-70670057D01*
X148693095Y-70670057D02*
X148740714Y-70765295D01*
X148740714Y-70765295D02*
X148740714Y-70860533D01*
X148740714Y-70860533D02*
X148693095Y-71003390D01*
X148693095Y-71003390D02*
X148121667Y-71574819D01*
X148121667Y-71574819D02*
X148740714Y-71574819D01*
X158659761Y-113685057D02*
X158564523Y-113637438D01*
X158564523Y-113637438D02*
X158469285Y-113542200D01*
X158469285Y-113542200D02*
X158326428Y-113399342D01*
X158326428Y-113399342D02*
X158231190Y-113351723D01*
X158231190Y-113351723D02*
X158135952Y-113351723D01*
X158183571Y-113589819D02*
X158088333Y-113542200D01*
X158088333Y-113542200D02*
X157993095Y-113446961D01*
X157993095Y-113446961D02*
X157945476Y-113256485D01*
X157945476Y-113256485D02*
X157945476Y-112923152D01*
X157945476Y-112923152D02*
X157993095Y-112732676D01*
X157993095Y-112732676D02*
X158088333Y-112637438D01*
X158088333Y-112637438D02*
X158183571Y-112589819D01*
X158183571Y-112589819D02*
X158374047Y-112589819D01*
X158374047Y-112589819D02*
X158469285Y-112637438D01*
X158469285Y-112637438D02*
X158564523Y-112732676D01*
X158564523Y-112732676D02*
X158612142Y-112923152D01*
X158612142Y-112923152D02*
X158612142Y-113256485D01*
X158612142Y-113256485D02*
X158564523Y-113446961D01*
X158564523Y-113446961D02*
X158469285Y-113542200D01*
X158469285Y-113542200D02*
X158374047Y-113589819D01*
X158374047Y-113589819D02*
X158183571Y-113589819D01*
X159564523Y-113589819D02*
X158993095Y-113589819D01*
X159278809Y-113589819D02*
X159278809Y-112589819D01*
X159278809Y-112589819D02*
X159183571Y-112732676D01*
X159183571Y-112732676D02*
X159088333Y-112827914D01*
X159088333Y-112827914D02*
X158993095Y-112875533D01*
X191643095Y-132194819D02*
X191643095Y-131194819D01*
X191643095Y-131671009D02*
X192214523Y-131671009D01*
X192214523Y-132194819D02*
X192214523Y-131194819D01*
X193119285Y-131528152D02*
X193119285Y-132194819D01*
X192881190Y-131147200D02*
X192643095Y-131861485D01*
X192643095Y-131861485D02*
X193262142Y-131861485D01*
X148463095Y-95549819D02*
X148463095Y-96359342D01*
X148463095Y-96359342D02*
X148510714Y-96454580D01*
X148510714Y-96454580D02*
X148558333Y-96502200D01*
X148558333Y-96502200D02*
X148653571Y-96549819D01*
X148653571Y-96549819D02*
X148844047Y-96549819D01*
X148844047Y-96549819D02*
X148939285Y-96502200D01*
X148939285Y-96502200D02*
X148986904Y-96454580D01*
X148986904Y-96454580D02*
X149034523Y-96359342D01*
X149034523Y-96359342D02*
X149034523Y-95549819D01*
X149415476Y-95549819D02*
X150034523Y-95549819D01*
X150034523Y-95549819D02*
X149701190Y-95930771D01*
X149701190Y-95930771D02*
X149844047Y-95930771D01*
X149844047Y-95930771D02*
X149939285Y-95978390D01*
X149939285Y-95978390D02*
X149986904Y-96026009D01*
X149986904Y-96026009D02*
X150034523Y-96121247D01*
X150034523Y-96121247D02*
X150034523Y-96359342D01*
X150034523Y-96359342D02*
X149986904Y-96454580D01*
X149986904Y-96454580D02*
X149939285Y-96502200D01*
X149939285Y-96502200D02*
X149844047Y-96549819D01*
X149844047Y-96549819D02*
X149558333Y-96549819D01*
X149558333Y-96549819D02*
X149463095Y-96502200D01*
X149463095Y-96502200D02*
X149415476Y-96454580D01*
X168094819Y-68111666D02*
X167618628Y-68444999D01*
X168094819Y-68683094D02*
X167094819Y-68683094D01*
X167094819Y-68683094D02*
X167094819Y-68302142D01*
X167094819Y-68302142D02*
X167142438Y-68206904D01*
X167142438Y-68206904D02*
X167190057Y-68159285D01*
X167190057Y-68159285D02*
X167285295Y-68111666D01*
X167285295Y-68111666D02*
X167428152Y-68111666D01*
X167428152Y-68111666D02*
X167523390Y-68159285D01*
X167523390Y-68159285D02*
X167571009Y-68206904D01*
X167571009Y-68206904D02*
X167618628Y-68302142D01*
X167618628Y-68302142D02*
X167618628Y-68683094D01*
X168094819Y-67159285D02*
X168094819Y-67730713D01*
X168094819Y-67444999D02*
X167094819Y-67444999D01*
X167094819Y-67444999D02*
X167237676Y-67540237D01*
X167237676Y-67540237D02*
X167332914Y-67635475D01*
X167332914Y-67635475D02*
X167380533Y-67730713D01*
X191643095Y-68694819D02*
X191643095Y-67694819D01*
X191643095Y-68171009D02*
X192214523Y-68171009D01*
X192214523Y-68694819D02*
X192214523Y-67694819D01*
X192643095Y-67790057D02*
X192690714Y-67742438D01*
X192690714Y-67742438D02*
X192785952Y-67694819D01*
X192785952Y-67694819D02*
X193024047Y-67694819D01*
X193024047Y-67694819D02*
X193119285Y-67742438D01*
X193119285Y-67742438D02*
X193166904Y-67790057D01*
X193166904Y-67790057D02*
X193214523Y-67885295D01*
X193214523Y-67885295D02*
X193214523Y-67980533D01*
X193214523Y-67980533D02*
X193166904Y-68123390D01*
X193166904Y-68123390D02*
X192595476Y-68694819D01*
X192595476Y-68694819D02*
X193214523Y-68694819D01*
X187158333Y-109209819D02*
X186825000Y-108733628D01*
X186586905Y-109209819D02*
X186586905Y-108209819D01*
X186586905Y-108209819D02*
X186967857Y-108209819D01*
X186967857Y-108209819D02*
X187063095Y-108257438D01*
X187063095Y-108257438D02*
X187110714Y-108305057D01*
X187110714Y-108305057D02*
X187158333Y-108400295D01*
X187158333Y-108400295D02*
X187158333Y-108543152D01*
X187158333Y-108543152D02*
X187110714Y-108638390D01*
X187110714Y-108638390D02*
X187063095Y-108686009D01*
X187063095Y-108686009D02*
X186967857Y-108733628D01*
X186967857Y-108733628D02*
X186586905Y-108733628D01*
X187491667Y-108209819D02*
X188158333Y-108209819D01*
X188158333Y-108209819D02*
X187729762Y-109209819D01*
X173823333Y-67607319D02*
X173490000Y-67131128D01*
X173251905Y-67607319D02*
X173251905Y-66607319D01*
X173251905Y-66607319D02*
X173632857Y-66607319D01*
X173632857Y-66607319D02*
X173728095Y-66654938D01*
X173728095Y-66654938D02*
X173775714Y-66702557D01*
X173775714Y-66702557D02*
X173823333Y-66797795D01*
X173823333Y-66797795D02*
X173823333Y-66940652D01*
X173823333Y-66940652D02*
X173775714Y-67035890D01*
X173775714Y-67035890D02*
X173728095Y-67083509D01*
X173728095Y-67083509D02*
X173632857Y-67131128D01*
X173632857Y-67131128D02*
X173251905Y-67131128D01*
X174156667Y-66607319D02*
X174775714Y-66607319D01*
X174775714Y-66607319D02*
X174442381Y-66988271D01*
X174442381Y-66988271D02*
X174585238Y-66988271D01*
X174585238Y-66988271D02*
X174680476Y-67035890D01*
X174680476Y-67035890D02*
X174728095Y-67083509D01*
X174728095Y-67083509D02*
X174775714Y-67178747D01*
X174775714Y-67178747D02*
X174775714Y-67416842D01*
X174775714Y-67416842D02*
X174728095Y-67512080D01*
X174728095Y-67512080D02*
X174680476Y-67559700D01*
X174680476Y-67559700D02*
X174585238Y-67607319D01*
X174585238Y-67607319D02*
X174299524Y-67607319D01*
X174299524Y-67607319D02*
X174204286Y-67559700D01*
X174204286Y-67559700D02*
X174156667Y-67512080D01*
X164933333Y-86719580D02*
X164885714Y-86767200D01*
X164885714Y-86767200D02*
X164742857Y-86814819D01*
X164742857Y-86814819D02*
X164647619Y-86814819D01*
X164647619Y-86814819D02*
X164504762Y-86767200D01*
X164504762Y-86767200D02*
X164409524Y-86671961D01*
X164409524Y-86671961D02*
X164361905Y-86576723D01*
X164361905Y-86576723D02*
X164314286Y-86386247D01*
X164314286Y-86386247D02*
X164314286Y-86243390D01*
X164314286Y-86243390D02*
X164361905Y-86052914D01*
X164361905Y-86052914D02*
X164409524Y-85957676D01*
X164409524Y-85957676D02*
X164504762Y-85862438D01*
X164504762Y-85862438D02*
X164647619Y-85814819D01*
X164647619Y-85814819D02*
X164742857Y-85814819D01*
X164742857Y-85814819D02*
X164885714Y-85862438D01*
X164885714Y-85862438D02*
X164933333Y-85910057D01*
X165885714Y-86814819D02*
X165314286Y-86814819D01*
X165600000Y-86814819D02*
X165600000Y-85814819D01*
X165600000Y-85814819D02*
X165504762Y-85957676D01*
X165504762Y-85957676D02*
X165409524Y-86052914D01*
X165409524Y-86052914D02*
X165314286Y-86100533D01*
X134493095Y-68694819D02*
X134493095Y-67694819D01*
X134493095Y-68171009D02*
X135064523Y-68171009D01*
X135064523Y-68694819D02*
X135064523Y-67694819D01*
X136064523Y-68694819D02*
X135493095Y-68694819D01*
X135778809Y-68694819D02*
X135778809Y-67694819D01*
X135778809Y-67694819D02*
X135683571Y-67837676D01*
X135683571Y-67837676D02*
X135588333Y-67932914D01*
X135588333Y-67932914D02*
X135493095Y-67980533D01*
X152868333Y-90524580D02*
X152820714Y-90572200D01*
X152820714Y-90572200D02*
X152677857Y-90619819D01*
X152677857Y-90619819D02*
X152582619Y-90619819D01*
X152582619Y-90619819D02*
X152439762Y-90572200D01*
X152439762Y-90572200D02*
X152344524Y-90476961D01*
X152344524Y-90476961D02*
X152296905Y-90381723D01*
X152296905Y-90381723D02*
X152249286Y-90191247D01*
X152249286Y-90191247D02*
X152249286Y-90048390D01*
X152249286Y-90048390D02*
X152296905Y-89857914D01*
X152296905Y-89857914D02*
X152344524Y-89762676D01*
X152344524Y-89762676D02*
X152439762Y-89667438D01*
X152439762Y-89667438D02*
X152582619Y-89619819D01*
X152582619Y-89619819D02*
X152677857Y-89619819D01*
X152677857Y-89619819D02*
X152820714Y-89667438D01*
X152820714Y-89667438D02*
X152868333Y-89715057D01*
X153344524Y-90619819D02*
X153535000Y-90619819D01*
X153535000Y-90619819D02*
X153630238Y-90572200D01*
X153630238Y-90572200D02*
X153677857Y-90524580D01*
X153677857Y-90524580D02*
X153773095Y-90381723D01*
X153773095Y-90381723D02*
X153820714Y-90191247D01*
X153820714Y-90191247D02*
X153820714Y-89810295D01*
X153820714Y-89810295D02*
X153773095Y-89715057D01*
X153773095Y-89715057D02*
X153725476Y-89667438D01*
X153725476Y-89667438D02*
X153630238Y-89619819D01*
X153630238Y-89619819D02*
X153439762Y-89619819D01*
X153439762Y-89619819D02*
X153344524Y-89667438D01*
X153344524Y-89667438D02*
X153296905Y-89715057D01*
X153296905Y-89715057D02*
X153249286Y-89810295D01*
X153249286Y-89810295D02*
X153249286Y-90048390D01*
X153249286Y-90048390D02*
X153296905Y-90143628D01*
X153296905Y-90143628D02*
X153344524Y-90191247D01*
X153344524Y-90191247D02*
X153439762Y-90238866D01*
X153439762Y-90238866D02*
X153630238Y-90238866D01*
X153630238Y-90238866D02*
X153725476Y-90191247D01*
X153725476Y-90191247D02*
X153773095Y-90143628D01*
X153773095Y-90143628D02*
X153820714Y-90048390D01*
X130849761Y-110309819D02*
X130516428Y-109833628D01*
X130278333Y-110309819D02*
X130278333Y-109309819D01*
X130278333Y-109309819D02*
X130659285Y-109309819D01*
X130659285Y-109309819D02*
X130754523Y-109357438D01*
X130754523Y-109357438D02*
X130802142Y-109405057D01*
X130802142Y-109405057D02*
X130849761Y-109500295D01*
X130849761Y-109500295D02*
X130849761Y-109643152D01*
X130849761Y-109643152D02*
X130802142Y-109738390D01*
X130802142Y-109738390D02*
X130754523Y-109786009D01*
X130754523Y-109786009D02*
X130659285Y-109833628D01*
X130659285Y-109833628D02*
X130278333Y-109833628D01*
X131135476Y-109309819D02*
X131468809Y-110309819D01*
X131468809Y-110309819D02*
X131802142Y-109309819D01*
X132659285Y-110309819D02*
X132087857Y-110309819D01*
X132373571Y-110309819D02*
X132373571Y-109309819D01*
X132373571Y-109309819D02*
X132278333Y-109452676D01*
X132278333Y-109452676D02*
X132183095Y-109547914D01*
X132183095Y-109547914D02*
X132087857Y-109595533D01*
%TO.C,Q3*%
D13*
X166805000Y-113975000D02*
X166805000Y-115565000D01*
X167290000Y-116045000D02*
X170510000Y-116045000D01*
X170510000Y-116045000D02*
X171015000Y-115538950D01*
X171015000Y-115535000D02*
X171015000Y-113975000D01*
%TO.C,C4*%
X177700000Y-84375000D02*
X177700000Y-89615000D01*
X180440000Y-84375000D02*
X177700000Y-84375000D01*
X180440000Y-84375000D02*
X180440000Y-89615000D01*
X180440000Y-89615000D02*
X177700000Y-89615000D01*
%TO.C,C11*%
X157380000Y-69135000D02*
X160120000Y-69135000D01*
X157380000Y-74375000D02*
X157380000Y-69135000D01*
X157380000Y-74375000D02*
X160120000Y-74375000D01*
X160120000Y-74375000D02*
X160120000Y-69135000D01*
%TO.C,C12*%
X172025000Y-74702500D02*
X172025000Y-71962500D01*
X177265000Y-71962500D02*
X172025000Y-71962500D01*
X177265000Y-74702500D02*
X172025000Y-74702500D01*
X177265000Y-74702500D02*
X177265000Y-71962500D01*
%TO.C,C5*%
X140870000Y-104690000D02*
X140870000Y-109930000D01*
X143610000Y-104690000D02*
X140870000Y-104690000D01*
X143610000Y-104690000D02*
X143610000Y-109930000D01*
X143610000Y-109930000D02*
X140870000Y-109930000D01*
%TO.C,RV2*%
D14*
X187543200Y-97993200D02*
X187543200Y-107772200D01*
X187543200Y-107772200D02*
X197322200Y-107772200D01*
X197322200Y-97993200D02*
X187543200Y-97993200D01*
X197322200Y-107772200D02*
X197322200Y-97993200D01*
X198592200Y-105117900D02*
G75*
G02*
X198338200Y-105117900I-127000J0D01*
G01*
X198338200Y-105117900D02*
G75*
G02*
X198592200Y-105117900I127000J0D01*
G01*
%TO.C,D1*%
D13*
X161925000Y-69620000D02*
X161925000Y-70270000D01*
X161925000Y-75160000D02*
X161925000Y-74510000D01*
X163045000Y-70870000D02*
X160805000Y-70870000D01*
X163045000Y-70990000D02*
X160805000Y-70990000D01*
X163045000Y-71110000D02*
X160805000Y-71110000D01*
X160805000Y-70270000D02*
X163045000Y-70270000D01*
X163045000Y-74510000D01*
X160805000Y-74510000D01*
X160805000Y-70270000D01*
%TO.C,U1*%
X169435000Y-75177500D02*
X169435000Y-85457500D01*
X169435000Y-85457500D02*
X174735000Y-85457500D01*
X171085000Y-75177500D02*
X169435000Y-75177500D01*
X174735000Y-75177500D02*
X173085000Y-75177500D01*
X174735000Y-85457500D02*
X174735000Y-75177500D01*
X166945000Y-75117500D02*
X177225000Y-75117500D01*
X177225000Y-85517500D01*
X166945000Y-85517500D01*
X166945000Y-75117500D01*
X173085000Y-75177500D02*
G75*
G02*
X171085000Y-75177500I-1000000J0D01*
G01*
%TO.C,J3*%
D15*
X144070417Y-129685000D02*
X144070417Y-133205000D01*
X147250417Y-127510000D02*
X148760417Y-127510000D01*
X147250417Y-135380000D02*
X148760417Y-135380000D01*
X151940417Y-129685000D02*
X151940417Y-133205000D01*
%TO.C,C6*%
D13*
X132000000Y-120445000D02*
X132000000Y-117705000D01*
X137240000Y-117705000D02*
X132000000Y-117705000D01*
X137240000Y-120445000D02*
X132000000Y-120445000D01*
X137240000Y-120445000D02*
X137240000Y-117705000D01*
%TO.C,R5*%
X136295000Y-95245000D02*
X137065000Y-95245000D01*
X144375000Y-95245000D02*
X143605000Y-95245000D01*
X137065000Y-93875000D02*
X143605000Y-93875000D01*
X143605000Y-96615000D01*
X137065000Y-96615000D01*
X137065000Y-93875000D01*
%TO.C,R6*%
X163830000Y-102005000D02*
X163830000Y-102775000D01*
X163830000Y-110085000D02*
X163830000Y-109315000D01*
X162460000Y-102775000D02*
X165200000Y-102775000D01*
X165200000Y-109315000D01*
X162460000Y-109315000D01*
X162460000Y-102775000D01*
%TO.C,U4*%
X133280000Y-125510000D02*
X133280000Y-120890000D01*
X136540000Y-125510000D02*
X136540000Y-124130000D01*
X140240000Y-125510000D02*
X140240000Y-124130000D01*
X143500000Y-120890000D02*
X133280000Y-120890000D01*
X143500000Y-124130000D02*
X133280000Y-124130000D01*
X143500000Y-125510000D02*
X133280000Y-125510000D01*
X143500000Y-125510000D02*
X143500000Y-120890000D01*
%TO.C,C10*%
X173255000Y-109775000D02*
X173255000Y-115015000D01*
X175995000Y-109775000D02*
X173255000Y-109775000D01*
X175995000Y-109775000D02*
X175995000Y-115015000D01*
X175995000Y-115015000D02*
X173255000Y-115015000D01*
%TO.C,J4*%
D15*
X175510126Y-129685000D02*
X175510126Y-133205000D01*
X178690126Y-127510000D02*
X180200126Y-127510000D01*
X178690126Y-135380000D02*
X180200126Y-135380000D01*
X183380126Y-129685000D02*
X183380126Y-133205000D01*
%TO.C,Q2*%
D13*
X161725000Y-113975000D02*
X161725000Y-115565000D01*
X162210000Y-116045000D02*
X165430000Y-116045000D01*
X165430000Y-116045000D02*
X165935000Y-115538950D01*
X165935000Y-115535000D02*
X165935000Y-113975000D01*
%TO.C,C8*%
X184050000Y-96480000D02*
X186790000Y-96480000D01*
X184050000Y-101720000D02*
X184050000Y-96480000D01*
X184050000Y-101720000D02*
X186790000Y-101720000D01*
X186790000Y-101720000D02*
X186790000Y-96480000D01*
%TO.C,D3*%
X168910000Y-104545000D02*
X168910000Y-105195000D01*
X168910000Y-110085000D02*
X168910000Y-109435000D01*
X170030000Y-105795000D02*
X167790000Y-105795000D01*
X170030000Y-105915000D02*
X167790000Y-105915000D01*
X170030000Y-106035000D02*
X167790000Y-106035000D01*
X167790000Y-105195000D02*
X170030000Y-105195000D01*
X170030000Y-109435000D01*
X167790000Y-109435000D01*
X167790000Y-105195000D01*
%TO.C,R2*%
X144780000Y-82320000D02*
X144780000Y-83090000D01*
X144780000Y-90400000D02*
X144780000Y-89630000D01*
X143410000Y-83090000D02*
X146150000Y-83090000D01*
X146150000Y-89630000D01*
X143410000Y-89630000D01*
X143410000Y-83090000D01*
%TO.C,U2*%
X152290000Y-74870000D02*
X152290000Y-85150000D01*
X152290000Y-85150000D02*
X153940000Y-85150000D01*
X155940000Y-85150000D02*
X157590000Y-85150000D01*
X157590000Y-74870000D02*
X152290000Y-74870000D01*
X157590000Y-85150000D02*
X157590000Y-74870000D01*
X149800000Y-74810000D02*
X160080000Y-74810000D01*
X160080000Y-85210000D01*
X149800000Y-85210000D01*
X149800000Y-74810000D01*
X153940000Y-85150000D02*
G75*
G02*
X155940000Y-85150000I1000000J0D01*
G01*
%TO.C,C3*%
X146585000Y-79950000D02*
X146585000Y-85190000D01*
X149325000Y-79950000D02*
X146585000Y-79950000D01*
X149325000Y-79950000D02*
X149325000Y-85190000D01*
X149325000Y-85190000D02*
X146585000Y-85190000D01*
%TO.C,D2*%
X158750000Y-104545000D02*
X158750000Y-105195000D01*
X158750000Y-110085000D02*
X158750000Y-109435000D01*
X159870000Y-105795000D02*
X157630000Y-105795000D01*
X159870000Y-105915000D02*
X157630000Y-105915000D01*
X159870000Y-106035000D02*
X157630000Y-106035000D01*
X157630000Y-105195000D02*
X159870000Y-105195000D01*
X159870000Y-109435000D01*
X157630000Y-109435000D01*
X157630000Y-105195000D01*
%TO.C,R4*%
X179070000Y-73430000D02*
X179070000Y-74200000D01*
X179070000Y-81510000D02*
X179070000Y-80740000D01*
X177700000Y-74200000D02*
X180440000Y-74200000D01*
X180440000Y-80740000D01*
X177700000Y-80740000D01*
X177700000Y-74200000D01*
%TO.C,U5*%
X175785000Y-91380000D02*
X175785000Y-109280000D01*
X175785000Y-109280000D02*
X177435000Y-109280000D01*
X179435000Y-109280000D02*
X181085000Y-109280000D01*
X181085000Y-91380000D02*
X175785000Y-91380000D01*
X181085000Y-109280000D02*
X181085000Y-91380000D01*
X173295000Y-91320000D02*
X183575000Y-91320000D01*
X183575000Y-109340000D01*
X173295000Y-109340000D01*
X173295000Y-91320000D01*
X177435000Y-109280000D02*
G75*
G02*
X179435000Y-109280000I1000000J0D01*
G01*
%TO.C,C7*%
X144045000Y-118360000D02*
X146785000Y-118360000D01*
X144045000Y-123600000D02*
X144045000Y-118360000D01*
X144045000Y-123600000D02*
X146785000Y-123600000D01*
X146785000Y-123600000D02*
X146785000Y-118360000D01*
%TO.C,C2*%
X146585000Y-72330000D02*
X149325000Y-72330000D01*
X146585000Y-77570000D02*
X146585000Y-72330000D01*
X146585000Y-77570000D02*
X149325000Y-77570000D01*
X149325000Y-77570000D02*
X149325000Y-72330000D01*
%TO.C,Q1*%
X156645000Y-113975000D02*
X156645000Y-115565000D01*
X157130000Y-116045000D02*
X160350000Y-116045000D01*
X160350000Y-116045000D02*
X160855000Y-115538950D01*
X160855000Y-115535000D02*
X160855000Y-113975000D01*
%TO.C,U3*%
X146575000Y-97095000D02*
X146575000Y-114995000D01*
X146575000Y-114995000D02*
X151875000Y-114995000D01*
X148225000Y-97095000D02*
X146575000Y-97095000D01*
X151875000Y-97095000D02*
X150225000Y-97095000D01*
X151875000Y-114995000D02*
X151875000Y-97095000D01*
X144085000Y-97035000D02*
X154365000Y-97035000D01*
X154365000Y-115055000D01*
X144085000Y-115055000D01*
X144085000Y-97035000D01*
X150225000Y-97095000D02*
G75*
G02*
X148225000Y-97095000I-1000000J0D01*
G01*
%TO.C,R1*%
X165100000Y-69620000D02*
X165100000Y-70390000D01*
X165100000Y-77700000D02*
X165100000Y-76930000D01*
X163730000Y-70390000D02*
X166470000Y-70390000D01*
X166470000Y-76930000D01*
X163730000Y-76930000D01*
X163730000Y-70390000D01*
%TO.C,R7*%
X183285000Y-111125000D02*
X184055000Y-111125000D01*
X191365000Y-111125000D02*
X190595000Y-111125000D01*
X184055000Y-109755000D02*
X190595000Y-109755000D01*
X190595000Y-112495000D01*
X184055000Y-112495000D01*
X184055000Y-109755000D01*
%TO.C,R3*%
X169950000Y-69522500D02*
X170720000Y-69522500D01*
X178030000Y-69522500D02*
X177260000Y-69522500D01*
X170720000Y-68152500D02*
X177260000Y-68152500D01*
X177260000Y-70892500D01*
X170720000Y-70892500D01*
X170720000Y-68152500D01*
%TO.C,C1*%
X163730000Y-80257500D02*
X166470000Y-80257500D01*
X163730000Y-85497500D02*
X163730000Y-80257500D01*
X163730000Y-85497500D02*
X166470000Y-85497500D01*
X166470000Y-85497500D02*
X166470000Y-80257500D01*
%TO.C,C9*%
X151665000Y-91355000D02*
X154405000Y-91355000D01*
X151665000Y-96595000D02*
X151665000Y-91355000D01*
X151665000Y-96595000D02*
X154405000Y-96595000D01*
X154405000Y-96595000D02*
X154405000Y-91355000D01*
%TO.C,RV1*%
D14*
X130302000Y-98597800D02*
X130302000Y-108376800D01*
X130302000Y-108376800D02*
X140081000Y-108376800D01*
X140081000Y-98597800D02*
X130302000Y-98597800D01*
X140081000Y-108376800D02*
X140081000Y-98597800D01*
X129286000Y-101252100D02*
G75*
G02*
X129032000Y-101252100I-127000J0D01*
G01*
X129032000Y-101252100D02*
G75*
G02*
X129286000Y-101252100I127000J0D01*
G01*
%TO.C,J2*%
D16*
X155600400Y-122250000D02*
G75*
G02*
X154838400Y-122250000I-381000J0D01*
G01*
X154838400Y-122250000D02*
G75*
G02*
X155600400Y-122250000I381000J0D01*
G01*
%TD*%
M02*
